<?xml version="1.0" encoding="utf-8" standalone="no"?>
<!DOCTYPE svg PUBLIC "-//W3C//DTD SVG 1.1//EN"
  "http://www.w3.org/Graphics/SVG/1.1/DTD/svg11.dtd">
<svg xmlns:xlink="http://www.w3.org/1999/xlink" width="460.8pt" height="172.8pt" viewBox="0 0 460.8 172.8" xmlns="http://www.w3.org/2000/svg" version="1.1">
 <metadata>
  <rdf:RDF xmlns:dc="http://purl.org/dc/elements/1.1/" xmlns:cc="http://creativecommons.org/ns#" xmlns:rdf="http://www.w3.org/1999/02/22-rdf-syntax-ns#">
   <cc:Work>
    <dc:type rdf:resource="http://purl.org/dc/dcmitype/StillImage"/>
    <dc:date>2025-07-25T15:42:50.226552</dc:date>
    <dc:format>image/svg+xml</dc:format>
    <dc:creator>
     <cc:Agent>
      <dc:title>Matplotlib v3.9.2, https://matplotlib.org/</dc:title>
     </cc:Agent>
    </dc:creator>
   </cc:Work>
  </rdf:RDF>
 </metadata>
 <defs>
  <style type="text/css">*{stroke-linejoin: round; stroke-linecap: butt}</style>
 </defs>
 <g id="figure_1">
  <g id="patch_1">
   <path d="M 0 172.8 
L 460.8 172.8 
L 460.8 0 
L 0 0 
z
" style="fill: #ffffff"/>
  </g>
  <g id="axes_1">
   <g id="patch_2">
    <path d="M 37.301959 140.252729 
L 227.39976 140.252729 
L 227.39976 14.82399 
L 37.301959 14.82399 
z
" style="fill: #ffffff"/>
   </g>
   <g id="patch_3">
    <path d="M 45.942768 140.252729 
L 49.469629 140.252729 
L 49.469629 140.252729 
L 45.942768 140.252729 
z
" clip-path="url(#p3de103020b)" style="fill: #0000ff; opacity: 0.7"/>
   </g>
   <g id="patch_4">
    <path d="M 49.469629 140.252729 
L 52.99649 140.252729 
L 52.99649 140.252729 
L 49.469629 140.252729 
z
" clip-path="url(#p3de103020b)" style="fill: #0000ff; opacity: 0.7"/>
   </g>
   <g id="patch_5">
    <path d="M 52.99649 140.252729 
L 56.523351 140.252729 
L 56.523351 140.252729 
L 52.99649 140.252729 
z
" clip-path="url(#p3de103020b)" style="fill: #0000ff; opacity: 0.7"/>
   </g>
   <g id="patch_6">
    <path d="M 56.523351 140.252729 
L 60.050211 140.252729 
L 60.050211 20.796787 
L 56.523351 20.796787 
z
" clip-path="url(#p3de103020b)" style="fill: #0000ff; opacity: 0.7"/>
   </g>
   <g id="patch_7">
    <path d="M 60.050211 140.252729 
L 63.577072 140.252729 
L 63.577072 140.252729 
L 60.050211 140.252729 
z
" clip-path="url(#p3de103020b)" style="fill: #0000ff; opacity: 0.7"/>
   </g>
   <g id="patch_8">
    <path d="M 63.577072 140.252729 
L 67.103933 140.252729 
L 67.103933 140.252729 
L 63.577072 140.252729 
z
" clip-path="url(#p3de103020b)" style="fill: #0000ff; opacity: 0.7"/>
   </g>
   <g id="patch_9">
    <path d="M 67.103933 140.252729 
L 70.630794 140.252729 
L 70.630794 140.252729 
L 67.103933 140.252729 
z
" clip-path="url(#p3de103020b)" style="fill: #0000ff; opacity: 0.7"/>
   </g>
   <g id="patch_10">
    <path d="M 70.630794 140.252729 
L 74.157655 140.252729 
L 74.157655 140.252729 
L 70.630794 140.252729 
z
" clip-path="url(#p3de103020b)" style="fill: #0000ff; opacity: 0.7"/>
   </g>
   <g id="patch_11">
    <path d="M 74.157655 140.252729 
L 77.684516 140.252729 
L 77.684516 140.252729 
L 74.157655 140.252729 
z
" clip-path="url(#p3de103020b)" style="fill: #0000ff; opacity: 0.7"/>
   </g>
   <g id="patch_12">
    <path d="M 77.684516 140.252729 
L 81.211377 140.252729 
L 81.211377 140.252729 
L 77.684516 140.252729 
z
" clip-path="url(#p3de103020b)" style="fill: #0000ff; opacity: 0.7"/>
   </g>
   <g id="patch_13">
    <path d="M 81.211377 140.252729 
L 84.738238 140.252729 
L 84.738238 140.252729 
L 81.211377 140.252729 
z
" clip-path="url(#p3de103020b)" style="fill: #0000ff; opacity: 0.7"/>
   </g>
   <g id="patch_14">
    <path d="M 84.738238 140.252729 
L 88.265098 140.252729 
L 88.265098 140.252729 
L 84.738238 140.252729 
z
" clip-path="url(#p3de103020b)" style="fill: #0000ff; opacity: 0.7"/>
   </g>
   <g id="patch_15">
    <path d="M 88.265098 140.252729 
L 91.791959 140.252729 
L 91.791959 20.796787 
L 88.265098 20.796787 
z
" clip-path="url(#p3de103020b)" style="fill: #0000ff; opacity: 0.7"/>
   </g>
   <g id="patch_16">
    <path d="M 91.791959 140.252729 
L 95.31882 140.252729 
L 95.31882 140.252729 
L 91.791959 140.252729 
z
" clip-path="url(#p3de103020b)" style="fill: #0000ff; opacity: 0.7"/>
   </g>
   <g id="patch_17">
    <path d="M 95.31882 140.252729 
L 98.845681 140.252729 
L 98.845681 20.796787 
L 95.31882 20.796787 
z
" clip-path="url(#p3de103020b)" style="fill: #0000ff; opacity: 0.7"/>
   </g>
   <g id="patch_18">
    <path d="M 98.845681 140.252729 
L 102.372542 140.252729 
L 102.372542 140.252729 
L 98.845681 140.252729 
z
" clip-path="url(#p3de103020b)" style="fill: #0000ff; opacity: 0.7"/>
   </g>
   <g id="patch_19">
    <path d="M 102.372542 140.252729 
L 105.899403 140.252729 
L 105.899403 20.796787 
L 102.372542 20.796787 
z
" clip-path="url(#p3de103020b)" style="fill: #0000ff; opacity: 0.7"/>
   </g>
   <g id="patch_20">
    <path d="M 105.899403 140.252729 
L 109.426264 140.252729 
L 109.426264 140.252729 
L 105.899403 140.252729 
z
" clip-path="url(#p3de103020b)" style="fill: #0000ff; opacity: 0.7"/>
   </g>
   <g id="patch_21">
    <path d="M 109.426264 140.252729 
L 112.953125 140.252729 
L 112.953125 20.796787 
L 109.426264 20.796787 
z
" clip-path="url(#p3de103020b)" style="fill: #0000ff; opacity: 0.7"/>
   </g>
   <g id="patch_22">
    <path d="M 112.953125 140.252729 
L 116.479985 140.252729 
L 116.479985 140.252729 
L 112.953125 140.252729 
z
" clip-path="url(#p3de103020b)" style="fill: #0000ff; opacity: 0.7"/>
   </g>
   <g id="patch_23">
    <path d="M 116.479985 140.252729 
L 120.006846 140.252729 
L 120.006846 140.252729 
L 116.479985 140.252729 
z
" clip-path="url(#p3de103020b)" style="fill: #0000ff; opacity: 0.7"/>
   </g>
   <g id="patch_24">
    <path d="M 120.006846 140.252729 
L 123.533707 140.252729 
L 123.533707 140.252729 
L 120.006846 140.252729 
z
" clip-path="url(#p3de103020b)" style="fill: #0000ff; opacity: 0.7"/>
   </g>
   <g id="patch_25">
    <path d="M 123.533707 140.252729 
L 127.060568 140.252729 
L 127.060568 20.796787 
L 123.533707 20.796787 
z
" clip-path="url(#p3de103020b)" style="fill: #0000ff; opacity: 0.7"/>
   </g>
   <g id="patch_26">
    <path d="M 127.060568 140.252729 
L 130.587429 140.252729 
L 130.587429 140.252729 
L 127.060568 140.252729 
z
" clip-path="url(#p3de103020b)" style="fill: #0000ff; opacity: 0.7"/>
   </g>
   <g id="patch_27">
    <path d="M 130.587429 140.252729 
L 134.11429 140.252729 
L 134.11429 140.252729 
L 130.587429 140.252729 
z
" clip-path="url(#p3de103020b)" style="fill: #0000ff; opacity: 0.7"/>
   </g>
   <g id="patch_28">
    <path d="M 134.11429 140.252729 
L 137.641151 140.252729 
L 137.641151 140.252729 
L 134.11429 140.252729 
z
" clip-path="url(#p3de103020b)" style="fill: #0000ff; opacity: 0.7"/>
   </g>
   <g id="patch_29">
    <path d="M 137.641151 140.252729 
L 141.168012 140.252729 
L 141.168012 140.252729 
L 137.641151 140.252729 
z
" clip-path="url(#p3de103020b)" style="fill: #0000ff; opacity: 0.7"/>
   </g>
   <g id="patch_30">
    <path d="M 141.168012 140.252729 
L 144.694872 140.252729 
L 144.694872 140.252729 
L 141.168012 140.252729 
z
" clip-path="url(#p3de103020b)" style="fill: #0000ff; opacity: 0.7"/>
   </g>
   <g id="patch_31">
    <path d="M 144.694872 140.252729 
L 148.221733 140.252729 
L 148.221733 140.252729 
L 144.694872 140.252729 
z
" clip-path="url(#p3de103020b)" style="fill: #0000ff; opacity: 0.7"/>
   </g>
   <g id="patch_32">
    <path d="M 148.221733 140.252729 
L 151.748594 140.252729 
L 151.748594 140.252729 
L 148.221733 140.252729 
z
" clip-path="url(#p3de103020b)" style="fill: #0000ff; opacity: 0.7"/>
   </g>
   <g id="patch_33">
    <path d="M 151.748594 140.252729 
L 155.275455 140.252729 
L 155.275455 140.252729 
L 151.748594 140.252729 
z
" clip-path="url(#p3de103020b)" style="fill: #0000ff; opacity: 0.7"/>
   </g>
   <g id="patch_34">
    <path d="M 155.275455 140.252729 
L 158.802316 140.252729 
L 158.802316 140.252729 
L 155.275455 140.252729 
z
" clip-path="url(#p3de103020b)" style="fill: #0000ff; opacity: 0.7"/>
   </g>
   <g id="patch_35">
    <path d="M 158.802316 140.252729 
L 162.329177 140.252729 
L 162.329177 140.252729 
L 158.802316 140.252729 
z
" clip-path="url(#p3de103020b)" style="fill: #0000ff; opacity: 0.7"/>
   </g>
   <g id="patch_36">
    <path d="M 162.329177 140.252729 
L 165.856038 140.252729 
L 165.856038 140.252729 
L 162.329177 140.252729 
z
" clip-path="url(#p3de103020b)" style="fill: #0000ff; opacity: 0.7"/>
   </g>
   <g id="patch_37">
    <path d="M 165.856038 140.252729 
L 169.382899 140.252729 
L 169.382899 140.252729 
L 165.856038 140.252729 
z
" clip-path="url(#p3de103020b)" style="fill: #0000ff; opacity: 0.7"/>
   </g>
   <g id="patch_38">
    <path d="M 169.382899 140.252729 
L 172.909759 140.252729 
L 172.909759 20.796787 
L 169.382899 20.796787 
z
" clip-path="url(#p3de103020b)" style="fill: #0000ff; opacity: 0.7"/>
   </g>
   <g id="patch_39">
    <path d="M 172.909759 140.252729 
L 176.43662 140.252729 
L 176.43662 140.252729 
L 172.909759 140.252729 
z
" clip-path="url(#p3de103020b)" style="fill: #0000ff; opacity: 0.7"/>
   </g>
   <g id="patch_40">
    <path d="M 176.43662 140.252729 
L 179.963481 140.252729 
L 179.963481 140.252729 
L 176.43662 140.252729 
z
" clip-path="url(#p3de103020b)" style="fill: #0000ff; opacity: 0.7"/>
   </g>
   <g id="patch_41">
    <path d="M 179.963481 140.252729 
L 183.490342 140.252729 
L 183.490342 140.252729 
L 179.963481 140.252729 
z
" clip-path="url(#p3de103020b)" style="fill: #0000ff; opacity: 0.7"/>
   </g>
   <g id="patch_42">
    <path d="M 183.490342 140.252729 
L 187.017203 140.252729 
L 187.017203 140.252729 
L 183.490342 140.252729 
z
" clip-path="url(#p3de103020b)" style="fill: #0000ff; opacity: 0.7"/>
   </g>
   <g id="patch_43">
    <path d="M 187.017203 140.252729 
L 190.544064 140.252729 
L 190.544064 140.252729 
L 187.017203 140.252729 
z
" clip-path="url(#p3de103020b)" style="fill: #0000ff; opacity: 0.7"/>
   </g>
   <g id="patch_44">
    <path d="M 190.544064 140.252729 
L 194.070925 140.252729 
L 194.070925 140.252729 
L 190.544064 140.252729 
z
" clip-path="url(#p3de103020b)" style="fill: #0000ff; opacity: 0.7"/>
   </g>
   <g id="patch_45">
    <path d="M 194.070925 140.252729 
L 197.597786 140.252729 
L 197.597786 140.252729 
L 194.070925 140.252729 
z
" clip-path="url(#p3de103020b)" style="fill: #0000ff; opacity: 0.7"/>
   </g>
   <g id="patch_46">
    <path d="M 197.597786 140.252729 
L 201.124646 140.252729 
L 201.124646 140.252729 
L 197.597786 140.252729 
z
" clip-path="url(#p3de103020b)" style="fill: #0000ff; opacity: 0.7"/>
   </g>
   <g id="patch_47">
    <path d="M 201.124646 140.252729 
L 204.651507 140.252729 
L 204.651507 140.252729 
L 201.124646 140.252729 
z
" clip-path="url(#p3de103020b)" style="fill: #0000ff; opacity: 0.7"/>
   </g>
   <g id="patch_48">
    <path d="M 204.651507 140.252729 
L 208.178368 140.252729 
L 208.178368 140.252729 
L 204.651507 140.252729 
z
" clip-path="url(#p3de103020b)" style="fill: #0000ff; opacity: 0.7"/>
   </g>
   <g id="patch_49">
    <path d="M 208.178368 140.252729 
L 211.705229 140.252729 
L 211.705229 140.252729 
L 208.178368 140.252729 
z
" clip-path="url(#p3de103020b)" style="fill: #0000ff; opacity: 0.7"/>
   </g>
   <g id="patch_50">
    <path d="M 211.705229 140.252729 
L 215.23209 140.252729 
L 215.23209 140.252729 
L 211.705229 140.252729 
z
" clip-path="url(#p3de103020b)" style="fill: #0000ff; opacity: 0.7"/>
   </g>
   <g id="patch_51">
    <path d="M 215.23209 140.252729 
L 218.758951 140.252729 
L 218.758951 140.252729 
L 215.23209 140.252729 
z
" clip-path="url(#p3de103020b)" style="fill: #0000ff; opacity: 0.7"/>
   </g>
   <g id="patch_52">
    <path d="M 45.942768 140.252729 
L 49.469629 140.252729 
L 49.469629 140.252729 
L 45.942768 140.252729 
z
" clip-path="url(#p3de103020b)" style="fill: #ff0000; opacity: 0.7"/>
   </g>
   <g id="patch_53">
    <path d="M 49.469629 140.252729 
L 52.99649 140.252729 
L 52.99649 140.252729 
L 49.469629 140.252729 
z
" clip-path="url(#p3de103020b)" style="fill: #ff0000; opacity: 0.7"/>
   </g>
   <g id="patch_54">
    <path d="M 52.99649 140.252729 
L 56.523351 140.252729 
L 56.523351 140.252729 
L 52.99649 140.252729 
z
" clip-path="url(#p3de103020b)" style="fill: #ff0000; opacity: 0.7"/>
   </g>
   <g id="patch_55">
    <path d="M 56.523351 140.252729 
L 60.050211 140.252729 
L 60.050211 140.252729 
L 56.523351 140.252729 
z
" clip-path="url(#p3de103020b)" style="fill: #ff0000; opacity: 0.7"/>
   </g>
   <g id="patch_56">
    <path d="M 60.050211 140.252729 
L 63.577072 140.252729 
L 63.577072 140.252729 
L 60.050211 140.252729 
z
" clip-path="url(#p3de103020b)" style="fill: #ff0000; opacity: 0.7"/>
   </g>
   <g id="patch_57">
    <path d="M 63.577072 140.252729 
L 67.103933 140.252729 
L 67.103933 140.252729 
L 63.577072 140.252729 
z
" clip-path="url(#p3de103020b)" style="fill: #ff0000; opacity: 0.7"/>
   </g>
   <g id="patch_58">
    <path d="M 67.103933 140.252729 
L 70.630794 140.252729 
L 70.630794 140.252729 
L 67.103933 140.252729 
z
" clip-path="url(#p3de103020b)" style="fill: #ff0000; opacity: 0.7"/>
   </g>
   <g id="patch_59">
    <path d="M 70.630794 140.252729 
L 74.157655 140.252729 
L 74.157655 140.252729 
L 70.630794 140.252729 
z
" clip-path="url(#p3de103020b)" style="fill: #ff0000; opacity: 0.7"/>
   </g>
   <g id="patch_60">
    <path d="M 74.157655 140.252729 
L 77.684516 140.252729 
L 77.684516 140.252729 
L 74.157655 140.252729 
z
" clip-path="url(#p3de103020b)" style="fill: #ff0000; opacity: 0.7"/>
   </g>
   <g id="patch_61">
    <path d="M 77.684516 140.252729 
L 81.211377 140.252729 
L 81.211377 140.252729 
L 77.684516 140.252729 
z
" clip-path="url(#p3de103020b)" style="fill: #ff0000; opacity: 0.7"/>
   </g>
   <g id="patch_62">
    <path d="M 81.211377 140.252729 
L 84.738238 140.252729 
L 84.738238 140.252729 
L 81.211377 140.252729 
z
" clip-path="url(#p3de103020b)" style="fill: #ff0000; opacity: 0.7"/>
   </g>
   <g id="patch_63">
    <path d="M 84.738238 140.252729 
L 88.265098 140.252729 
L 88.265098 140.252729 
L 84.738238 140.252729 
z
" clip-path="url(#p3de103020b)" style="fill: #ff0000; opacity: 0.7"/>
   </g>
   <g id="patch_64">
    <path d="M 88.265098 140.252729 
L 91.791959 140.252729 
L 91.791959 140.252729 
L 88.265098 140.252729 
z
" clip-path="url(#p3de103020b)" style="fill: #ff0000; opacity: 0.7"/>
   </g>
   <g id="patch_65">
    <path d="M 91.791959 140.252729 
L 95.31882 140.252729 
L 95.31882 140.252729 
L 91.791959 140.252729 
z
" clip-path="url(#p3de103020b)" style="fill: #ff0000; opacity: 0.7"/>
   </g>
   <g id="patch_66">
    <path d="M 95.31882 140.252729 
L 98.845681 140.252729 
L 98.845681 140.252729 
L 95.31882 140.252729 
z
" clip-path="url(#p3de103020b)" style="fill: #ff0000; opacity: 0.7"/>
   </g>
   <g id="patch_67">
    <path d="M 98.845681 140.252729 
L 102.372542 140.252729 
L 102.372542 140.252729 
L 98.845681 140.252729 
z
" clip-path="url(#p3de103020b)" style="fill: #ff0000; opacity: 0.7"/>
   </g>
   <g id="patch_68">
    <path d="M 102.372542 140.252729 
L 105.899403 140.252729 
L 105.899403 140.252729 
L 102.372542 140.252729 
z
" clip-path="url(#p3de103020b)" style="fill: #ff0000; opacity: 0.7"/>
   </g>
   <g id="patch_69">
    <path d="M 105.899403 140.252729 
L 109.426264 140.252729 
L 109.426264 140.252729 
L 105.899403 140.252729 
z
" clip-path="url(#p3de103020b)" style="fill: #ff0000; opacity: 0.7"/>
   </g>
   <g id="patch_70">
    <path d="M 109.426264 140.252729 
L 112.953125 140.252729 
L 112.953125 140.252729 
L 109.426264 140.252729 
z
" clip-path="url(#p3de103020b)" style="fill: #ff0000; opacity: 0.7"/>
   </g>
   <g id="patch_71">
    <path d="M 112.953125 140.252729 
L 116.479985 140.252729 
L 116.479985 140.252729 
L 112.953125 140.252729 
z
" clip-path="url(#p3de103020b)" style="fill: #ff0000; opacity: 0.7"/>
   </g>
   <g id="patch_72">
    <path d="M 116.479985 140.252729 
L 120.006846 140.252729 
L 120.006846 140.252729 
L 116.479985 140.252729 
z
" clip-path="url(#p3de103020b)" style="fill: #ff0000; opacity: 0.7"/>
   </g>
   <g id="patch_73">
    <path d="M 120.006846 140.252729 
L 123.533707 140.252729 
L 123.533707 140.252729 
L 120.006846 140.252729 
z
" clip-path="url(#p3de103020b)" style="fill: #ff0000; opacity: 0.7"/>
   </g>
   <g id="patch_74">
    <path d="M 123.533707 140.252729 
L 127.060568 140.252729 
L 127.060568 140.252729 
L 123.533707 140.252729 
z
" clip-path="url(#p3de103020b)" style="fill: #ff0000; opacity: 0.7"/>
   </g>
   <g id="patch_75">
    <path d="M 127.060568 140.252729 
L 130.587429 140.252729 
L 130.587429 140.252729 
L 127.060568 140.252729 
z
" clip-path="url(#p3de103020b)" style="fill: #ff0000; opacity: 0.7"/>
   </g>
   <g id="patch_76">
    <path d="M 130.587429 140.252729 
L 134.11429 140.252729 
L 134.11429 140.252729 
L 130.587429 140.252729 
z
" clip-path="url(#p3de103020b)" style="fill: #ff0000; opacity: 0.7"/>
   </g>
   <g id="patch_77">
    <path d="M 134.11429 140.252729 
L 137.641151 140.252729 
L 137.641151 140.252729 
L 134.11429 140.252729 
z
" clip-path="url(#p3de103020b)" style="fill: #ff0000; opacity: 0.7"/>
   </g>
   <g id="patch_78">
    <path d="M 137.641151 140.252729 
L 141.168012 140.252729 
L 141.168012 140.252729 
L 137.641151 140.252729 
z
" clip-path="url(#p3de103020b)" style="fill: #ff0000; opacity: 0.7"/>
   </g>
   <g id="patch_79">
    <path d="M 141.168012 140.252729 
L 144.694872 140.252729 
L 144.694872 140.252729 
L 141.168012 140.252729 
z
" clip-path="url(#p3de103020b)" style="fill: #ff0000; opacity: 0.7"/>
   </g>
   <g id="patch_80">
    <path d="M 144.694872 140.252729 
L 148.221733 140.252729 
L 148.221733 140.252729 
L 144.694872 140.252729 
z
" clip-path="url(#p3de103020b)" style="fill: #ff0000; opacity: 0.7"/>
   </g>
   <g id="patch_81">
    <path d="M 148.221733 140.252729 
L 151.748594 140.252729 
L 151.748594 140.252729 
L 148.221733 140.252729 
z
" clip-path="url(#p3de103020b)" style="fill: #ff0000; opacity: 0.7"/>
   </g>
   <g id="patch_82">
    <path d="M 151.748594 140.252729 
L 155.275455 140.252729 
L 155.275455 140.252729 
L 151.748594 140.252729 
z
" clip-path="url(#p3de103020b)" style="fill: #ff0000; opacity: 0.7"/>
   </g>
   <g id="patch_83">
    <path d="M 155.275455 140.252729 
L 158.802316 140.252729 
L 158.802316 140.252729 
L 155.275455 140.252729 
z
" clip-path="url(#p3de103020b)" style="fill: #ff0000; opacity: 0.7"/>
   </g>
   <g id="patch_84">
    <path d="M 158.802316 140.252729 
L 162.329177 140.252729 
L 162.329177 140.252729 
L 158.802316 140.252729 
z
" clip-path="url(#p3de103020b)" style="fill: #ff0000; opacity: 0.7"/>
   </g>
   <g id="patch_85">
    <path d="M 162.329177 140.252729 
L 165.856038 140.252729 
L 165.856038 140.252729 
L 162.329177 140.252729 
z
" clip-path="url(#p3de103020b)" style="fill: #ff0000; opacity: 0.7"/>
   </g>
   <g id="patch_86">
    <path d="M 165.856038 140.252729 
L 169.382899 140.252729 
L 169.382899 140.252729 
L 165.856038 140.252729 
z
" clip-path="url(#p3de103020b)" style="fill: #ff0000; opacity: 0.7"/>
   </g>
   <g id="patch_87">
    <path d="M 169.382899 140.252729 
L 172.909759 140.252729 
L 172.909759 140.252729 
L 169.382899 140.252729 
z
" clip-path="url(#p3de103020b)" style="fill: #ff0000; opacity: 0.7"/>
   </g>
   <g id="patch_88">
    <path d="M 172.909759 140.252729 
L 176.43662 140.252729 
L 176.43662 140.252729 
L 172.909759 140.252729 
z
" clip-path="url(#p3de103020b)" style="fill: #ff0000; opacity: 0.7"/>
   </g>
   <g id="patch_89">
    <path d="M 176.43662 140.252729 
L 179.963481 140.252729 
L 179.963481 140.252729 
L 176.43662 140.252729 
z
" clip-path="url(#p3de103020b)" style="fill: #ff0000; opacity: 0.7"/>
   </g>
   <g id="patch_90">
    <path d="M 179.963481 140.252729 
L 183.490342 140.252729 
L 183.490342 140.252729 
L 179.963481 140.252729 
z
" clip-path="url(#p3de103020b)" style="fill: #ff0000; opacity: 0.7"/>
   </g>
   <g id="patch_91">
    <path d="M 183.490342 140.252729 
L 187.017203 140.252729 
L 187.017203 140.252729 
L 183.490342 140.252729 
z
" clip-path="url(#p3de103020b)" style="fill: #ff0000; opacity: 0.7"/>
   </g>
   <g id="patch_92">
    <path d="M 187.017203 140.252729 
L 190.544064 140.252729 
L 190.544064 140.252729 
L 187.017203 140.252729 
z
" clip-path="url(#p3de103020b)" style="fill: #ff0000; opacity: 0.7"/>
   </g>
   <g id="patch_93">
    <path d="M 190.544064 140.252729 
L 194.070925 140.252729 
L 194.070925 140.252729 
L 190.544064 140.252729 
z
" clip-path="url(#p3de103020b)" style="fill: #ff0000; opacity: 0.7"/>
   </g>
   <g id="patch_94">
    <path d="M 194.070925 140.252729 
L 197.597786 140.252729 
L 197.597786 140.252729 
L 194.070925 140.252729 
z
" clip-path="url(#p3de103020b)" style="fill: #ff0000; opacity: 0.7"/>
   </g>
   <g id="patch_95">
    <path d="M 197.597786 140.252729 
L 201.124646 140.252729 
L 201.124646 140.252729 
L 197.597786 140.252729 
z
" clip-path="url(#p3de103020b)" style="fill: #ff0000; opacity: 0.7"/>
   </g>
   <g id="patch_96">
    <path d="M 201.124646 140.252729 
L 204.651507 140.252729 
L 204.651507 140.252729 
L 201.124646 140.252729 
z
" clip-path="url(#p3de103020b)" style="fill: #ff0000; opacity: 0.7"/>
   </g>
   <g id="patch_97">
    <path d="M 204.651507 140.252729 
L 208.178368 140.252729 
L 208.178368 140.252729 
L 204.651507 140.252729 
z
" clip-path="url(#p3de103020b)" style="fill: #ff0000; opacity: 0.7"/>
   </g>
   <g id="patch_98">
    <path d="M 208.178368 140.252729 
L 211.705229 140.252729 
L 211.705229 140.252729 
L 208.178368 140.252729 
z
" clip-path="url(#p3de103020b)" style="fill: #ff0000; opacity: 0.7"/>
   </g>
   <g id="patch_99">
    <path d="M 211.705229 140.252729 
L 215.23209 140.252729 
L 215.23209 140.252729 
L 211.705229 140.252729 
z
" clip-path="url(#p3de103020b)" style="fill: #ff0000; opacity: 0.7"/>
   </g>
   <g id="patch_100">
    <path d="M 215.23209 140.252729 
L 218.758951 140.252729 
L 218.758951 140.252729 
L 215.23209 140.252729 
z
" clip-path="url(#p3de103020b)" style="fill: #ff0000; opacity: 0.7"/>
   </g>
   <g id="patch_101">
    <path d="M 45.942768 140.252729 
L 49.469629 140.252729 
L 49.469629 140.252729 
L 45.942768 140.252729 
z
" clip-path="url(#p3de103020b)" style="fill: #808080; opacity: 0.7"/>
   </g>
   <g id="patch_102">
    <path d="M 49.469629 140.252729 
L 52.99649 140.252729 
L 52.99649 140.252729 
L 49.469629 140.252729 
z
" clip-path="url(#p3de103020b)" style="fill: #808080; opacity: 0.7"/>
   </g>
   <g id="patch_103">
    <path d="M 52.99649 140.252729 
L 56.523351 140.252729 
L 56.523351 140.252729 
L 52.99649 140.252729 
z
" clip-path="url(#p3de103020b)" style="fill: #808080; opacity: 0.7"/>
   </g>
   <g id="patch_104">
    <path d="M 56.523351 140.252729 
L 60.050211 140.252729 
L 60.050211 140.252729 
L 56.523351 140.252729 
z
" clip-path="url(#p3de103020b)" style="fill: #808080; opacity: 0.7"/>
   </g>
   <g id="patch_105">
    <path d="M 60.050211 140.252729 
L 63.577072 140.252729 
L 63.577072 140.252729 
L 60.050211 140.252729 
z
" clip-path="url(#p3de103020b)" style="fill: #808080; opacity: 0.7"/>
   </g>
   <g id="patch_106">
    <path d="M 63.577072 140.252729 
L 67.103933 140.252729 
L 67.103933 140.252729 
L 63.577072 140.252729 
z
" clip-path="url(#p3de103020b)" style="fill: #808080; opacity: 0.7"/>
   </g>
   <g id="patch_107">
    <path d="M 67.103933 140.252729 
L 70.630794 140.252729 
L 70.630794 140.252729 
L 67.103933 140.252729 
z
" clip-path="url(#p3de103020b)" style="fill: #808080; opacity: 0.7"/>
   </g>
   <g id="patch_108">
    <path d="M 70.630794 140.252729 
L 74.157655 140.252729 
L 74.157655 140.252729 
L 70.630794 140.252729 
z
" clip-path="url(#p3de103020b)" style="fill: #808080; opacity: 0.7"/>
   </g>
   <g id="patch_109">
    <path d="M 74.157655 140.252729 
L 77.684516 140.252729 
L 77.684516 140.252729 
L 74.157655 140.252729 
z
" clip-path="url(#p3de103020b)" style="fill: #808080; opacity: 0.7"/>
   </g>
   <g id="patch_110">
    <path d="M 77.684516 140.252729 
L 81.211377 140.252729 
L 81.211377 140.252729 
L 77.684516 140.252729 
z
" clip-path="url(#p3de103020b)" style="fill: #808080; opacity: 0.7"/>
   </g>
   <g id="patch_111">
    <path d="M 81.211377 140.252729 
L 84.738238 140.252729 
L 84.738238 140.252729 
L 81.211377 140.252729 
z
" clip-path="url(#p3de103020b)" style="fill: #808080; opacity: 0.7"/>
   </g>
   <g id="patch_112">
    <path d="M 84.738238 140.252729 
L 88.265098 140.252729 
L 88.265098 140.252729 
L 84.738238 140.252729 
z
" clip-path="url(#p3de103020b)" style="fill: #808080; opacity: 0.7"/>
   </g>
   <g id="patch_113">
    <path d="M 88.265098 140.252729 
L 91.791959 140.252729 
L 91.791959 140.252729 
L 88.265098 140.252729 
z
" clip-path="url(#p3de103020b)" style="fill: #808080; opacity: 0.7"/>
   </g>
   <g id="patch_114">
    <path d="M 91.791959 140.252729 
L 95.31882 140.252729 
L 95.31882 140.252729 
L 91.791959 140.252729 
z
" clip-path="url(#p3de103020b)" style="fill: #808080; opacity: 0.7"/>
   </g>
   <g id="patch_115">
    <path d="M 95.31882 140.252729 
L 98.845681 140.252729 
L 98.845681 140.252729 
L 95.31882 140.252729 
z
" clip-path="url(#p3de103020b)" style="fill: #808080; opacity: 0.7"/>
   </g>
   <g id="patch_116">
    <path d="M 98.845681 140.252729 
L 102.372542 140.252729 
L 102.372542 20.796787 
L 98.845681 20.796787 
z
" clip-path="url(#p3de103020b)" style="fill: #808080; opacity: 0.7"/>
   </g>
   <g id="patch_117">
    <path d="M 102.372542 140.252729 
L 105.899403 140.252729 
L 105.899403 140.252729 
L 102.372542 140.252729 
z
" clip-path="url(#p3de103020b)" style="fill: #808080; opacity: 0.7"/>
   </g>
   <g id="patch_118">
    <path d="M 105.899403 140.252729 
L 109.426264 140.252729 
L 109.426264 140.252729 
L 105.899403 140.252729 
z
" clip-path="url(#p3de103020b)" style="fill: #808080; opacity: 0.7"/>
   </g>
   <g id="patch_119">
    <path d="M 109.426264 140.252729 
L 112.953125 140.252729 
L 112.953125 140.252729 
L 109.426264 140.252729 
z
" clip-path="url(#p3de103020b)" style="fill: #808080; opacity: 0.7"/>
   </g>
   <g id="patch_120">
    <path d="M 112.953125 140.252729 
L 116.479985 140.252729 
L 116.479985 140.252729 
L 112.953125 140.252729 
z
" clip-path="url(#p3de103020b)" style="fill: #808080; opacity: 0.7"/>
   </g>
   <g id="patch_121">
    <path d="M 116.479985 140.252729 
L 120.006846 140.252729 
L 120.006846 20.796787 
L 116.479985 20.796787 
z
" clip-path="url(#p3de103020b)" style="fill: #808080; opacity: 0.7"/>
   </g>
   <g id="patch_122">
    <path d="M 120.006846 140.252729 
L 123.533707 140.252729 
L 123.533707 20.796787 
L 120.006846 20.796787 
z
" clip-path="url(#p3de103020b)" style="fill: #808080; opacity: 0.7"/>
   </g>
   <g id="patch_123">
    <path d="M 123.533707 140.252729 
L 127.060568 140.252729 
L 127.060568 140.252729 
L 123.533707 140.252729 
z
" clip-path="url(#p3de103020b)" style="fill: #808080; opacity: 0.7"/>
   </g>
   <g id="patch_124">
    <path d="M 127.060568 140.252729 
L 130.587429 140.252729 
L 130.587429 20.796787 
L 127.060568 20.796787 
z
" clip-path="url(#p3de103020b)" style="fill: #808080; opacity: 0.7"/>
   </g>
   <g id="patch_125">
    <path d="M 130.587429 140.252729 
L 134.11429 140.252729 
L 134.11429 20.796787 
L 130.587429 20.796787 
z
" clip-path="url(#p3de103020b)" style="fill: #808080; opacity: 0.7"/>
   </g>
   <g id="patch_126">
    <path d="M 134.11429 140.252729 
L 137.641151 140.252729 
L 137.641151 20.796787 
L 134.11429 20.796787 
z
" clip-path="url(#p3de103020b)" style="fill: #808080; opacity: 0.7"/>
   </g>
   <g id="patch_127">
    <path d="M 137.641151 140.252729 
L 141.168012 140.252729 
L 141.168012 20.796787 
L 137.641151 20.796787 
z
" clip-path="url(#p3de103020b)" style="fill: #808080; opacity: 0.7"/>
   </g>
   <g id="patch_128">
    <path d="M 141.168012 140.252729 
L 144.694872 140.252729 
L 144.694872 140.252729 
L 141.168012 140.252729 
z
" clip-path="url(#p3de103020b)" style="fill: #808080; opacity: 0.7"/>
   </g>
   <g id="patch_129">
    <path d="M 144.694872 140.252729 
L 148.221733 140.252729 
L 148.221733 140.252729 
L 144.694872 140.252729 
z
" clip-path="url(#p3de103020b)" style="fill: #808080; opacity: 0.7"/>
   </g>
   <g id="patch_130">
    <path d="M 148.221733 140.252729 
L 151.748594 140.252729 
L 151.748594 140.252729 
L 148.221733 140.252729 
z
" clip-path="url(#p3de103020b)" style="fill: #808080; opacity: 0.7"/>
   </g>
   <g id="patch_131">
    <path d="M 151.748594 140.252729 
L 155.275455 140.252729 
L 155.275455 140.252729 
L 151.748594 140.252729 
z
" clip-path="url(#p3de103020b)" style="fill: #808080; opacity: 0.7"/>
   </g>
   <g id="patch_132">
    <path d="M 155.275455 140.252729 
L 158.802316 140.252729 
L 158.802316 140.252729 
L 155.275455 140.252729 
z
" clip-path="url(#p3de103020b)" style="fill: #808080; opacity: 0.7"/>
   </g>
   <g id="patch_133">
    <path d="M 158.802316 140.252729 
L 162.329177 140.252729 
L 162.329177 140.252729 
L 158.802316 140.252729 
z
" clip-path="url(#p3de103020b)" style="fill: #808080; opacity: 0.7"/>
   </g>
   <g id="patch_134">
    <path d="M 162.329177 140.252729 
L 165.856038 140.252729 
L 165.856038 140.252729 
L 162.329177 140.252729 
z
" clip-path="url(#p3de103020b)" style="fill: #808080; opacity: 0.7"/>
   </g>
   <g id="patch_135">
    <path d="M 165.856038 140.252729 
L 169.382899 140.252729 
L 169.382899 140.252729 
L 165.856038 140.252729 
z
" clip-path="url(#p3de103020b)" style="fill: #808080; opacity: 0.7"/>
   </g>
   <g id="patch_136">
    <path d="M 169.382899 140.252729 
L 172.909759 140.252729 
L 172.909759 140.252729 
L 169.382899 140.252729 
z
" clip-path="url(#p3de103020b)" style="fill: #808080; opacity: 0.7"/>
   </g>
   <g id="patch_137">
    <path d="M 172.909759 140.252729 
L 176.43662 140.252729 
L 176.43662 140.252729 
L 172.909759 140.252729 
z
" clip-path="url(#p3de103020b)" style="fill: #808080; opacity: 0.7"/>
   </g>
   <g id="patch_138">
    <path d="M 176.43662 140.252729 
L 179.963481 140.252729 
L 179.963481 140.252729 
L 176.43662 140.252729 
z
" clip-path="url(#p3de103020b)" style="fill: #808080; opacity: 0.7"/>
   </g>
   <g id="patch_139">
    <path d="M 179.963481 140.252729 
L 183.490342 140.252729 
L 183.490342 140.252729 
L 179.963481 140.252729 
z
" clip-path="url(#p3de103020b)" style="fill: #808080; opacity: 0.7"/>
   </g>
   <g id="patch_140">
    <path d="M 183.490342 140.252729 
L 187.017203 140.252729 
L 187.017203 140.252729 
L 183.490342 140.252729 
z
" clip-path="url(#p3de103020b)" style="fill: #808080; opacity: 0.7"/>
   </g>
   <g id="patch_141">
    <path d="M 187.017203 140.252729 
L 190.544064 140.252729 
L 190.544064 140.252729 
L 187.017203 140.252729 
z
" clip-path="url(#p3de103020b)" style="fill: #808080; opacity: 0.7"/>
   </g>
   <g id="patch_142">
    <path d="M 190.544064 140.252729 
L 194.070925 140.252729 
L 194.070925 140.252729 
L 190.544064 140.252729 
z
" clip-path="url(#p3de103020b)" style="fill: #808080; opacity: 0.7"/>
   </g>
   <g id="patch_143">
    <path d="M 194.070925 140.252729 
L 197.597786 140.252729 
L 197.597786 140.252729 
L 194.070925 140.252729 
z
" clip-path="url(#p3de103020b)" style="fill: #808080; opacity: 0.7"/>
   </g>
   <g id="patch_144">
    <path d="M 197.597786 140.252729 
L 201.124646 140.252729 
L 201.124646 140.252729 
L 197.597786 140.252729 
z
" clip-path="url(#p3de103020b)" style="fill: #808080; opacity: 0.7"/>
   </g>
   <g id="patch_145">
    <path d="M 201.124646 140.252729 
L 204.651507 140.252729 
L 204.651507 140.252729 
L 201.124646 140.252729 
z
" clip-path="url(#p3de103020b)" style="fill: #808080; opacity: 0.7"/>
   </g>
   <g id="patch_146">
    <path d="M 204.651507 140.252729 
L 208.178368 140.252729 
L 208.178368 140.252729 
L 204.651507 140.252729 
z
" clip-path="url(#p3de103020b)" style="fill: #808080; opacity: 0.7"/>
   </g>
   <g id="patch_147">
    <path d="M 208.178368 140.252729 
L 211.705229 140.252729 
L 211.705229 140.252729 
L 208.178368 140.252729 
z
" clip-path="url(#p3de103020b)" style="fill: #808080; opacity: 0.7"/>
   </g>
   <g id="patch_148">
    <path d="M 211.705229 140.252729 
L 215.23209 140.252729 
L 215.23209 140.252729 
L 211.705229 140.252729 
z
" clip-path="url(#p3de103020b)" style="fill: #808080; opacity: 0.7"/>
   </g>
   <g id="patch_149">
    <path d="M 215.23209 140.252729 
L 218.758951 140.252729 
L 218.758951 140.252729 
L 215.23209 140.252729 
z
" clip-path="url(#p3de103020b)" style="fill: #808080; opacity: 0.7"/>
   </g>
   <g id="matplotlib.axis_1">
    <g id="xtick_1">
     <g id="line2d_1">
      <defs>
       <path id="ma18db1c35b" d="M 0 0 
L 0 -3 
" style="stroke: #000000; stroke-width: 0.5"/>
      </defs>
      <g>
       <use xlink:href="#ma18db1c35b" x="45.942768" y="140.252729" style="stroke: #000000; stroke-width: 0.5"/>
      </g>
     </g>
     <g id="text_1">
      <text style="font: 10px 'Arial'; text-anchor: middle" x="45.942768" y="157.410541" transform="rotate(-0 45.942768 157.410541)">−1.0</text>
     </g>
    </g>
    <g id="xtick_2">
     <g id="line2d_2">
      <g>
       <use xlink:href="#ma18db1c35b" x="89.146814" y="140.252729" style="stroke: #000000; stroke-width: 0.5"/>
      </g>
     </g>
     <g id="text_2">
      <text style="font: 10px 'Arial'; text-anchor: middle" x="89.146814" y="157.410541" transform="rotate(-0 89.146814 157.410541)">−0.5</text>
     </g>
    </g>
    <g id="xtick_3">
     <g id="line2d_3">
      <g>
       <use xlink:href="#ma18db1c35b" x="132.350859" y="140.252729" style="stroke: #000000; stroke-width: 0.5"/>
      </g>
     </g>
     <g id="text_3">
      <text style="font: 10px 'Arial'; text-anchor: middle" x="132.350859" y="157.410541" transform="rotate(-0 132.350859 157.410541)">0.0</text>
     </g>
    </g>
    <g id="xtick_4">
     <g id="line2d_4">
      <g>
       <use xlink:href="#ma18db1c35b" x="175.554905" y="140.252729" style="stroke: #000000; stroke-width: 0.5"/>
      </g>
     </g>
     <g id="text_4">
      <text style="font: 10px 'Arial'; text-anchor: middle" x="175.554905" y="157.410541" transform="rotate(-0 175.554905 157.410541)">0.5</text>
     </g>
    </g>
    <g id="xtick_5">
     <g id="line2d_5">
      <g>
       <use xlink:href="#ma18db1c35b" x="218.758951" y="140.252729" style="stroke: #000000; stroke-width: 0.5"/>
      </g>
     </g>
     <g id="text_5">
      <text style="font: 10px 'Arial'; text-anchor: middle" x="218.758951" y="157.410541" transform="rotate(-0 218.758951 157.410541)">1.0</text>
     </g>
    </g>
    <g id="text_6">
     <text style="font: 7px 'Arial'; text-anchor: middle" x="132.350859" y="168.40851" transform="rotate(-0 132.350859 168.40851)">r</text>
    </g>
   </g>
   <g id="matplotlib.axis_2">
    <g id="ytick_1">
     <g id="line2d_6">
      <defs>
       <path id="m34d725c870" d="M 0 0 
L 3 0 
" style="stroke: #000000; stroke-width: 0.5"/>
      </defs>
      <g>
       <use xlink:href="#m34d725c870" x="37.301959" y="140.252729" style="stroke: #000000; stroke-width: 0.5"/>
      </g>
     </g>
     <g id="text_7">
      <text style="font: 10px 'Arial'; text-anchor: end" x="27.301959" y="143.831635" transform="rotate(-0 27.301959 143.831635)">0.0</text>
     </g>
    </g>
    <g id="ytick_2">
     <g id="line2d_7">
      <g>
       <use xlink:href="#m34d725c870" x="37.301959" y="116.36154" style="stroke: #000000; stroke-width: 0.5"/>
      </g>
     </g>
     <g id="text_8">
      <text style="font: 10px 'Arial'; text-anchor: end" x="27.301959" y="119.940447" transform="rotate(-0 27.301959 119.940447)">0.2</text>
     </g>
    </g>
    <g id="ytick_3">
     <g id="line2d_8">
      <g>
       <use xlink:href="#m34d725c870" x="37.301959" y="92.470352" style="stroke: #000000; stroke-width: 0.5"/>
      </g>
     </g>
     <g id="text_9">
      <text style="font: 10px 'Arial'; text-anchor: end" x="27.301959" y="96.049258" transform="rotate(-0 27.301959 96.049258)">0.4</text>
     </g>
    </g>
    <g id="ytick_4">
     <g id="line2d_9">
      <g>
       <use xlink:href="#m34d725c870" x="37.301959" y="68.579164" style="stroke: #000000; stroke-width: 0.5"/>
      </g>
     </g>
     <g id="text_10">
      <text style="font: 10px 'Arial'; text-anchor: end" x="27.301959" y="72.15807" transform="rotate(-0 27.301959 72.15807)">0.6</text>
     </g>
    </g>
    <g id="ytick_5">
     <g id="line2d_10">
      <g>
       <use xlink:href="#m34d725c870" x="37.301959" y="44.687975" style="stroke: #000000; stroke-width: 0.5"/>
      </g>
     </g>
     <g id="text_11">
      <text style="font: 10px 'Arial'; text-anchor: end" x="27.301959" y="48.266882" transform="rotate(-0 27.301959 48.266882)">0.8</text>
     </g>
    </g>
    <g id="ytick_6">
     <g id="line2d_11">
      <g>
       <use xlink:href="#m34d725c870" x="37.301959" y="20.796787" style="stroke: #000000; stroke-width: 0.5"/>
      </g>
     </g>
     <g id="text_12">
      <text style="font: 10px 'Arial'; text-anchor: end" x="27.301959" y="24.375693" transform="rotate(-0 27.301959 24.375693)">1.0</text>
     </g>
    </g>
    <g id="text_13">
     <text style="font: 7px 'Arial'; text-anchor: middle" x="8.010709" y="77.538359" transform="rotate(-90 8.010709 77.538359)">count</text>
    </g>
   </g>
   <g id="line2d_12">
    <path d="M 104.725713 140.252729 
L 104.725713 14.82399 
" clip-path="url(#p3de103020b)" style="fill: none; stroke-dasharray: 3.7,1.6; stroke-dashoffset: 0; stroke: #0000ff"/>
   </g>
   <g id="line2d_13">
    <path d="M 129.900638 140.252729 
L 129.900638 14.82399 
" clip-path="url(#p3de103020b)" style="fill: none; stroke-dasharray: 3.7,1.6; stroke-dashoffset: 0; stroke: #808080"/>
   </g>
   <g id="patch_150">
    <path d="M 37.301959 140.252729 
L 37.301959 14.82399 
" style="fill: none; stroke: #000000; stroke-width: 0.5; stroke-linejoin: miter; stroke-linecap: square"/>
   </g>
   <g id="patch_151">
    <path d="M 227.39976 140.252729 
L 227.39976 14.82399 
" style="fill: none; stroke: #000000; stroke-width: 0.5; stroke-linejoin: miter; stroke-linecap: square"/>
   </g>
   <g id="patch_152">
    <path d="M 37.301959 140.252729 
L 227.39976 140.252729 
" style="fill: none; stroke: #000000; stroke-width: 0.5; stroke-linejoin: miter; stroke-linecap: square"/>
   </g>
   <g id="patch_153">
    <path d="M 37.301959 14.82399 
L 227.39976 14.82399 
" style="fill: none; stroke: #000000; stroke-width: 0.5; stroke-linejoin: miter; stroke-linecap: square"/>
   </g>
   <g id="text_14">
    <text style="font: 7px 'Arial'; text-anchor: end" x="217.89487" y="26.191208" transform="rotate(-0 217.89487 26.191208)">0.0% sig</text>
   </g>
   <g id="text_15">
    <text style="font: 8px 'Arial'; text-anchor: middle" x="132.350859" y="8.82399" transform="rotate(-0 132.350859 8.82399)">PC: p=0.857</text>
   </g>
   <g id="legend_1">
    <g id="patch_154">
     <path d="M 167.61726 116.545229 
L 179.61726 116.545229 
L 179.61726 112.345229 
L 167.61726 112.345229 
z
" style="fill: #0000ff; opacity: 0.7"/>
    </g>
    <g id="text_16">
     <text style="font: 6px 'Arial'; text-anchor: start" x="184.41726" y="116.545229" transform="rotate(-0 184.41726 116.545229)">orig non-sig</text>
    </g>
    <g id="patch_155">
     <path d="M 167.61726 125.102729 
L 179.61726 125.102729 
L 179.61726 120.902729 
L 167.61726 120.902729 
z
" style="fill: #ff0000; opacity: 0.7"/>
    </g>
    <g id="text_17">
     <text style="font: 6px 'Arial'; text-anchor: start" x="184.41726" y="125.102729" transform="rotate(-0 184.41726 125.102729)">orig sig</text>
    </g>
    <g id="patch_156">
     <path d="M 167.61726 133.660229 
L 179.61726 133.660229 
L 179.61726 129.460229 
L 167.61726 129.460229 
z
" style="fill: #808080; opacity: 0.7"/>
    </g>
    <g id="text_18">
     <text style="font: 6px 'Arial'; text-anchor: start" x="184.41726" y="133.660229" transform="rotate(-0 184.41726 133.660229)">shuffled mean</text>
    </g>
   </g>
  </g>
  <g id="axes_2">
   <g id="patch_157">
    <path d="M 267.701959 140.252729 
L 457.79976 140.252729 
L 457.79976 14.82399 
L 267.701959 14.82399 
z
" style="fill: #ffffff"/>
   </g>
   <g id="patch_158">
    <path d="M 276.342768 140.252729 
L 279.869629 140.252729 
L 279.869629 140.252729 
L 276.342768 140.252729 
z
" clip-path="url(#p19f1a9d4e4)" style="fill: #0000ff; opacity: 0.7"/>
   </g>
   <g id="patch_159">
    <path d="M 279.869629 140.252729 
L 283.39649 140.252729 
L 283.39649 140.252729 
L 279.869629 140.252729 
z
" clip-path="url(#p19f1a9d4e4)" style="fill: #0000ff; opacity: 0.7"/>
   </g>
   <g id="patch_160">
    <path d="M 283.39649 140.252729 
L 286.923351 140.252729 
L 286.923351 140.252729 
L 283.39649 140.252729 
z
" clip-path="url(#p19f1a9d4e4)" style="fill: #0000ff; opacity: 0.7"/>
   </g>
   <g id="patch_161">
    <path d="M 286.923351 140.252729 
L 290.450211 140.252729 
L 290.450211 140.252729 
L 286.923351 140.252729 
z
" clip-path="url(#p19f1a9d4e4)" style="fill: #0000ff; opacity: 0.7"/>
   </g>
   <g id="patch_162">
    <path d="M 290.450211 140.252729 
L 293.977072 140.252729 
L 293.977072 140.252729 
L 290.450211 140.252729 
z
" clip-path="url(#p19f1a9d4e4)" style="fill: #0000ff; opacity: 0.7"/>
   </g>
   <g id="patch_163">
    <path d="M 293.977072 140.252729 
L 297.503933 140.252729 
L 297.503933 140.252729 
L 293.977072 140.252729 
z
" clip-path="url(#p19f1a9d4e4)" style="fill: #0000ff; opacity: 0.7"/>
   </g>
   <g id="patch_164">
    <path d="M 297.503933 140.252729 
L 301.030794 140.252729 
L 301.030794 140.252729 
L 297.503933 140.252729 
z
" clip-path="url(#p19f1a9d4e4)" style="fill: #0000ff; opacity: 0.7"/>
   </g>
   <g id="patch_165">
    <path d="M 301.030794 140.252729 
L 304.557655 140.252729 
L 304.557655 140.252729 
L 301.030794 140.252729 
z
" clip-path="url(#p19f1a9d4e4)" style="fill: #0000ff; opacity: 0.7"/>
   </g>
   <g id="patch_166">
    <path d="M 304.557655 140.252729 
L 308.084516 140.252729 
L 308.084516 140.252729 
L 304.557655 140.252729 
z
" clip-path="url(#p19f1a9d4e4)" style="fill: #0000ff; opacity: 0.7"/>
   </g>
   <g id="patch_167">
    <path d="M 308.084516 140.252729 
L 311.611377 140.252729 
L 311.611377 140.252729 
L 308.084516 140.252729 
z
" clip-path="url(#p19f1a9d4e4)" style="fill: #0000ff; opacity: 0.7"/>
   </g>
   <g id="patch_168">
    <path d="M 311.611377 140.252729 
L 315.138238 140.252729 
L 315.138238 140.252729 
L 311.611377 140.252729 
z
" clip-path="url(#p19f1a9d4e4)" style="fill: #0000ff; opacity: 0.7"/>
   </g>
   <g id="patch_169">
    <path d="M 315.138238 140.252729 
L 318.665098 140.252729 
L 318.665098 140.252729 
L 315.138238 140.252729 
z
" clip-path="url(#p19f1a9d4e4)" style="fill: #0000ff; opacity: 0.7"/>
   </g>
   <g id="patch_170">
    <path d="M 318.665098 140.252729 
L 322.191959 140.252729 
L 322.191959 140.252729 
L 318.665098 140.252729 
z
" clip-path="url(#p19f1a9d4e4)" style="fill: #0000ff; opacity: 0.7"/>
   </g>
   <g id="patch_171">
    <path d="M 322.191959 140.252729 
L 325.71882 140.252729 
L 325.71882 140.252729 
L 322.191959 140.252729 
z
" clip-path="url(#p19f1a9d4e4)" style="fill: #0000ff; opacity: 0.7"/>
   </g>
   <g id="patch_172">
    <path d="M 325.71882 140.252729 
L 329.245681 140.252729 
L 329.245681 140.252729 
L 325.71882 140.252729 
z
" clip-path="url(#p19f1a9d4e4)" style="fill: #0000ff; opacity: 0.7"/>
   </g>
   <g id="patch_173">
    <path d="M 329.245681 140.252729 
L 332.772542 140.252729 
L 332.772542 20.796787 
L 329.245681 20.796787 
z
" clip-path="url(#p19f1a9d4e4)" style="fill: #0000ff; opacity: 0.7"/>
   </g>
   <g id="patch_174">
    <path d="M 332.772542 140.252729 
L 336.299403 140.252729 
L 336.299403 20.796787 
L 332.772542 20.796787 
z
" clip-path="url(#p19f1a9d4e4)" style="fill: #0000ff; opacity: 0.7"/>
   </g>
   <g id="patch_175">
    <path d="M 336.299403 140.252729 
L 339.826264 140.252729 
L 339.826264 140.252729 
L 336.299403 140.252729 
z
" clip-path="url(#p19f1a9d4e4)" style="fill: #0000ff; opacity: 0.7"/>
   </g>
   <g id="patch_176">
    <path d="M 339.826264 140.252729 
L 343.353125 140.252729 
L 343.353125 140.252729 
L 339.826264 140.252729 
z
" clip-path="url(#p19f1a9d4e4)" style="fill: #0000ff; opacity: 0.7"/>
   </g>
   <g id="patch_177">
    <path d="M 343.353125 140.252729 
L 346.879985 140.252729 
L 346.879985 140.252729 
L 343.353125 140.252729 
z
" clip-path="url(#p19f1a9d4e4)" style="fill: #0000ff; opacity: 0.7"/>
   </g>
   <g id="patch_178">
    <path d="M 346.879985 140.252729 
L 350.406846 140.252729 
L 350.406846 140.252729 
L 346.879985 140.252729 
z
" clip-path="url(#p19f1a9d4e4)" style="fill: #0000ff; opacity: 0.7"/>
   </g>
   <g id="patch_179">
    <path d="M 350.406846 140.252729 
L 353.933707 140.252729 
L 353.933707 140.252729 
L 350.406846 140.252729 
z
" clip-path="url(#p19f1a9d4e4)" style="fill: #0000ff; opacity: 0.7"/>
   </g>
   <g id="patch_180">
    <path d="M 353.933707 140.252729 
L 357.460568 140.252729 
L 357.460568 140.252729 
L 353.933707 140.252729 
z
" clip-path="url(#p19f1a9d4e4)" style="fill: #0000ff; opacity: 0.7"/>
   </g>
   <g id="patch_181">
    <path d="M 357.460568 140.252729 
L 360.987429 140.252729 
L 360.987429 140.252729 
L 357.460568 140.252729 
z
" clip-path="url(#p19f1a9d4e4)" style="fill: #0000ff; opacity: 0.7"/>
   </g>
   <g id="patch_182">
    <path d="M 360.987429 140.252729 
L 364.51429 140.252729 
L 364.51429 140.252729 
L 360.987429 140.252729 
z
" clip-path="url(#p19f1a9d4e4)" style="fill: #0000ff; opacity: 0.7"/>
   </g>
   <g id="patch_183">
    <path d="M 364.51429 140.252729 
L 368.041151 140.252729 
L 368.041151 140.252729 
L 364.51429 140.252729 
z
" clip-path="url(#p19f1a9d4e4)" style="fill: #0000ff; opacity: 0.7"/>
   </g>
   <g id="patch_184">
    <path d="M 368.041151 140.252729 
L 371.568012 140.252729 
L 371.568012 140.252729 
L 368.041151 140.252729 
z
" clip-path="url(#p19f1a9d4e4)" style="fill: #0000ff; opacity: 0.7"/>
   </g>
   <g id="patch_185">
    <path d="M 371.568012 140.252729 
L 375.094872 140.252729 
L 375.094872 20.796787 
L 371.568012 20.796787 
z
" clip-path="url(#p19f1a9d4e4)" style="fill: #0000ff; opacity: 0.7"/>
   </g>
   <g id="patch_186">
    <path d="M 375.094872 140.252729 
L 378.621733 140.252729 
L 378.621733 140.252729 
L 375.094872 140.252729 
z
" clip-path="url(#p19f1a9d4e4)" style="fill: #0000ff; opacity: 0.7"/>
   </g>
   <g id="patch_187">
    <path d="M 378.621733 140.252729 
L 382.148594 140.252729 
L 382.148594 140.252729 
L 378.621733 140.252729 
z
" clip-path="url(#p19f1a9d4e4)" style="fill: #0000ff; opacity: 0.7"/>
   </g>
   <g id="patch_188">
    <path d="M 382.148594 140.252729 
L 385.675455 140.252729 
L 385.675455 140.252729 
L 382.148594 140.252729 
z
" clip-path="url(#p19f1a9d4e4)" style="fill: #0000ff; opacity: 0.7"/>
   </g>
   <g id="patch_189">
    <path d="M 385.675455 140.252729 
L 389.202316 140.252729 
L 389.202316 140.252729 
L 385.675455 140.252729 
z
" clip-path="url(#p19f1a9d4e4)" style="fill: #0000ff; opacity: 0.7"/>
   </g>
   <g id="patch_190">
    <path d="M 389.202316 140.252729 
L 392.729177 140.252729 
L 392.729177 140.252729 
L 389.202316 140.252729 
z
" clip-path="url(#p19f1a9d4e4)" style="fill: #0000ff; opacity: 0.7"/>
   </g>
   <g id="patch_191">
    <path d="M 392.729177 140.252729 
L 396.256038 140.252729 
L 396.256038 140.252729 
L 392.729177 140.252729 
z
" clip-path="url(#p19f1a9d4e4)" style="fill: #0000ff; opacity: 0.7"/>
   </g>
   <g id="patch_192">
    <path d="M 396.256038 140.252729 
L 399.782899 140.252729 
L 399.782899 140.252729 
L 396.256038 140.252729 
z
" clip-path="url(#p19f1a9d4e4)" style="fill: #0000ff; opacity: 0.7"/>
   </g>
   <g id="patch_193">
    <path d="M 399.782899 140.252729 
L 403.309759 140.252729 
L 403.309759 140.252729 
L 399.782899 140.252729 
z
" clip-path="url(#p19f1a9d4e4)" style="fill: #0000ff; opacity: 0.7"/>
   </g>
   <g id="patch_194">
    <path d="M 403.309759 140.252729 
L 406.83662 140.252729 
L 406.83662 20.796787 
L 403.309759 20.796787 
z
" clip-path="url(#p19f1a9d4e4)" style="fill: #0000ff; opacity: 0.7"/>
   </g>
   <g id="patch_195">
    <path d="M 406.83662 140.252729 
L 410.363481 140.252729 
L 410.363481 140.252729 
L 406.83662 140.252729 
z
" clip-path="url(#p19f1a9d4e4)" style="fill: #0000ff; opacity: 0.7"/>
   </g>
   <g id="patch_196">
    <path d="M 410.363481 140.252729 
L 413.890342 140.252729 
L 413.890342 140.252729 
L 410.363481 140.252729 
z
" clip-path="url(#p19f1a9d4e4)" style="fill: #0000ff; opacity: 0.7"/>
   </g>
   <g id="patch_197">
    <path d="M 413.890342 140.252729 
L 417.417203 140.252729 
L 417.417203 140.252729 
L 413.890342 140.252729 
z
" clip-path="url(#p19f1a9d4e4)" style="fill: #0000ff; opacity: 0.7"/>
   </g>
   <g id="patch_198">
    <path d="M 417.417203 140.252729 
L 420.944064 140.252729 
L 420.944064 140.252729 
L 417.417203 140.252729 
z
" clip-path="url(#p19f1a9d4e4)" style="fill: #0000ff; opacity: 0.7"/>
   </g>
   <g id="patch_199">
    <path d="M 420.944064 140.252729 
L 424.470925 140.252729 
L 424.470925 140.252729 
L 420.944064 140.252729 
z
" clip-path="url(#p19f1a9d4e4)" style="fill: #0000ff; opacity: 0.7"/>
   </g>
   <g id="patch_200">
    <path d="M 424.470925 140.252729 
L 427.997786 140.252729 
L 427.997786 140.252729 
L 424.470925 140.252729 
z
" clip-path="url(#p19f1a9d4e4)" style="fill: #0000ff; opacity: 0.7"/>
   </g>
   <g id="patch_201">
    <path d="M 427.997786 140.252729 
L 431.524646 140.252729 
L 431.524646 140.252729 
L 427.997786 140.252729 
z
" clip-path="url(#p19f1a9d4e4)" style="fill: #0000ff; opacity: 0.7"/>
   </g>
   <g id="patch_202">
    <path d="M 431.524646 140.252729 
L 435.051507 140.252729 
L 435.051507 140.252729 
L 431.524646 140.252729 
z
" clip-path="url(#p19f1a9d4e4)" style="fill: #0000ff; opacity: 0.7"/>
   </g>
   <g id="patch_203">
    <path d="M 435.051507 140.252729 
L 438.578368 140.252729 
L 438.578368 140.252729 
L 435.051507 140.252729 
z
" clip-path="url(#p19f1a9d4e4)" style="fill: #0000ff; opacity: 0.7"/>
   </g>
   <g id="patch_204">
    <path d="M 438.578368 140.252729 
L 442.105229 140.252729 
L 442.105229 140.252729 
L 438.578368 140.252729 
z
" clip-path="url(#p19f1a9d4e4)" style="fill: #0000ff; opacity: 0.7"/>
   </g>
   <g id="patch_205">
    <path d="M 442.105229 140.252729 
L 445.63209 140.252729 
L 445.63209 140.252729 
L 442.105229 140.252729 
z
" clip-path="url(#p19f1a9d4e4)" style="fill: #0000ff; opacity: 0.7"/>
   </g>
   <g id="patch_206">
    <path d="M 445.63209 140.252729 
L 449.158951 140.252729 
L 449.158951 140.252729 
L 445.63209 140.252729 
z
" clip-path="url(#p19f1a9d4e4)" style="fill: #0000ff; opacity: 0.7"/>
   </g>
   <g id="patch_207">
    <path d="M 276.342768 140.252729 
L 279.869629 140.252729 
L 279.869629 140.252729 
L 276.342768 140.252729 
z
" clip-path="url(#p19f1a9d4e4)" style="fill: #ff0000; opacity: 0.7"/>
   </g>
   <g id="patch_208">
    <path d="M 279.869629 140.252729 
L 283.39649 140.252729 
L 283.39649 140.252729 
L 279.869629 140.252729 
z
" clip-path="url(#p19f1a9d4e4)" style="fill: #ff0000; opacity: 0.7"/>
   </g>
   <g id="patch_209">
    <path d="M 283.39649 140.252729 
L 286.923351 140.252729 
L 286.923351 140.252729 
L 283.39649 140.252729 
z
" clip-path="url(#p19f1a9d4e4)" style="fill: #ff0000; opacity: 0.7"/>
   </g>
   <g id="patch_210">
    <path d="M 286.923351 140.252729 
L 290.450211 140.252729 
L 290.450211 140.252729 
L 286.923351 140.252729 
z
" clip-path="url(#p19f1a9d4e4)" style="fill: #ff0000; opacity: 0.7"/>
   </g>
   <g id="patch_211">
    <path d="M 290.450211 140.252729 
L 293.977072 140.252729 
L 293.977072 140.252729 
L 290.450211 140.252729 
z
" clip-path="url(#p19f1a9d4e4)" style="fill: #ff0000; opacity: 0.7"/>
   </g>
   <g id="patch_212">
    <path d="M 293.977072 140.252729 
L 297.503933 140.252729 
L 297.503933 140.252729 
L 293.977072 140.252729 
z
" clip-path="url(#p19f1a9d4e4)" style="fill: #ff0000; opacity: 0.7"/>
   </g>
   <g id="patch_213">
    <path d="M 297.503933 140.252729 
L 301.030794 140.252729 
L 301.030794 140.252729 
L 297.503933 140.252729 
z
" clip-path="url(#p19f1a9d4e4)" style="fill: #ff0000; opacity: 0.7"/>
   </g>
   <g id="patch_214">
    <path d="M 301.030794 140.252729 
L 304.557655 140.252729 
L 304.557655 140.252729 
L 301.030794 140.252729 
z
" clip-path="url(#p19f1a9d4e4)" style="fill: #ff0000; opacity: 0.7"/>
   </g>
   <g id="patch_215">
    <path d="M 304.557655 140.252729 
L 308.084516 140.252729 
L 308.084516 140.252729 
L 304.557655 140.252729 
z
" clip-path="url(#p19f1a9d4e4)" style="fill: #ff0000; opacity: 0.7"/>
   </g>
   <g id="patch_216">
    <path d="M 308.084516 140.252729 
L 311.611377 140.252729 
L 311.611377 140.252729 
L 308.084516 140.252729 
z
" clip-path="url(#p19f1a9d4e4)" style="fill: #ff0000; opacity: 0.7"/>
   </g>
   <g id="patch_217">
    <path d="M 311.611377 140.252729 
L 315.138238 140.252729 
L 315.138238 140.252729 
L 311.611377 140.252729 
z
" clip-path="url(#p19f1a9d4e4)" style="fill: #ff0000; opacity: 0.7"/>
   </g>
   <g id="patch_218">
    <path d="M 315.138238 140.252729 
L 318.665098 140.252729 
L 318.665098 140.252729 
L 315.138238 140.252729 
z
" clip-path="url(#p19f1a9d4e4)" style="fill: #ff0000; opacity: 0.7"/>
   </g>
   <g id="patch_219">
    <path d="M 318.665098 140.252729 
L 322.191959 140.252729 
L 322.191959 140.252729 
L 318.665098 140.252729 
z
" clip-path="url(#p19f1a9d4e4)" style="fill: #ff0000; opacity: 0.7"/>
   </g>
   <g id="patch_220">
    <path d="M 322.191959 140.252729 
L 325.71882 140.252729 
L 325.71882 140.252729 
L 322.191959 140.252729 
z
" clip-path="url(#p19f1a9d4e4)" style="fill: #ff0000; opacity: 0.7"/>
   </g>
   <g id="patch_221">
    <path d="M 325.71882 140.252729 
L 329.245681 140.252729 
L 329.245681 140.252729 
L 325.71882 140.252729 
z
" clip-path="url(#p19f1a9d4e4)" style="fill: #ff0000; opacity: 0.7"/>
   </g>
   <g id="patch_222">
    <path d="M 329.245681 140.252729 
L 332.772542 140.252729 
L 332.772542 140.252729 
L 329.245681 140.252729 
z
" clip-path="url(#p19f1a9d4e4)" style="fill: #ff0000; opacity: 0.7"/>
   </g>
   <g id="patch_223">
    <path d="M 332.772542 140.252729 
L 336.299403 140.252729 
L 336.299403 140.252729 
L 332.772542 140.252729 
z
" clip-path="url(#p19f1a9d4e4)" style="fill: #ff0000; opacity: 0.7"/>
   </g>
   <g id="patch_224">
    <path d="M 336.299403 140.252729 
L 339.826264 140.252729 
L 339.826264 140.252729 
L 336.299403 140.252729 
z
" clip-path="url(#p19f1a9d4e4)" style="fill: #ff0000; opacity: 0.7"/>
   </g>
   <g id="patch_225">
    <path d="M 339.826264 140.252729 
L 343.353125 140.252729 
L 343.353125 140.252729 
L 339.826264 140.252729 
z
" clip-path="url(#p19f1a9d4e4)" style="fill: #ff0000; opacity: 0.7"/>
   </g>
   <g id="patch_226">
    <path d="M 343.353125 140.252729 
L 346.879985 140.252729 
L 346.879985 140.252729 
L 343.353125 140.252729 
z
" clip-path="url(#p19f1a9d4e4)" style="fill: #ff0000; opacity: 0.7"/>
   </g>
   <g id="patch_227">
    <path d="M 346.879985 140.252729 
L 350.406846 140.252729 
L 350.406846 140.252729 
L 346.879985 140.252729 
z
" clip-path="url(#p19f1a9d4e4)" style="fill: #ff0000; opacity: 0.7"/>
   </g>
   <g id="patch_228">
    <path d="M 350.406846 140.252729 
L 353.933707 140.252729 
L 353.933707 140.252729 
L 350.406846 140.252729 
z
" clip-path="url(#p19f1a9d4e4)" style="fill: #ff0000; opacity: 0.7"/>
   </g>
   <g id="patch_229">
    <path d="M 353.933707 140.252729 
L 357.460568 140.252729 
L 357.460568 140.252729 
L 353.933707 140.252729 
z
" clip-path="url(#p19f1a9d4e4)" style="fill: #ff0000; opacity: 0.7"/>
   </g>
   <g id="patch_230">
    <path d="M 357.460568 140.252729 
L 360.987429 140.252729 
L 360.987429 140.252729 
L 357.460568 140.252729 
z
" clip-path="url(#p19f1a9d4e4)" style="fill: #ff0000; opacity: 0.7"/>
   </g>
   <g id="patch_231">
    <path d="M 360.987429 140.252729 
L 364.51429 140.252729 
L 364.51429 140.252729 
L 360.987429 140.252729 
z
" clip-path="url(#p19f1a9d4e4)" style="fill: #ff0000; opacity: 0.7"/>
   </g>
   <g id="patch_232">
    <path d="M 364.51429 140.252729 
L 368.041151 140.252729 
L 368.041151 140.252729 
L 364.51429 140.252729 
z
" clip-path="url(#p19f1a9d4e4)" style="fill: #ff0000; opacity: 0.7"/>
   </g>
   <g id="patch_233">
    <path d="M 368.041151 140.252729 
L 371.568012 140.252729 
L 371.568012 140.252729 
L 368.041151 140.252729 
z
" clip-path="url(#p19f1a9d4e4)" style="fill: #ff0000; opacity: 0.7"/>
   </g>
   <g id="patch_234">
    <path d="M 371.568012 140.252729 
L 375.094872 140.252729 
L 375.094872 140.252729 
L 371.568012 140.252729 
z
" clip-path="url(#p19f1a9d4e4)" style="fill: #ff0000; opacity: 0.7"/>
   </g>
   <g id="patch_235">
    <path d="M 375.094872 140.252729 
L 378.621733 140.252729 
L 378.621733 140.252729 
L 375.094872 140.252729 
z
" clip-path="url(#p19f1a9d4e4)" style="fill: #ff0000; opacity: 0.7"/>
   </g>
   <g id="patch_236">
    <path d="M 378.621733 140.252729 
L 382.148594 140.252729 
L 382.148594 140.252729 
L 378.621733 140.252729 
z
" clip-path="url(#p19f1a9d4e4)" style="fill: #ff0000; opacity: 0.7"/>
   </g>
   <g id="patch_237">
    <path d="M 382.148594 140.252729 
L 385.675455 140.252729 
L 385.675455 140.252729 
L 382.148594 140.252729 
z
" clip-path="url(#p19f1a9d4e4)" style="fill: #ff0000; opacity: 0.7"/>
   </g>
   <g id="patch_238">
    <path d="M 385.675455 140.252729 
L 389.202316 140.252729 
L 389.202316 140.252729 
L 385.675455 140.252729 
z
" clip-path="url(#p19f1a9d4e4)" style="fill: #ff0000; opacity: 0.7"/>
   </g>
   <g id="patch_239">
    <path d="M 389.202316 140.252729 
L 392.729177 140.252729 
L 392.729177 140.252729 
L 389.202316 140.252729 
z
" clip-path="url(#p19f1a9d4e4)" style="fill: #ff0000; opacity: 0.7"/>
   </g>
   <g id="patch_240">
    <path d="M 392.729177 140.252729 
L 396.256038 140.252729 
L 396.256038 140.252729 
L 392.729177 140.252729 
z
" clip-path="url(#p19f1a9d4e4)" style="fill: #ff0000; opacity: 0.7"/>
   </g>
   <g id="patch_241">
    <path d="M 396.256038 140.252729 
L 399.782899 140.252729 
L 399.782899 140.252729 
L 396.256038 140.252729 
z
" clip-path="url(#p19f1a9d4e4)" style="fill: #ff0000; opacity: 0.7"/>
   </g>
   <g id="patch_242">
    <path d="M 399.782899 140.252729 
L 403.309759 140.252729 
L 403.309759 140.252729 
L 399.782899 140.252729 
z
" clip-path="url(#p19f1a9d4e4)" style="fill: #ff0000; opacity: 0.7"/>
   </g>
   <g id="patch_243">
    <path d="M 403.309759 140.252729 
L 406.83662 140.252729 
L 406.83662 140.252729 
L 403.309759 140.252729 
z
" clip-path="url(#p19f1a9d4e4)" style="fill: #ff0000; opacity: 0.7"/>
   </g>
   <g id="patch_244">
    <path d="M 406.83662 140.252729 
L 410.363481 140.252729 
L 410.363481 140.252729 
L 406.83662 140.252729 
z
" clip-path="url(#p19f1a9d4e4)" style="fill: #ff0000; opacity: 0.7"/>
   </g>
   <g id="patch_245">
    <path d="M 410.363481 140.252729 
L 413.890342 140.252729 
L 413.890342 140.252729 
L 410.363481 140.252729 
z
" clip-path="url(#p19f1a9d4e4)" style="fill: #ff0000; opacity: 0.7"/>
   </g>
   <g id="patch_246">
    <path d="M 413.890342 140.252729 
L 417.417203 140.252729 
L 417.417203 140.252729 
L 413.890342 140.252729 
z
" clip-path="url(#p19f1a9d4e4)" style="fill: #ff0000; opacity: 0.7"/>
   </g>
   <g id="patch_247">
    <path d="M 417.417203 140.252729 
L 420.944064 140.252729 
L 420.944064 140.252729 
L 417.417203 140.252729 
z
" clip-path="url(#p19f1a9d4e4)" style="fill: #ff0000; opacity: 0.7"/>
   </g>
   <g id="patch_248">
    <path d="M 420.944064 140.252729 
L 424.470925 140.252729 
L 424.470925 140.252729 
L 420.944064 140.252729 
z
" clip-path="url(#p19f1a9d4e4)" style="fill: #ff0000; opacity: 0.7"/>
   </g>
   <g id="patch_249">
    <path d="M 424.470925 140.252729 
L 427.997786 140.252729 
L 427.997786 140.252729 
L 424.470925 140.252729 
z
" clip-path="url(#p19f1a9d4e4)" style="fill: #ff0000; opacity: 0.7"/>
   </g>
   <g id="patch_250">
    <path d="M 427.997786 140.252729 
L 431.524646 140.252729 
L 431.524646 140.252729 
L 427.997786 140.252729 
z
" clip-path="url(#p19f1a9d4e4)" style="fill: #ff0000; opacity: 0.7"/>
   </g>
   <g id="patch_251">
    <path d="M 431.524646 140.252729 
L 435.051507 140.252729 
L 435.051507 140.252729 
L 431.524646 140.252729 
z
" clip-path="url(#p19f1a9d4e4)" style="fill: #ff0000; opacity: 0.7"/>
   </g>
   <g id="patch_252">
    <path d="M 435.051507 140.252729 
L 438.578368 140.252729 
L 438.578368 140.252729 
L 435.051507 140.252729 
z
" clip-path="url(#p19f1a9d4e4)" style="fill: #ff0000; opacity: 0.7"/>
   </g>
   <g id="patch_253">
    <path d="M 438.578368 140.252729 
L 442.105229 140.252729 
L 442.105229 140.252729 
L 438.578368 140.252729 
z
" clip-path="url(#p19f1a9d4e4)" style="fill: #ff0000; opacity: 0.7"/>
   </g>
   <g id="patch_254">
    <path d="M 442.105229 140.252729 
L 445.63209 140.252729 
L 445.63209 140.252729 
L 442.105229 140.252729 
z
" clip-path="url(#p19f1a9d4e4)" style="fill: #ff0000; opacity: 0.7"/>
   </g>
   <g id="patch_255">
    <path d="M 445.63209 140.252729 
L 449.158951 140.252729 
L 449.158951 140.252729 
L 445.63209 140.252729 
z
" clip-path="url(#p19f1a9d4e4)" style="fill: #ff0000; opacity: 0.7"/>
   </g>
   <g id="patch_256">
    <path d="M 276.342768 140.252729 
L 279.869629 140.252729 
L 279.869629 140.252729 
L 276.342768 140.252729 
z
" clip-path="url(#p19f1a9d4e4)" style="fill: #808080; opacity: 0.7"/>
   </g>
   <g id="patch_257">
    <path d="M 279.869629 140.252729 
L 283.39649 140.252729 
L 283.39649 140.252729 
L 279.869629 140.252729 
z
" clip-path="url(#p19f1a9d4e4)" style="fill: #808080; opacity: 0.7"/>
   </g>
   <g id="patch_258">
    <path d="M 283.39649 140.252729 
L 286.923351 140.252729 
L 286.923351 140.252729 
L 283.39649 140.252729 
z
" clip-path="url(#p19f1a9d4e4)" style="fill: #808080; opacity: 0.7"/>
   </g>
   <g id="patch_259">
    <path d="M 286.923351 140.252729 
L 290.450211 140.252729 
L 290.450211 140.252729 
L 286.923351 140.252729 
z
" clip-path="url(#p19f1a9d4e4)" style="fill: #808080; opacity: 0.7"/>
   </g>
   <g id="patch_260">
    <path d="M 290.450211 140.252729 
L 293.977072 140.252729 
L 293.977072 140.252729 
L 290.450211 140.252729 
z
" clip-path="url(#p19f1a9d4e4)" style="fill: #808080; opacity: 0.7"/>
   </g>
   <g id="patch_261">
    <path d="M 293.977072 140.252729 
L 297.503933 140.252729 
L 297.503933 140.252729 
L 293.977072 140.252729 
z
" clip-path="url(#p19f1a9d4e4)" style="fill: #808080; opacity: 0.7"/>
   </g>
   <g id="patch_262">
    <path d="M 297.503933 140.252729 
L 301.030794 140.252729 
L 301.030794 140.252729 
L 297.503933 140.252729 
z
" clip-path="url(#p19f1a9d4e4)" style="fill: #808080; opacity: 0.7"/>
   </g>
   <g id="patch_263">
    <path d="M 301.030794 140.252729 
L 304.557655 140.252729 
L 304.557655 140.252729 
L 301.030794 140.252729 
z
" clip-path="url(#p19f1a9d4e4)" style="fill: #808080; opacity: 0.7"/>
   </g>
   <g id="patch_264">
    <path d="M 304.557655 140.252729 
L 308.084516 140.252729 
L 308.084516 140.252729 
L 304.557655 140.252729 
z
" clip-path="url(#p19f1a9d4e4)" style="fill: #808080; opacity: 0.7"/>
   </g>
   <g id="patch_265">
    <path d="M 308.084516 140.252729 
L 311.611377 140.252729 
L 311.611377 140.252729 
L 308.084516 140.252729 
z
" clip-path="url(#p19f1a9d4e4)" style="fill: #808080; opacity: 0.7"/>
   </g>
   <g id="patch_266">
    <path d="M 311.611377 140.252729 
L 315.138238 140.252729 
L 315.138238 140.252729 
L 311.611377 140.252729 
z
" clip-path="url(#p19f1a9d4e4)" style="fill: #808080; opacity: 0.7"/>
   </g>
   <g id="patch_267">
    <path d="M 315.138238 140.252729 
L 318.665098 140.252729 
L 318.665098 140.252729 
L 315.138238 140.252729 
z
" clip-path="url(#p19f1a9d4e4)" style="fill: #808080; opacity: 0.7"/>
   </g>
   <g id="patch_268">
    <path d="M 318.665098 140.252729 
L 322.191959 140.252729 
L 322.191959 140.252729 
L 318.665098 140.252729 
z
" clip-path="url(#p19f1a9d4e4)" style="fill: #808080; opacity: 0.7"/>
   </g>
   <g id="patch_269">
    <path d="M 322.191959 140.252729 
L 325.71882 140.252729 
L 325.71882 140.252729 
L 322.191959 140.252729 
z
" clip-path="url(#p19f1a9d4e4)" style="fill: #808080; opacity: 0.7"/>
   </g>
   <g id="patch_270">
    <path d="M 325.71882 140.252729 
L 329.245681 140.252729 
L 329.245681 140.252729 
L 325.71882 140.252729 
z
" clip-path="url(#p19f1a9d4e4)" style="fill: #808080; opacity: 0.7"/>
   </g>
   <g id="patch_271">
    <path d="M 329.245681 140.252729 
L 332.772542 140.252729 
L 332.772542 140.252729 
L 329.245681 140.252729 
z
" clip-path="url(#p19f1a9d4e4)" style="fill: #808080; opacity: 0.7"/>
   </g>
   <g id="patch_272">
    <path d="M 332.772542 140.252729 
L 336.299403 140.252729 
L 336.299403 140.252729 
L 332.772542 140.252729 
z
" clip-path="url(#p19f1a9d4e4)" style="fill: #808080; opacity: 0.7"/>
   </g>
   <g id="patch_273">
    <path d="M 336.299403 140.252729 
L 339.826264 140.252729 
L 339.826264 140.252729 
L 336.299403 140.252729 
z
" clip-path="url(#p19f1a9d4e4)" style="fill: #808080; opacity: 0.7"/>
   </g>
   <g id="patch_274">
    <path d="M 339.826264 140.252729 
L 343.353125 140.252729 
L 343.353125 140.252729 
L 339.826264 140.252729 
z
" clip-path="url(#p19f1a9d4e4)" style="fill: #808080; opacity: 0.7"/>
   </g>
   <g id="patch_275">
    <path d="M 343.353125 140.252729 
L 346.879985 140.252729 
L 346.879985 140.252729 
L 343.353125 140.252729 
z
" clip-path="url(#p19f1a9d4e4)" style="fill: #808080; opacity: 0.7"/>
   </g>
   <g id="patch_276">
    <path d="M 346.879985 140.252729 
L 350.406846 140.252729 
L 350.406846 140.252729 
L 346.879985 140.252729 
z
" clip-path="url(#p19f1a9d4e4)" style="fill: #808080; opacity: 0.7"/>
   </g>
   <g id="patch_277">
    <path d="M 350.406846 140.252729 
L 353.933707 140.252729 
L 353.933707 140.252729 
L 350.406846 140.252729 
z
" clip-path="url(#p19f1a9d4e4)" style="fill: #808080; opacity: 0.7"/>
   </g>
   <g id="patch_278">
    <path d="M 353.933707 140.252729 
L 357.460568 140.252729 
L 357.460568 20.796787 
L 353.933707 20.796787 
z
" clip-path="url(#p19f1a9d4e4)" style="fill: #808080; opacity: 0.7"/>
   </g>
   <g id="patch_279">
    <path d="M 357.460568 140.252729 
L 360.987429 140.252729 
L 360.987429 20.796787 
L 357.460568 20.796787 
z
" clip-path="url(#p19f1a9d4e4)" style="fill: #808080; opacity: 0.7"/>
   </g>
   <g id="patch_280">
    <path d="M 360.987429 140.252729 
L 364.51429 140.252729 
L 364.51429 20.796787 
L 360.987429 20.796787 
z
" clip-path="url(#p19f1a9d4e4)" style="fill: #808080; opacity: 0.7"/>
   </g>
   <g id="patch_281">
    <path d="M 364.51429 140.252729 
L 368.041151 140.252729 
L 368.041151 20.796787 
L 364.51429 20.796787 
z
" clip-path="url(#p19f1a9d4e4)" style="fill: #808080; opacity: 0.7"/>
   </g>
   <g id="patch_282">
    <path d="M 368.041151 140.252729 
L 371.568012 140.252729 
L 371.568012 140.252729 
L 368.041151 140.252729 
z
" clip-path="url(#p19f1a9d4e4)" style="fill: #808080; opacity: 0.7"/>
   </g>
   <g id="patch_283">
    <path d="M 371.568012 140.252729 
L 375.094872 140.252729 
L 375.094872 140.252729 
L 371.568012 140.252729 
z
" clip-path="url(#p19f1a9d4e4)" style="fill: #808080; opacity: 0.7"/>
   </g>
   <g id="patch_284">
    <path d="M 375.094872 140.252729 
L 378.621733 140.252729 
L 378.621733 140.252729 
L 375.094872 140.252729 
z
" clip-path="url(#p19f1a9d4e4)" style="fill: #808080; opacity: 0.7"/>
   </g>
   <g id="patch_285">
    <path d="M 378.621733 140.252729 
L 382.148594 140.252729 
L 382.148594 140.252729 
L 378.621733 140.252729 
z
" clip-path="url(#p19f1a9d4e4)" style="fill: #808080; opacity: 0.7"/>
   </g>
   <g id="patch_286">
    <path d="M 382.148594 140.252729 
L 385.675455 140.252729 
L 385.675455 140.252729 
L 382.148594 140.252729 
z
" clip-path="url(#p19f1a9d4e4)" style="fill: #808080; opacity: 0.7"/>
   </g>
   <g id="patch_287">
    <path d="M 385.675455 140.252729 
L 389.202316 140.252729 
L 389.202316 140.252729 
L 385.675455 140.252729 
z
" clip-path="url(#p19f1a9d4e4)" style="fill: #808080; opacity: 0.7"/>
   </g>
   <g id="patch_288">
    <path d="M 389.202316 140.252729 
L 392.729177 140.252729 
L 392.729177 140.252729 
L 389.202316 140.252729 
z
" clip-path="url(#p19f1a9d4e4)" style="fill: #808080; opacity: 0.7"/>
   </g>
   <g id="patch_289">
    <path d="M 392.729177 140.252729 
L 396.256038 140.252729 
L 396.256038 140.252729 
L 392.729177 140.252729 
z
" clip-path="url(#p19f1a9d4e4)" style="fill: #808080; opacity: 0.7"/>
   </g>
   <g id="patch_290">
    <path d="M 396.256038 140.252729 
L 399.782899 140.252729 
L 399.782899 140.252729 
L 396.256038 140.252729 
z
" clip-path="url(#p19f1a9d4e4)" style="fill: #808080; opacity: 0.7"/>
   </g>
   <g id="patch_291">
    <path d="M 399.782899 140.252729 
L 403.309759 140.252729 
L 403.309759 140.252729 
L 399.782899 140.252729 
z
" clip-path="url(#p19f1a9d4e4)" style="fill: #808080; opacity: 0.7"/>
   </g>
   <g id="patch_292">
    <path d="M 403.309759 140.252729 
L 406.83662 140.252729 
L 406.83662 140.252729 
L 403.309759 140.252729 
z
" clip-path="url(#p19f1a9d4e4)" style="fill: #808080; opacity: 0.7"/>
   </g>
   <g id="patch_293">
    <path d="M 406.83662 140.252729 
L 410.363481 140.252729 
L 410.363481 140.252729 
L 406.83662 140.252729 
z
" clip-path="url(#p19f1a9d4e4)" style="fill: #808080; opacity: 0.7"/>
   </g>
   <g id="patch_294">
    <path d="M 410.363481 140.252729 
L 413.890342 140.252729 
L 413.890342 140.252729 
L 410.363481 140.252729 
z
" clip-path="url(#p19f1a9d4e4)" style="fill: #808080; opacity: 0.7"/>
   </g>
   <g id="patch_295">
    <path d="M 413.890342 140.252729 
L 417.417203 140.252729 
L 417.417203 140.252729 
L 413.890342 140.252729 
z
" clip-path="url(#p19f1a9d4e4)" style="fill: #808080; opacity: 0.7"/>
   </g>
   <g id="patch_296">
    <path d="M 417.417203 140.252729 
L 420.944064 140.252729 
L 420.944064 140.252729 
L 417.417203 140.252729 
z
" clip-path="url(#p19f1a9d4e4)" style="fill: #808080; opacity: 0.7"/>
   </g>
   <g id="patch_297">
    <path d="M 420.944064 140.252729 
L 424.470925 140.252729 
L 424.470925 140.252729 
L 420.944064 140.252729 
z
" clip-path="url(#p19f1a9d4e4)" style="fill: #808080; opacity: 0.7"/>
   </g>
   <g id="patch_298">
    <path d="M 424.470925 140.252729 
L 427.997786 140.252729 
L 427.997786 140.252729 
L 424.470925 140.252729 
z
" clip-path="url(#p19f1a9d4e4)" style="fill: #808080; opacity: 0.7"/>
   </g>
   <g id="patch_299">
    <path d="M 427.997786 140.252729 
L 431.524646 140.252729 
L 431.524646 140.252729 
L 427.997786 140.252729 
z
" clip-path="url(#p19f1a9d4e4)" style="fill: #808080; opacity: 0.7"/>
   </g>
   <g id="patch_300">
    <path d="M 431.524646 140.252729 
L 435.051507 140.252729 
L 435.051507 140.252729 
L 431.524646 140.252729 
z
" clip-path="url(#p19f1a9d4e4)" style="fill: #808080; opacity: 0.7"/>
   </g>
   <g id="patch_301">
    <path d="M 435.051507 140.252729 
L 438.578368 140.252729 
L 438.578368 140.252729 
L 435.051507 140.252729 
z
" clip-path="url(#p19f1a9d4e4)" style="fill: #808080; opacity: 0.7"/>
   </g>
   <g id="patch_302">
    <path d="M 438.578368 140.252729 
L 442.105229 140.252729 
L 442.105229 140.252729 
L 438.578368 140.252729 
z
" clip-path="url(#p19f1a9d4e4)" style="fill: #808080; opacity: 0.7"/>
   </g>
   <g id="patch_303">
    <path d="M 442.105229 140.252729 
L 445.63209 140.252729 
L 445.63209 140.252729 
L 442.105229 140.252729 
z
" clip-path="url(#p19f1a9d4e4)" style="fill: #808080; opacity: 0.7"/>
   </g>
   <g id="patch_304">
    <path d="M 445.63209 140.252729 
L 449.158951 140.252729 
L 449.158951 140.252729 
L 445.63209 140.252729 
z
" clip-path="url(#p19f1a9d4e4)" style="fill: #808080; opacity: 0.7"/>
   </g>
   <g id="matplotlib.axis_3">
    <g id="xtick_6">
     <g id="line2d_14">
      <g>
       <use xlink:href="#ma18db1c35b" x="276.342768" y="140.252729" style="stroke: #000000; stroke-width: 0.5"/>
      </g>
     </g>
     <g id="text_19">
      <text style="font: 10px 'Arial'; text-anchor: middle" x="276.342768" y="157.410541" transform="rotate(-0 276.342768 157.410541)">−1.0</text>
     </g>
    </g>
    <g id="xtick_7">
     <g id="line2d_15">
      <g>
       <use xlink:href="#ma18db1c35b" x="319.546814" y="140.252729" style="stroke: #000000; stroke-width: 0.5"/>
      </g>
     </g>
     <g id="text_20">
      <text style="font: 10px 'Arial'; text-anchor: middle" x="319.546814" y="157.410541" transform="rotate(-0 319.546814 157.410541)">−0.5</text>
     </g>
    </g>
    <g id="xtick_8">
     <g id="line2d_16">
      <g>
       <use xlink:href="#ma18db1c35b" x="362.750859" y="140.252729" style="stroke: #000000; stroke-width: 0.5"/>
      </g>
     </g>
     <g id="text_21">
      <text style="font: 10px 'Arial'; text-anchor: middle" x="362.750859" y="157.410541" transform="rotate(-0 362.750859 157.410541)">0.0</text>
     </g>
    </g>
    <g id="xtick_9">
     <g id="line2d_17">
      <g>
       <use xlink:href="#ma18db1c35b" x="405.954905" y="140.252729" style="stroke: #000000; stroke-width: 0.5"/>
      </g>
     </g>
     <g id="text_22">
      <text style="font: 10px 'Arial'; text-anchor: middle" x="405.954905" y="157.410541" transform="rotate(-0 405.954905 157.410541)">0.5</text>
     </g>
    </g>
    <g id="xtick_10">
     <g id="line2d_18">
      <g>
       <use xlink:href="#ma18db1c35b" x="449.158951" y="140.252729" style="stroke: #000000; stroke-width: 0.5"/>
      </g>
     </g>
     <g id="text_23">
      <text style="font: 10px 'Arial'; text-anchor: middle" x="449.158951" y="157.410541" transform="rotate(-0 449.158951 157.410541)">1.0</text>
     </g>
    </g>
    <g id="text_24">
     <text style="font: 7px 'Arial'; text-anchor: middle" x="362.750859" y="168.40851" transform="rotate(-0 362.750859 168.40851)">r</text>
    </g>
   </g>
   <g id="matplotlib.axis_4">
    <g id="ytick_7">
     <g id="line2d_19">
      <g>
       <use xlink:href="#m34d725c870" x="267.701959" y="140.252729" style="stroke: #000000; stroke-width: 0.5"/>
      </g>
     </g>
     <g id="text_25">
      <text style="font: 10px 'Arial'; text-anchor: end" x="257.701959" y="143.831635" transform="rotate(-0 257.701959 143.831635)">0.0</text>
     </g>
    </g>
    <g id="ytick_8">
     <g id="line2d_20">
      <g>
       <use xlink:href="#m34d725c870" x="267.701959" y="116.36154" style="stroke: #000000; stroke-width: 0.5"/>
      </g>
     </g>
     <g id="text_26">
      <text style="font: 10px 'Arial'; text-anchor: end" x="257.701959" y="119.940447" transform="rotate(-0 257.701959 119.940447)">0.2</text>
     </g>
    </g>
    <g id="ytick_9">
     <g id="line2d_21">
      <g>
       <use xlink:href="#m34d725c870" x="267.701959" y="92.470352" style="stroke: #000000; stroke-width: 0.5"/>
      </g>
     </g>
     <g id="text_27">
      <text style="font: 10px 'Arial'; text-anchor: end" x="257.701959" y="96.049258" transform="rotate(-0 257.701959 96.049258)">0.4</text>
     </g>
    </g>
    <g id="ytick_10">
     <g id="line2d_22">
      <g>
       <use xlink:href="#m34d725c870" x="267.701959" y="68.579164" style="stroke: #000000; stroke-width: 0.5"/>
      </g>
     </g>
     <g id="text_28">
      <text style="font: 10px 'Arial'; text-anchor: end" x="257.701959" y="72.15807" transform="rotate(-0 257.701959 72.15807)">0.6</text>
     </g>
    </g>
    <g id="ytick_11">
     <g id="line2d_23">
      <g>
       <use xlink:href="#m34d725c870" x="267.701959" y="44.687975" style="stroke: #000000; stroke-width: 0.5"/>
      </g>
     </g>
     <g id="text_29">
      <text style="font: 10px 'Arial'; text-anchor: end" x="257.701959" y="48.266882" transform="rotate(-0 257.701959 48.266882)">0.8</text>
     </g>
    </g>
    <g id="ytick_12">
     <g id="line2d_24">
      <g>
       <use xlink:href="#m34d725c870" x="267.701959" y="20.796787" style="stroke: #000000; stroke-width: 0.5"/>
      </g>
     </g>
     <g id="text_30">
      <text style="font: 10px 'Arial'; text-anchor: end" x="257.701959" y="24.375693" transform="rotate(-0 257.701959 24.375693)">1.0</text>
     </g>
    </g>
    <g id="text_31">
     <text style="font: 7px 'Arial'; text-anchor: middle" x="238.410709" y="77.538359" transform="rotate(-90 238.410709 77.538359)">count</text>
    </g>
   </g>
   <g id="line2d_25">
    <path d="M 353.496003 140.252729 
L 353.496003 14.82399 
" clip-path="url(#p19f1a9d4e4)" style="fill: none; stroke-dasharray: 3.7,1.6; stroke-dashoffset: 0; stroke: #0000ff"/>
   </g>
   <g id="line2d_26">
    <path d="M 360.790698 140.252729 
L 360.790698 14.82399 
" clip-path="url(#p19f1a9d4e4)" style="fill: none; stroke-dasharray: 3.7,1.6; stroke-dashoffset: 0; stroke: #808080"/>
   </g>
   <g id="patch_305">
    <path d="M 267.701959 140.252729 
L 267.701959 14.82399 
" style="fill: none; stroke: #000000; stroke-width: 0.5; stroke-linejoin: miter; stroke-linecap: square"/>
   </g>
   <g id="patch_306">
    <path d="M 457.79976 140.252729 
L 457.79976 14.82399 
" style="fill: none; stroke: #000000; stroke-width: 0.5; stroke-linejoin: miter; stroke-linecap: square"/>
   </g>
   <g id="patch_307">
    <path d="M 267.701959 140.252729 
L 457.79976 140.252729 
" style="fill: none; stroke: #000000; stroke-width: 0.5; stroke-linejoin: miter; stroke-linecap: square"/>
   </g>
   <g id="patch_308">
    <path d="M 267.701959 14.82399 
L 457.79976 14.82399 
" style="fill: none; stroke: #000000; stroke-width: 0.5; stroke-linejoin: miter; stroke-linecap: square"/>
   </g>
   <g id="text_32">
    <text style="font: 7px 'Arial'; text-anchor: end" x="448.29487" y="26.191208" transform="rotate(-0 448.29487 26.191208)">0.0% sig</text>
   </g>
   <g id="text_33">
    <text style="font: 8px 'Arial'; text-anchor: middle" x="362.750859" y="8.82399" transform="rotate(-0 362.750859 8.82399)">TC: p=0.500</text>
   </g>
   <g id="legend_2">
    <g id="patch_309">
     <path d="M 273.101959 24.518677 
L 285.101959 24.518677 
L 285.101959 20.318677 
L 273.101959 20.318677 
z
" style="fill: #0000ff; opacity: 0.7"/>
    </g>
    <g id="text_34">
     <text style="font: 6px 'Arial'; text-anchor: start" x="289.901959" y="24.518677" transform="rotate(-0 289.901959 24.518677)">orig non-sig</text>
    </g>
    <g id="patch_310">
     <path d="M 273.101959 33.076177 
L 285.101959 33.076177 
L 285.101959 28.876177 
L 273.101959 28.876177 
z
" style="fill: #ff0000; opacity: 0.7"/>
    </g>
    <g id="text_35">
     <text style="font: 6px 'Arial'; text-anchor: start" x="289.901959" y="33.076177" transform="rotate(-0 289.901959 33.076177)">orig sig</text>
    </g>
    <g id="patch_311">
     <path d="M 273.101959 41.633677 
L 285.101959 41.633677 
L 285.101959 37.433677 
L 273.101959 37.433677 
z
" style="fill: #808080; opacity: 0.7"/>
    </g>
    <g id="text_36">
     <text style="font: 6px 'Arial'; text-anchor: start" x="289.901959" y="41.633677" transform="rotate(-0 289.901959 41.633677)">shuffled mean</text>
    </g>
   </g>
  </g>
 </g>
 <defs>
  <clipPath id="p3de103020b">
   <rect x="37.301959" y="14.82399" width="190.097801" height="125.428739"/>
  </clipPath>
  <clipPath id="p19f1a9d4e4">
   <rect x="267.701959" y="14.82399" width="190.097801" height="125.428739"/>
  </clipPath>
 </defs>
</svg>
