<?xml version="1.0" encoding="utf-8" standalone="no"?>
<!DOCTYPE svg PUBLIC "-//W3C//DTD SVG 1.1//EN"
  "http://www.w3.org/Graphics/SVG/1.1/DTD/svg11.dtd">
<svg xmlns:xlink="http://www.w3.org/1999/xlink" width="460.8pt" height="172.8pt" viewBox="0 0 460.8 172.8" xmlns="http://www.w3.org/2000/svg" version="1.1">
 <metadata>
  <rdf:RDF xmlns:dc="http://purl.org/dc/elements/1.1/" xmlns:cc="http://creativecommons.org/ns#" xmlns:rdf="http://www.w3.org/1999/02/22-rdf-syntax-ns#">
   <cc:Work>
    <dc:type rdf:resource="http://purl.org/dc/dcmitype/StillImage"/>
    <dc:date>2025-07-25T15:42:50.587773</dc:date>
    <dc:format>image/svg+xml</dc:format>
    <dc:creator>
     <cc:Agent>
      <dc:title>Matplotlib v3.9.2, https://matplotlib.org/</dc:title>
     </cc:Agent>
    </dc:creator>
   </cc:Work>
  </rdf:RDF>
 </metadata>
 <defs>
  <style type="text/css">*{stroke-linejoin: round; stroke-linecap: butt}</style>
 </defs>
 <g id="figure_1">
  <g id="patch_1">
   <path d="M 0 172.8 
L 460.8 172.8 
L 460.8 0 
L 0 0 
z
" style="fill: #ffffff"/>
  </g>
  <g id="axes_1">
   <g id="patch_2">
    <path d="M 28.962896 140.252729 
L 222.730307 140.252729 
L 222.730307 14.82399 
L 28.962896 14.82399 
z
" style="fill: #ffffff"/>
   </g>
   <g id="patch_3">
    <path d="M 37.770506 140.252729 
L 41.365449 140.252729 
L 41.365449 140.252729 
L 37.770506 140.252729 
z
" clip-path="url(#pa2c31313ce)" style="fill: #0000ff; opacity: 0.7"/>
   </g>
   <g id="patch_4">
    <path d="M 41.365449 140.252729 
L 44.960391 140.252729 
L 44.960391 140.252729 
L 41.365449 140.252729 
z
" clip-path="url(#pa2c31313ce)" style="fill: #0000ff; opacity: 0.7"/>
   </g>
   <g id="patch_5">
    <path d="M 44.960391 140.252729 
L 48.555334 140.252729 
L 48.555334 120.343405 
L 44.960391 120.343405 
z
" clip-path="url(#pa2c31313ce)" style="fill: #0000ff; opacity: 0.7"/>
   </g>
   <g id="patch_6">
    <path d="M 48.555334 140.252729 
L 52.150277 140.252729 
L 52.150277 120.343405 
L 48.555334 120.343405 
z
" clip-path="url(#pa2c31313ce)" style="fill: #0000ff; opacity: 0.7"/>
   </g>
   <g id="patch_7">
    <path d="M 52.150277 140.252729 
L 55.745219 140.252729 
L 55.745219 80.524758 
L 52.150277 80.524758 
z
" clip-path="url(#pa2c31313ce)" style="fill: #0000ff; opacity: 0.7"/>
   </g>
   <g id="patch_8">
    <path d="M 55.745219 140.252729 
L 59.340162 140.252729 
L 59.340162 140.252729 
L 55.745219 140.252729 
z
" clip-path="url(#pa2c31313ce)" style="fill: #0000ff; opacity: 0.7"/>
   </g>
   <g id="patch_9">
    <path d="M 59.340162 140.252729 
L 62.935105 140.252729 
L 62.935105 120.343405 
L 59.340162 120.343405 
z
" clip-path="url(#pa2c31313ce)" style="fill: #0000ff; opacity: 0.7"/>
   </g>
   <g id="patch_10">
    <path d="M 62.935105 140.252729 
L 66.530047 140.252729 
L 66.530047 140.252729 
L 62.935105 140.252729 
z
" clip-path="url(#pa2c31313ce)" style="fill: #0000ff; opacity: 0.7"/>
   </g>
   <g id="patch_11">
    <path d="M 66.530047 140.252729 
L 70.12499 140.252729 
L 70.12499 140.252729 
L 66.530047 140.252729 
z
" clip-path="url(#pa2c31313ce)" style="fill: #0000ff; opacity: 0.7"/>
   </g>
   <g id="patch_12">
    <path d="M 70.12499 140.252729 
L 73.719933 140.252729 
L 73.719933 140.252729 
L 70.12499 140.252729 
z
" clip-path="url(#pa2c31313ce)" style="fill: #0000ff; opacity: 0.7"/>
   </g>
   <g id="patch_13">
    <path d="M 73.719933 140.252729 
L 77.314875 140.252729 
L 77.314875 120.343405 
L 73.719933 120.343405 
z
" clip-path="url(#pa2c31313ce)" style="fill: #0000ff; opacity: 0.7"/>
   </g>
   <g id="patch_14">
    <path d="M 77.314875 140.252729 
L 80.909818 140.252729 
L 80.909818 100.434082 
L 77.314875 100.434082 
z
" clip-path="url(#pa2c31313ce)" style="fill: #0000ff; opacity: 0.7"/>
   </g>
   <g id="patch_15">
    <path d="M 80.909818 140.252729 
L 84.504761 140.252729 
L 84.504761 120.343405 
L 80.909818 120.343405 
z
" clip-path="url(#pa2c31313ce)" style="fill: #0000ff; opacity: 0.7"/>
   </g>
   <g id="patch_16">
    <path d="M 84.504761 140.252729 
L 88.099703 140.252729 
L 88.099703 120.343405 
L 84.504761 120.343405 
z
" clip-path="url(#pa2c31313ce)" style="fill: #0000ff; opacity: 0.7"/>
   </g>
   <g id="patch_17">
    <path d="M 88.099703 140.252729 
L 91.694646 140.252729 
L 91.694646 140.252729 
L 88.099703 140.252729 
z
" clip-path="url(#pa2c31313ce)" style="fill: #0000ff; opacity: 0.7"/>
   </g>
   <g id="patch_18">
    <path d="M 91.694646 140.252729 
L 95.289589 140.252729 
L 95.289589 140.252729 
L 91.694646 140.252729 
z
" clip-path="url(#pa2c31313ce)" style="fill: #0000ff; opacity: 0.7"/>
   </g>
   <g id="patch_19">
    <path d="M 95.289589 140.252729 
L 98.884531 140.252729 
L 98.884531 120.343405 
L 95.289589 120.343405 
z
" clip-path="url(#pa2c31313ce)" style="fill: #0000ff; opacity: 0.7"/>
   </g>
   <g id="patch_20">
    <path d="M 98.884531 140.252729 
L 102.479474 140.252729 
L 102.479474 120.343405 
L 98.884531 120.343405 
z
" clip-path="url(#pa2c31313ce)" style="fill: #0000ff; opacity: 0.7"/>
   </g>
   <g id="patch_21">
    <path d="M 102.479474 140.252729 
L 106.074417 140.252729 
L 106.074417 140.252729 
L 102.479474 140.252729 
z
" clip-path="url(#pa2c31313ce)" style="fill: #0000ff; opacity: 0.7"/>
   </g>
   <g id="patch_22">
    <path d="M 106.074417 140.252729 
L 109.669359 140.252729 
L 109.669359 120.343405 
L 106.074417 120.343405 
z
" clip-path="url(#pa2c31313ce)" style="fill: #0000ff; opacity: 0.7"/>
   </g>
   <g id="patch_23">
    <path d="M 109.669359 140.252729 
L 113.264302 140.252729 
L 113.264302 120.343405 
L 109.669359 120.343405 
z
" clip-path="url(#pa2c31313ce)" style="fill: #0000ff; opacity: 0.7"/>
   </g>
   <g id="patch_24">
    <path d="M 113.264302 140.252729 
L 116.859245 140.252729 
L 116.859245 140.252729 
L 113.264302 140.252729 
z
" clip-path="url(#pa2c31313ce)" style="fill: #0000ff; opacity: 0.7"/>
   </g>
   <g id="patch_25">
    <path d="M 116.859245 140.252729 
L 120.454188 140.252729 
L 120.454188 120.343405 
L 116.859245 120.343405 
z
" clip-path="url(#pa2c31313ce)" style="fill: #0000ff; opacity: 0.7"/>
   </g>
   <g id="patch_26">
    <path d="M 120.454188 140.252729 
L 124.04913 140.252729 
L 124.04913 100.434082 
L 120.454188 100.434082 
z
" clip-path="url(#pa2c31313ce)" style="fill: #0000ff; opacity: 0.7"/>
   </g>
   <g id="patch_27">
    <path d="M 124.04913 140.252729 
L 127.644073 140.252729 
L 127.644073 140.252729 
L 124.04913 140.252729 
z
" clip-path="url(#pa2c31313ce)" style="fill: #0000ff; opacity: 0.7"/>
   </g>
   <g id="patch_28">
    <path d="M 127.644073 140.252729 
L 131.239016 140.252729 
L 131.239016 120.343405 
L 127.644073 120.343405 
z
" clip-path="url(#pa2c31313ce)" style="fill: #0000ff; opacity: 0.7"/>
   </g>
   <g id="patch_29">
    <path d="M 131.239016 140.252729 
L 134.833958 140.252729 
L 134.833958 120.343405 
L 131.239016 120.343405 
z
" clip-path="url(#pa2c31313ce)" style="fill: #0000ff; opacity: 0.7"/>
   </g>
   <g id="patch_30">
    <path d="M 134.833958 140.252729 
L 138.428901 140.252729 
L 138.428901 120.343405 
L 134.833958 120.343405 
z
" clip-path="url(#pa2c31313ce)" style="fill: #0000ff; opacity: 0.7"/>
   </g>
   <g id="patch_31">
    <path d="M 138.428901 140.252729 
L 142.023844 140.252729 
L 142.023844 140.252729 
L 138.428901 140.252729 
z
" clip-path="url(#pa2c31313ce)" style="fill: #0000ff; opacity: 0.7"/>
   </g>
   <g id="patch_32">
    <path d="M 142.023844 140.252729 
L 145.618786 140.252729 
L 145.618786 100.434082 
L 142.023844 100.434082 
z
" clip-path="url(#pa2c31313ce)" style="fill: #0000ff; opacity: 0.7"/>
   </g>
   <g id="patch_33">
    <path d="M 145.618786 140.252729 
L 149.213729 140.252729 
L 149.213729 120.343405 
L 145.618786 120.343405 
z
" clip-path="url(#pa2c31313ce)" style="fill: #0000ff; opacity: 0.7"/>
   </g>
   <g id="patch_34">
    <path d="M 149.213729 140.252729 
L 152.808672 140.252729 
L 152.808672 140.252729 
L 149.213729 140.252729 
z
" clip-path="url(#pa2c31313ce)" style="fill: #0000ff; opacity: 0.7"/>
   </g>
   <g id="patch_35">
    <path d="M 152.808672 140.252729 
L 156.403614 140.252729 
L 156.403614 140.252729 
L 152.808672 140.252729 
z
" clip-path="url(#pa2c31313ce)" style="fill: #0000ff; opacity: 0.7"/>
   </g>
   <g id="patch_36">
    <path d="M 156.403614 140.252729 
L 159.998557 140.252729 
L 159.998557 140.252729 
L 156.403614 140.252729 
z
" clip-path="url(#pa2c31313ce)" style="fill: #0000ff; opacity: 0.7"/>
   </g>
   <g id="patch_37">
    <path d="M 159.998557 140.252729 
L 163.5935 140.252729 
L 163.5935 100.434082 
L 159.998557 100.434082 
z
" clip-path="url(#pa2c31313ce)" style="fill: #0000ff; opacity: 0.7"/>
   </g>
   <g id="patch_38">
    <path d="M 163.5935 140.252729 
L 167.188442 140.252729 
L 167.188442 120.343405 
L 163.5935 120.343405 
z
" clip-path="url(#pa2c31313ce)" style="fill: #0000ff; opacity: 0.7"/>
   </g>
   <g id="patch_39">
    <path d="M 167.188442 140.252729 
L 170.783385 140.252729 
L 170.783385 120.343405 
L 167.188442 120.343405 
z
" clip-path="url(#pa2c31313ce)" style="fill: #0000ff; opacity: 0.7"/>
   </g>
   <g id="patch_40">
    <path d="M 170.783385 140.252729 
L 174.378328 140.252729 
L 174.378328 140.252729 
L 170.783385 140.252729 
z
" clip-path="url(#pa2c31313ce)" style="fill: #0000ff; opacity: 0.7"/>
   </g>
   <g id="patch_41">
    <path d="M 174.378328 140.252729 
L 177.97327 140.252729 
L 177.97327 120.343405 
L 174.378328 120.343405 
z
" clip-path="url(#pa2c31313ce)" style="fill: #0000ff; opacity: 0.7"/>
   </g>
   <g id="patch_42">
    <path d="M 177.97327 140.252729 
L 181.568213 140.252729 
L 181.568213 100.434082 
L 177.97327 100.434082 
z
" clip-path="url(#pa2c31313ce)" style="fill: #0000ff; opacity: 0.7"/>
   </g>
   <g id="patch_43">
    <path d="M 181.568213 140.252729 
L 185.163156 140.252729 
L 185.163156 140.252729 
L 181.568213 140.252729 
z
" clip-path="url(#pa2c31313ce)" style="fill: #0000ff; opacity: 0.7"/>
   </g>
   <g id="patch_44">
    <path d="M 185.163156 140.252729 
L 188.758099 140.252729 
L 188.758099 80.524758 
L 185.163156 80.524758 
z
" clip-path="url(#pa2c31313ce)" style="fill: #0000ff; opacity: 0.7"/>
   </g>
   <g id="patch_45">
    <path d="M 188.758099 140.252729 
L 192.353041 140.252729 
L 192.353041 140.252729 
L 188.758099 140.252729 
z
" clip-path="url(#pa2c31313ce)" style="fill: #0000ff; opacity: 0.7"/>
   </g>
   <g id="patch_46">
    <path d="M 192.353041 140.252729 
L 195.947984 140.252729 
L 195.947984 140.252729 
L 192.353041 140.252729 
z
" clip-path="url(#pa2c31313ce)" style="fill: #0000ff; opacity: 0.7"/>
   </g>
   <g id="patch_47">
    <path d="M 195.947984 140.252729 
L 199.542927 140.252729 
L 199.542927 140.252729 
L 195.947984 140.252729 
z
" clip-path="url(#pa2c31313ce)" style="fill: #0000ff; opacity: 0.7"/>
   </g>
   <g id="patch_48">
    <path d="M 199.542927 140.252729 
L 203.137869 140.252729 
L 203.137869 140.252729 
L 199.542927 140.252729 
z
" clip-path="url(#pa2c31313ce)" style="fill: #0000ff; opacity: 0.7"/>
   </g>
   <g id="patch_49">
    <path d="M 203.137869 140.252729 
L 206.732812 140.252729 
L 206.732812 140.252729 
L 203.137869 140.252729 
z
" clip-path="url(#pa2c31313ce)" style="fill: #0000ff; opacity: 0.7"/>
   </g>
   <g id="patch_50">
    <path d="M 206.732812 140.252729 
L 210.327755 140.252729 
L 210.327755 140.252729 
L 206.732812 140.252729 
z
" clip-path="url(#pa2c31313ce)" style="fill: #0000ff; opacity: 0.7"/>
   </g>
   <g id="patch_51">
    <path d="M 210.327755 140.252729 
L 213.922697 140.252729 
L 213.922697 140.252729 
L 210.327755 140.252729 
z
" clip-path="url(#pa2c31313ce)" style="fill: #0000ff; opacity: 0.7"/>
   </g>
   <g id="patch_52">
    <path d="M 37.770506 140.252729 
L 41.365449 140.252729 
L 41.365449 140.252729 
L 37.770506 140.252729 
z
" clip-path="url(#pa2c31313ce)" style="fill: #ff0000; opacity: 0.7"/>
   </g>
   <g id="patch_53">
    <path d="M 41.365449 140.252729 
L 44.960391 140.252729 
L 44.960391 140.252729 
L 41.365449 140.252729 
z
" clip-path="url(#pa2c31313ce)" style="fill: #ff0000; opacity: 0.7"/>
   </g>
   <g id="patch_54">
    <path d="M 44.960391 140.252729 
L 48.555334 140.252729 
L 48.555334 140.252729 
L 44.960391 140.252729 
z
" clip-path="url(#pa2c31313ce)" style="fill: #ff0000; opacity: 0.7"/>
   </g>
   <g id="patch_55">
    <path d="M 48.555334 140.252729 
L 52.150277 140.252729 
L 52.150277 140.252729 
L 48.555334 140.252729 
z
" clip-path="url(#pa2c31313ce)" style="fill: #ff0000; opacity: 0.7"/>
   </g>
   <g id="patch_56">
    <path d="M 52.150277 140.252729 
L 55.745219 140.252729 
L 55.745219 140.252729 
L 52.150277 140.252729 
z
" clip-path="url(#pa2c31313ce)" style="fill: #ff0000; opacity: 0.7"/>
   </g>
   <g id="patch_57">
    <path d="M 55.745219 140.252729 
L 59.340162 140.252729 
L 59.340162 140.252729 
L 55.745219 140.252729 
z
" clip-path="url(#pa2c31313ce)" style="fill: #ff0000; opacity: 0.7"/>
   </g>
   <g id="patch_58">
    <path d="M 59.340162 140.252729 
L 62.935105 140.252729 
L 62.935105 140.252729 
L 59.340162 140.252729 
z
" clip-path="url(#pa2c31313ce)" style="fill: #ff0000; opacity: 0.7"/>
   </g>
   <g id="patch_59">
    <path d="M 62.935105 140.252729 
L 66.530047 140.252729 
L 66.530047 140.252729 
L 62.935105 140.252729 
z
" clip-path="url(#pa2c31313ce)" style="fill: #ff0000; opacity: 0.7"/>
   </g>
   <g id="patch_60">
    <path d="M 66.530047 140.252729 
L 70.12499 140.252729 
L 70.12499 140.252729 
L 66.530047 140.252729 
z
" clip-path="url(#pa2c31313ce)" style="fill: #ff0000; opacity: 0.7"/>
   </g>
   <g id="patch_61">
    <path d="M 70.12499 140.252729 
L 73.719933 140.252729 
L 73.719933 140.252729 
L 70.12499 140.252729 
z
" clip-path="url(#pa2c31313ce)" style="fill: #ff0000; opacity: 0.7"/>
   </g>
   <g id="patch_62">
    <path d="M 73.719933 140.252729 
L 77.314875 140.252729 
L 77.314875 140.252729 
L 73.719933 140.252729 
z
" clip-path="url(#pa2c31313ce)" style="fill: #ff0000; opacity: 0.7"/>
   </g>
   <g id="patch_63">
    <path d="M 77.314875 140.252729 
L 80.909818 140.252729 
L 80.909818 140.252729 
L 77.314875 140.252729 
z
" clip-path="url(#pa2c31313ce)" style="fill: #ff0000; opacity: 0.7"/>
   </g>
   <g id="patch_64">
    <path d="M 80.909818 140.252729 
L 84.504761 140.252729 
L 84.504761 140.252729 
L 80.909818 140.252729 
z
" clip-path="url(#pa2c31313ce)" style="fill: #ff0000; opacity: 0.7"/>
   </g>
   <g id="patch_65">
    <path d="M 84.504761 140.252729 
L 88.099703 140.252729 
L 88.099703 140.252729 
L 84.504761 140.252729 
z
" clip-path="url(#pa2c31313ce)" style="fill: #ff0000; opacity: 0.7"/>
   </g>
   <g id="patch_66">
    <path d="M 88.099703 140.252729 
L 91.694646 140.252729 
L 91.694646 140.252729 
L 88.099703 140.252729 
z
" clip-path="url(#pa2c31313ce)" style="fill: #ff0000; opacity: 0.7"/>
   </g>
   <g id="patch_67">
    <path d="M 91.694646 140.252729 
L 95.289589 140.252729 
L 95.289589 140.252729 
L 91.694646 140.252729 
z
" clip-path="url(#pa2c31313ce)" style="fill: #ff0000; opacity: 0.7"/>
   </g>
   <g id="patch_68">
    <path d="M 95.289589 140.252729 
L 98.884531 140.252729 
L 98.884531 140.252729 
L 95.289589 140.252729 
z
" clip-path="url(#pa2c31313ce)" style="fill: #ff0000; opacity: 0.7"/>
   </g>
   <g id="patch_69">
    <path d="M 98.884531 140.252729 
L 102.479474 140.252729 
L 102.479474 140.252729 
L 98.884531 140.252729 
z
" clip-path="url(#pa2c31313ce)" style="fill: #ff0000; opacity: 0.7"/>
   </g>
   <g id="patch_70">
    <path d="M 102.479474 140.252729 
L 106.074417 140.252729 
L 106.074417 140.252729 
L 102.479474 140.252729 
z
" clip-path="url(#pa2c31313ce)" style="fill: #ff0000; opacity: 0.7"/>
   </g>
   <g id="patch_71">
    <path d="M 106.074417 140.252729 
L 109.669359 140.252729 
L 109.669359 140.252729 
L 106.074417 140.252729 
z
" clip-path="url(#pa2c31313ce)" style="fill: #ff0000; opacity: 0.7"/>
   </g>
   <g id="patch_72">
    <path d="M 109.669359 140.252729 
L 113.264302 140.252729 
L 113.264302 140.252729 
L 109.669359 140.252729 
z
" clip-path="url(#pa2c31313ce)" style="fill: #ff0000; opacity: 0.7"/>
   </g>
   <g id="patch_73">
    <path d="M 113.264302 140.252729 
L 116.859245 140.252729 
L 116.859245 140.252729 
L 113.264302 140.252729 
z
" clip-path="url(#pa2c31313ce)" style="fill: #ff0000; opacity: 0.7"/>
   </g>
   <g id="patch_74">
    <path d="M 116.859245 140.252729 
L 120.454188 140.252729 
L 120.454188 140.252729 
L 116.859245 140.252729 
z
" clip-path="url(#pa2c31313ce)" style="fill: #ff0000; opacity: 0.7"/>
   </g>
   <g id="patch_75">
    <path d="M 120.454188 140.252729 
L 124.04913 140.252729 
L 124.04913 140.252729 
L 120.454188 140.252729 
z
" clip-path="url(#pa2c31313ce)" style="fill: #ff0000; opacity: 0.7"/>
   </g>
   <g id="patch_76">
    <path d="M 124.04913 140.252729 
L 127.644073 140.252729 
L 127.644073 140.252729 
L 124.04913 140.252729 
z
" clip-path="url(#pa2c31313ce)" style="fill: #ff0000; opacity: 0.7"/>
   </g>
   <g id="patch_77">
    <path d="M 127.644073 140.252729 
L 131.239016 140.252729 
L 131.239016 140.252729 
L 127.644073 140.252729 
z
" clip-path="url(#pa2c31313ce)" style="fill: #ff0000; opacity: 0.7"/>
   </g>
   <g id="patch_78">
    <path d="M 131.239016 140.252729 
L 134.833958 140.252729 
L 134.833958 140.252729 
L 131.239016 140.252729 
z
" clip-path="url(#pa2c31313ce)" style="fill: #ff0000; opacity: 0.7"/>
   </g>
   <g id="patch_79">
    <path d="M 134.833958 140.252729 
L 138.428901 140.252729 
L 138.428901 140.252729 
L 134.833958 140.252729 
z
" clip-path="url(#pa2c31313ce)" style="fill: #ff0000; opacity: 0.7"/>
   </g>
   <g id="patch_80">
    <path d="M 138.428901 140.252729 
L 142.023844 140.252729 
L 142.023844 140.252729 
L 138.428901 140.252729 
z
" clip-path="url(#pa2c31313ce)" style="fill: #ff0000; opacity: 0.7"/>
   </g>
   <g id="patch_81">
    <path d="M 142.023844 140.252729 
L 145.618786 140.252729 
L 145.618786 140.252729 
L 142.023844 140.252729 
z
" clip-path="url(#pa2c31313ce)" style="fill: #ff0000; opacity: 0.7"/>
   </g>
   <g id="patch_82">
    <path d="M 145.618786 140.252729 
L 149.213729 140.252729 
L 149.213729 140.252729 
L 145.618786 140.252729 
z
" clip-path="url(#pa2c31313ce)" style="fill: #ff0000; opacity: 0.7"/>
   </g>
   <g id="patch_83">
    <path d="M 149.213729 140.252729 
L 152.808672 140.252729 
L 152.808672 140.252729 
L 149.213729 140.252729 
z
" clip-path="url(#pa2c31313ce)" style="fill: #ff0000; opacity: 0.7"/>
   </g>
   <g id="patch_84">
    <path d="M 152.808672 140.252729 
L 156.403614 140.252729 
L 156.403614 140.252729 
L 152.808672 140.252729 
z
" clip-path="url(#pa2c31313ce)" style="fill: #ff0000; opacity: 0.7"/>
   </g>
   <g id="patch_85">
    <path d="M 156.403614 140.252729 
L 159.998557 140.252729 
L 159.998557 140.252729 
L 156.403614 140.252729 
z
" clip-path="url(#pa2c31313ce)" style="fill: #ff0000; opacity: 0.7"/>
   </g>
   <g id="patch_86">
    <path d="M 159.998557 140.252729 
L 163.5935 140.252729 
L 163.5935 140.252729 
L 159.998557 140.252729 
z
" clip-path="url(#pa2c31313ce)" style="fill: #ff0000; opacity: 0.7"/>
   </g>
   <g id="patch_87">
    <path d="M 163.5935 140.252729 
L 167.188442 140.252729 
L 167.188442 140.252729 
L 163.5935 140.252729 
z
" clip-path="url(#pa2c31313ce)" style="fill: #ff0000; opacity: 0.7"/>
   </g>
   <g id="patch_88">
    <path d="M 167.188442 140.252729 
L 170.783385 140.252729 
L 170.783385 140.252729 
L 167.188442 140.252729 
z
" clip-path="url(#pa2c31313ce)" style="fill: #ff0000; opacity: 0.7"/>
   </g>
   <g id="patch_89">
    <path d="M 170.783385 140.252729 
L 174.378328 140.252729 
L 174.378328 120.343405 
L 170.783385 120.343405 
z
" clip-path="url(#pa2c31313ce)" style="fill: #ff0000; opacity: 0.7"/>
   </g>
   <g id="patch_90">
    <path d="M 174.378328 140.252729 
L 177.97327 140.252729 
L 177.97327 140.252729 
L 174.378328 140.252729 
z
" clip-path="url(#pa2c31313ce)" style="fill: #ff0000; opacity: 0.7"/>
   </g>
   <g id="patch_91">
    <path d="M 177.97327 140.252729 
L 181.568213 140.252729 
L 181.568213 120.343405 
L 177.97327 120.343405 
z
" clip-path="url(#pa2c31313ce)" style="fill: #ff0000; opacity: 0.7"/>
   </g>
   <g id="patch_92">
    <path d="M 181.568213 140.252729 
L 185.163156 140.252729 
L 185.163156 120.343405 
L 181.568213 120.343405 
z
" clip-path="url(#pa2c31313ce)" style="fill: #ff0000; opacity: 0.7"/>
   </g>
   <g id="patch_93">
    <path d="M 185.163156 140.252729 
L 188.758099 140.252729 
L 188.758099 140.252729 
L 185.163156 140.252729 
z
" clip-path="url(#pa2c31313ce)" style="fill: #ff0000; opacity: 0.7"/>
   </g>
   <g id="patch_94">
    <path d="M 188.758099 140.252729 
L 192.353041 140.252729 
L 192.353041 140.252729 
L 188.758099 140.252729 
z
" clip-path="url(#pa2c31313ce)" style="fill: #ff0000; opacity: 0.7"/>
   </g>
   <g id="patch_95">
    <path d="M 192.353041 140.252729 
L 195.947984 140.252729 
L 195.947984 120.343405 
L 192.353041 120.343405 
z
" clip-path="url(#pa2c31313ce)" style="fill: #ff0000; opacity: 0.7"/>
   </g>
   <g id="patch_96">
    <path d="M 195.947984 140.252729 
L 199.542927 140.252729 
L 199.542927 120.343405 
L 195.947984 120.343405 
z
" clip-path="url(#pa2c31313ce)" style="fill: #ff0000; opacity: 0.7"/>
   </g>
   <g id="patch_97">
    <path d="M 199.542927 140.252729 
L 203.137869 140.252729 
L 203.137869 120.343405 
L 199.542927 120.343405 
z
" clip-path="url(#pa2c31313ce)" style="fill: #ff0000; opacity: 0.7"/>
   </g>
   <g id="patch_98">
    <path d="M 203.137869 140.252729 
L 206.732812 140.252729 
L 206.732812 140.252729 
L 203.137869 140.252729 
z
" clip-path="url(#pa2c31313ce)" style="fill: #ff0000; opacity: 0.7"/>
   </g>
   <g id="patch_99">
    <path d="M 206.732812 140.252729 
L 210.327755 140.252729 
L 210.327755 120.343405 
L 206.732812 120.343405 
z
" clip-path="url(#pa2c31313ce)" style="fill: #ff0000; opacity: 0.7"/>
   </g>
   <g id="patch_100">
    <path d="M 210.327755 140.252729 
L 213.922697 140.252729 
L 213.922697 120.343405 
L 210.327755 120.343405 
z
" clip-path="url(#pa2c31313ce)" style="fill: #ff0000; opacity: 0.7"/>
   </g>
   <g id="patch_101">
    <path d="M 37.770506 140.252729 
L 41.365449 140.252729 
L 41.365449 140.252729 
L 37.770506 140.252729 
z
" clip-path="url(#pa2c31313ce)" style="fill: #808080; opacity: 0.7"/>
   </g>
   <g id="patch_102">
    <path d="M 41.365449 140.252729 
L 44.960391 140.252729 
L 44.960391 140.252729 
L 41.365449 140.252729 
z
" clip-path="url(#pa2c31313ce)" style="fill: #808080; opacity: 0.7"/>
   </g>
   <g id="patch_103">
    <path d="M 44.960391 140.252729 
L 48.555334 140.252729 
L 48.555334 140.252729 
L 44.960391 140.252729 
z
" clip-path="url(#pa2c31313ce)" style="fill: #808080; opacity: 0.7"/>
   </g>
   <g id="patch_104">
    <path d="M 48.555334 140.252729 
L 52.150277 140.252729 
L 52.150277 140.252729 
L 48.555334 140.252729 
z
" clip-path="url(#pa2c31313ce)" style="fill: #808080; opacity: 0.7"/>
   </g>
   <g id="patch_105">
    <path d="M 52.150277 140.252729 
L 55.745219 140.252729 
L 55.745219 140.252729 
L 52.150277 140.252729 
z
" clip-path="url(#pa2c31313ce)" style="fill: #808080; opacity: 0.7"/>
   </g>
   <g id="patch_106">
    <path d="M 55.745219 140.252729 
L 59.340162 140.252729 
L 59.340162 140.252729 
L 55.745219 140.252729 
z
" clip-path="url(#pa2c31313ce)" style="fill: #808080; opacity: 0.7"/>
   </g>
   <g id="patch_107">
    <path d="M 59.340162 140.252729 
L 62.935105 140.252729 
L 62.935105 140.252729 
L 59.340162 140.252729 
z
" clip-path="url(#pa2c31313ce)" style="fill: #808080; opacity: 0.7"/>
   </g>
   <g id="patch_108">
    <path d="M 62.935105 140.252729 
L 66.530047 140.252729 
L 66.530047 140.252729 
L 62.935105 140.252729 
z
" clip-path="url(#pa2c31313ce)" style="fill: #808080; opacity: 0.7"/>
   </g>
   <g id="patch_109">
    <path d="M 66.530047 140.252729 
L 70.12499 140.252729 
L 70.12499 140.252729 
L 66.530047 140.252729 
z
" clip-path="url(#pa2c31313ce)" style="fill: #808080; opacity: 0.7"/>
   </g>
   <g id="patch_110">
    <path d="M 70.12499 140.252729 
L 73.719933 140.252729 
L 73.719933 140.252729 
L 70.12499 140.252729 
z
" clip-path="url(#pa2c31313ce)" style="fill: #808080; opacity: 0.7"/>
   </g>
   <g id="patch_111">
    <path d="M 73.719933 140.252729 
L 77.314875 140.252729 
L 77.314875 140.252729 
L 73.719933 140.252729 
z
" clip-path="url(#pa2c31313ce)" style="fill: #808080; opacity: 0.7"/>
   </g>
   <g id="patch_112">
    <path d="M 77.314875 140.252729 
L 80.909818 140.252729 
L 80.909818 140.252729 
L 77.314875 140.252729 
z
" clip-path="url(#pa2c31313ce)" style="fill: #808080; opacity: 0.7"/>
   </g>
   <g id="patch_113">
    <path d="M 80.909818 140.252729 
L 84.504761 140.252729 
L 84.504761 140.252729 
L 80.909818 140.252729 
z
" clip-path="url(#pa2c31313ce)" style="fill: #808080; opacity: 0.7"/>
   </g>
   <g id="patch_114">
    <path d="M 84.504761 140.252729 
L 88.099703 140.252729 
L 88.099703 140.252729 
L 84.504761 140.252729 
z
" clip-path="url(#pa2c31313ce)" style="fill: #808080; opacity: 0.7"/>
   </g>
   <g id="patch_115">
    <path d="M 88.099703 140.252729 
L 91.694646 140.252729 
L 91.694646 140.252729 
L 88.099703 140.252729 
z
" clip-path="url(#pa2c31313ce)" style="fill: #808080; opacity: 0.7"/>
   </g>
   <g id="patch_116">
    <path d="M 91.694646 140.252729 
L 95.289589 140.252729 
L 95.289589 140.252729 
L 91.694646 140.252729 
z
" clip-path="url(#pa2c31313ce)" style="fill: #808080; opacity: 0.7"/>
   </g>
   <g id="patch_117">
    <path d="M 95.289589 140.252729 
L 98.884531 140.252729 
L 98.884531 140.252729 
L 95.289589 140.252729 
z
" clip-path="url(#pa2c31313ce)" style="fill: #808080; opacity: 0.7"/>
   </g>
   <g id="patch_118">
    <path d="M 98.884531 140.252729 
L 102.479474 140.252729 
L 102.479474 120.343405 
L 98.884531 120.343405 
z
" clip-path="url(#pa2c31313ce)" style="fill: #808080; opacity: 0.7"/>
   </g>
   <g id="patch_119">
    <path d="M 102.479474 140.252729 
L 106.074417 140.252729 
L 106.074417 100.434082 
L 102.479474 100.434082 
z
" clip-path="url(#pa2c31313ce)" style="fill: #808080; opacity: 0.7"/>
   </g>
   <g id="patch_120">
    <path d="M 106.074417 140.252729 
L 109.669359 140.252729 
L 109.669359 120.343405 
L 106.074417 120.343405 
z
" clip-path="url(#pa2c31313ce)" style="fill: #808080; opacity: 0.7"/>
   </g>
   <g id="patch_121">
    <path d="M 109.669359 140.252729 
L 113.264302 140.252729 
L 113.264302 40.706111 
L 109.669359 40.706111 
z
" clip-path="url(#pa2c31313ce)" style="fill: #808080; opacity: 0.7"/>
   </g>
   <g id="patch_122">
    <path d="M 113.264302 140.252729 
L 116.859245 140.252729 
L 116.859245 100.434082 
L 113.264302 100.434082 
z
" clip-path="url(#pa2c31313ce)" style="fill: #808080; opacity: 0.7"/>
   </g>
   <g id="patch_123">
    <path d="M 116.859245 140.252729 
L 120.454188 140.252729 
L 120.454188 80.524758 
L 116.859245 80.524758 
z
" clip-path="url(#pa2c31313ce)" style="fill: #808080; opacity: 0.7"/>
   </g>
   <g id="patch_124">
    <path d="M 120.454188 140.252729 
L 124.04913 140.252729 
L 124.04913 80.524758 
L 120.454188 80.524758 
z
" clip-path="url(#pa2c31313ce)" style="fill: #808080; opacity: 0.7"/>
   </g>
   <g id="patch_125">
    <path d="M 124.04913 140.252729 
L 127.644073 140.252729 
L 127.644073 100.434082 
L 124.04913 100.434082 
z
" clip-path="url(#pa2c31313ce)" style="fill: #808080; opacity: 0.7"/>
   </g>
   <g id="patch_126">
    <path d="M 127.644073 140.252729 
L 131.239016 140.252729 
L 131.239016 120.343405 
L 127.644073 120.343405 
z
" clip-path="url(#pa2c31313ce)" style="fill: #808080; opacity: 0.7"/>
   </g>
   <g id="patch_127">
    <path d="M 131.239016 140.252729 
L 134.833958 140.252729 
L 134.833958 80.524758 
L 131.239016 80.524758 
z
" clip-path="url(#pa2c31313ce)" style="fill: #808080; opacity: 0.7"/>
   </g>
   <g id="patch_128">
    <path d="M 134.833958 140.252729 
L 138.428901 140.252729 
L 138.428901 20.796787 
L 134.833958 20.796787 
z
" clip-path="url(#pa2c31313ce)" style="fill: #808080; opacity: 0.7"/>
   </g>
   <g id="patch_129">
    <path d="M 138.428901 140.252729 
L 142.023844 140.252729 
L 142.023844 60.615434 
L 138.428901 60.615434 
z
" clip-path="url(#pa2c31313ce)" style="fill: #808080; opacity: 0.7"/>
   </g>
   <g id="patch_130">
    <path d="M 142.023844 140.252729 
L 145.618786 140.252729 
L 145.618786 100.434082 
L 142.023844 100.434082 
z
" clip-path="url(#pa2c31313ce)" style="fill: #808080; opacity: 0.7"/>
   </g>
   <g id="patch_131">
    <path d="M 145.618786 140.252729 
L 149.213729 140.252729 
L 149.213729 120.343405 
L 145.618786 120.343405 
z
" clip-path="url(#pa2c31313ce)" style="fill: #808080; opacity: 0.7"/>
   </g>
   <g id="patch_132">
    <path d="M 149.213729 140.252729 
L 152.808672 140.252729 
L 152.808672 100.434082 
L 149.213729 100.434082 
z
" clip-path="url(#pa2c31313ce)" style="fill: #808080; opacity: 0.7"/>
   </g>
   <g id="patch_133">
    <path d="M 152.808672 140.252729 
L 156.403614 140.252729 
L 156.403614 100.434082 
L 152.808672 100.434082 
z
" clip-path="url(#pa2c31313ce)" style="fill: #808080; opacity: 0.7"/>
   </g>
   <g id="patch_134">
    <path d="M 156.403614 140.252729 
L 159.998557 140.252729 
L 159.998557 120.343405 
L 156.403614 120.343405 
z
" clip-path="url(#pa2c31313ce)" style="fill: #808080; opacity: 0.7"/>
   </g>
   <g id="patch_135">
    <path d="M 159.998557 140.252729 
L 163.5935 140.252729 
L 163.5935 140.252729 
L 159.998557 140.252729 
z
" clip-path="url(#pa2c31313ce)" style="fill: #808080; opacity: 0.7"/>
   </g>
   <g id="patch_136">
    <path d="M 163.5935 140.252729 
L 167.188442 140.252729 
L 167.188442 140.252729 
L 163.5935 140.252729 
z
" clip-path="url(#pa2c31313ce)" style="fill: #808080; opacity: 0.7"/>
   </g>
   <g id="patch_137">
    <path d="M 167.188442 140.252729 
L 170.783385 140.252729 
L 170.783385 140.252729 
L 167.188442 140.252729 
z
" clip-path="url(#pa2c31313ce)" style="fill: #808080; opacity: 0.7"/>
   </g>
   <g id="patch_138">
    <path d="M 170.783385 140.252729 
L 174.378328 140.252729 
L 174.378328 140.252729 
L 170.783385 140.252729 
z
" clip-path="url(#pa2c31313ce)" style="fill: #808080; opacity: 0.7"/>
   </g>
   <g id="patch_139">
    <path d="M 174.378328 140.252729 
L 177.97327 140.252729 
L 177.97327 120.343405 
L 174.378328 120.343405 
z
" clip-path="url(#pa2c31313ce)" style="fill: #808080; opacity: 0.7"/>
   </g>
   <g id="patch_140">
    <path d="M 177.97327 140.252729 
L 181.568213 140.252729 
L 181.568213 140.252729 
L 177.97327 140.252729 
z
" clip-path="url(#pa2c31313ce)" style="fill: #808080; opacity: 0.7"/>
   </g>
   <g id="patch_141">
    <path d="M 181.568213 140.252729 
L 185.163156 140.252729 
L 185.163156 140.252729 
L 181.568213 140.252729 
z
" clip-path="url(#pa2c31313ce)" style="fill: #808080; opacity: 0.7"/>
   </g>
   <g id="patch_142">
    <path d="M 185.163156 140.252729 
L 188.758099 140.252729 
L 188.758099 140.252729 
L 185.163156 140.252729 
z
" clip-path="url(#pa2c31313ce)" style="fill: #808080; opacity: 0.7"/>
   </g>
   <g id="patch_143">
    <path d="M 188.758099 140.252729 
L 192.353041 140.252729 
L 192.353041 140.252729 
L 188.758099 140.252729 
z
" clip-path="url(#pa2c31313ce)" style="fill: #808080; opacity: 0.7"/>
   </g>
   <g id="patch_144">
    <path d="M 192.353041 140.252729 
L 195.947984 140.252729 
L 195.947984 140.252729 
L 192.353041 140.252729 
z
" clip-path="url(#pa2c31313ce)" style="fill: #808080; opacity: 0.7"/>
   </g>
   <g id="patch_145">
    <path d="M 195.947984 140.252729 
L 199.542927 140.252729 
L 199.542927 140.252729 
L 195.947984 140.252729 
z
" clip-path="url(#pa2c31313ce)" style="fill: #808080; opacity: 0.7"/>
   </g>
   <g id="patch_146">
    <path d="M 199.542927 140.252729 
L 203.137869 140.252729 
L 203.137869 140.252729 
L 199.542927 140.252729 
z
" clip-path="url(#pa2c31313ce)" style="fill: #808080; opacity: 0.7"/>
   </g>
   <g id="patch_147">
    <path d="M 203.137869 140.252729 
L 206.732812 140.252729 
L 206.732812 140.252729 
L 203.137869 140.252729 
z
" clip-path="url(#pa2c31313ce)" style="fill: #808080; opacity: 0.7"/>
   </g>
   <g id="patch_148">
    <path d="M 206.732812 140.252729 
L 210.327755 140.252729 
L 210.327755 140.252729 
L 206.732812 140.252729 
z
" clip-path="url(#pa2c31313ce)" style="fill: #808080; opacity: 0.7"/>
   </g>
   <g id="patch_149">
    <path d="M 210.327755 140.252729 
L 213.922697 140.252729 
L 213.922697 140.252729 
L 210.327755 140.252729 
z
" clip-path="url(#pa2c31313ce)" style="fill: #808080; opacity: 0.7"/>
   </g>
   <g id="matplotlib.axis_1">
    <g id="xtick_1">
     <g id="line2d_1">
      <defs>
       <path id="me8d05e9b30" d="M 0 0 
L 0 -3 
" style="stroke: #000000; stroke-width: 0.5"/>
      </defs>
      <g>
       <use xlink:href="#me8d05e9b30" x="37.770506" y="140.252729" style="stroke: #000000; stroke-width: 0.5"/>
      </g>
     </g>
     <g id="text_1">
      <text style="font: 10px 'Arial'; text-anchor: middle" x="37.770506" y="157.410541" transform="rotate(-0 37.770506 157.410541)">−1.0</text>
     </g>
    </g>
    <g id="xtick_2">
     <g id="line2d_2">
      <g>
       <use xlink:href="#me8d05e9b30" x="81.808554" y="140.252729" style="stroke: #000000; stroke-width: 0.5"/>
      </g>
     </g>
     <g id="text_2">
      <text style="font: 10px 'Arial'; text-anchor: middle" x="81.808554" y="157.410541" transform="rotate(-0 81.808554 157.410541)">−0.5</text>
     </g>
    </g>
    <g id="xtick_3">
     <g id="line2d_3">
      <g>
       <use xlink:href="#me8d05e9b30" x="125.846602" y="140.252729" style="stroke: #000000; stroke-width: 0.5"/>
      </g>
     </g>
     <g id="text_3">
      <text style="font: 10px 'Arial'; text-anchor: middle" x="125.846602" y="157.410541" transform="rotate(-0 125.846602 157.410541)">0.0</text>
     </g>
    </g>
    <g id="xtick_4">
     <g id="line2d_4">
      <g>
       <use xlink:href="#me8d05e9b30" x="169.884649" y="140.252729" style="stroke: #000000; stroke-width: 0.5"/>
      </g>
     </g>
     <g id="text_4">
      <text style="font: 10px 'Arial'; text-anchor: middle" x="169.884649" y="157.410541" transform="rotate(-0 169.884649 157.410541)">0.5</text>
     </g>
    </g>
    <g id="xtick_5">
     <g id="line2d_5">
      <g>
       <use xlink:href="#me8d05e9b30" x="213.922697" y="140.252729" style="stroke: #000000; stroke-width: 0.5"/>
      </g>
     </g>
     <g id="text_5">
      <text style="font: 10px 'Arial'; text-anchor: middle" x="213.922697" y="157.410541" transform="rotate(-0 213.922697 157.410541)">1.0</text>
     </g>
    </g>
    <g id="text_6">
     <text style="font: 7px 'Arial'; text-anchor: middle" x="125.846602" y="168.40851" transform="rotate(-0 125.846602 168.40851)">r</text>
    </g>
   </g>
   <g id="matplotlib.axis_2">
    <g id="ytick_1">
     <g id="line2d_6">
      <defs>
       <path id="m59792b7ad7" d="M 0 0 
L 3 0 
" style="stroke: #000000; stroke-width: 0.5"/>
      </defs>
      <g>
       <use xlink:href="#m59792b7ad7" x="28.962896" y="140.252729" style="stroke: #000000; stroke-width: 0.5"/>
      </g>
     </g>
     <g id="text_7">
      <text style="font: 10px 'Arial'; text-anchor: end" x="18.962896" y="143.831635" transform="rotate(-0 18.962896 143.831635)">0</text>
     </g>
    </g>
    <g id="ytick_2">
     <g id="line2d_7">
      <g>
       <use xlink:href="#m59792b7ad7" x="28.962896" y="100.434082" style="stroke: #000000; stroke-width: 0.5"/>
      </g>
     </g>
     <g id="text_8">
      <text style="font: 10px 'Arial'; text-anchor: end" x="18.962896" y="104.012988" transform="rotate(-0 18.962896 104.012988)">2</text>
     </g>
    </g>
    <g id="ytick_3">
     <g id="line2d_8">
      <g>
       <use xlink:href="#m59792b7ad7" x="28.962896" y="60.615434" style="stroke: #000000; stroke-width: 0.5"/>
      </g>
     </g>
     <g id="text_9">
      <text style="font: 10px 'Arial'; text-anchor: end" x="18.962896" y="64.194341" transform="rotate(-0 18.962896 64.194341)">4</text>
     </g>
    </g>
    <g id="ytick_4">
     <g id="line2d_9">
      <g>
       <use xlink:href="#m59792b7ad7" x="28.962896" y="20.796787" style="stroke: #000000; stroke-width: 0.5"/>
      </g>
     </g>
     <g id="text_10">
      <text style="font: 10px 'Arial'; text-anchor: end" x="18.962896" y="24.375693" transform="rotate(-0 18.962896 24.375693)">6</text>
     </g>
    </g>
    <g id="text_11">
     <text style="font: 7px 'Arial'; text-anchor: middle" x="8.010709" y="77.538359" transform="rotate(-90 8.010709 77.538359)">count</text>
    </g>
   </g>
   <g id="line2d_10">
    <path d="M 140.143842 140.252729 
L 140.143842 14.82399 
" clip-path="url(#pa2c31313ce)" style="fill: none; stroke-dasharray: 3.7,1.6; stroke-dashoffset: 0; stroke: #0000ff"/>
   </g>
   <g id="line2d_11">
    <path d="M 132.122425 140.252729 
L 132.122425 14.82399 
" clip-path="url(#pa2c31313ce)" style="fill: none; stroke-dasharray: 3.7,1.6; stroke-dashoffset: 0; stroke: #808080"/>
   </g>
   <g id="patch_150">
    <path d="M 28.962896 140.252729 
L 28.962896 14.82399 
" style="fill: none; stroke: #000000; stroke-width: 0.5; stroke-linejoin: miter; stroke-linecap: square"/>
   </g>
   <g id="patch_151">
    <path d="M 222.730307 140.252729 
L 222.730307 14.82399 
" style="fill: none; stroke: #000000; stroke-width: 0.5; stroke-linejoin: miter; stroke-linecap: square"/>
   </g>
   <g id="patch_152">
    <path d="M 28.962896 140.252729 
L 222.730307 140.252729 
" style="fill: none; stroke: #000000; stroke-width: 0.5; stroke-linejoin: miter; stroke-linecap: square"/>
   </g>
   <g id="patch_153">
    <path d="M 28.962896 14.82399 
L 222.730307 14.82399 
" style="fill: none; stroke: #000000; stroke-width: 0.5; stroke-linejoin: miter; stroke-linecap: square"/>
   </g>
   <g id="text_12">
    <text style="font: 7px 'Arial'; text-anchor: end" x="213.041936" y="26.191208" transform="rotate(-0 213.041936 26.191208)">19.0% sig</text>
   </g>
   <g id="text_13">
    <text style="font: 8px 'Arial'; text-anchor: middle" x="125.846602" y="8.82399" transform="rotate(-0 125.846602 8.82399)">PC: p=0.452</text>
   </g>
   <g id="legend_1">
    <g id="patch_154">
     <path d="M 34.362896 24.518677 
L 46.362896 24.518677 
L 46.362896 20.318677 
L 34.362896 20.318677 
z
" style="fill: #0000ff; opacity: 0.7"/>
    </g>
    <g id="text_14">
     <text style="font: 6px 'Arial'; text-anchor: start" x="51.162896" y="24.518677" transform="rotate(-0 51.162896 24.518677)">orig non-sig</text>
    </g>
    <g id="patch_155">
     <path d="M 34.362896 33.076177 
L 46.362896 33.076177 
L 46.362896 28.876177 
L 34.362896 28.876177 
z
" style="fill: #ff0000; opacity: 0.7"/>
    </g>
    <g id="text_15">
     <text style="font: 6px 'Arial'; text-anchor: start" x="51.162896" y="33.076177" transform="rotate(-0 51.162896 33.076177)">orig sig</text>
    </g>
    <g id="patch_156">
     <path d="M 34.362896 41.633677 
L 46.362896 41.633677 
L 46.362896 37.433677 
L 34.362896 37.433677 
z
" style="fill: #808080; opacity: 0.7"/>
    </g>
    <g id="text_16">
     <text style="font: 6px 'Arial'; text-anchor: start" x="51.162896" y="41.633677" transform="rotate(-0 51.162896 41.633677)">shuffled mean</text>
    </g>
   </g>
  </g>
  <g id="axes_2">
   <g id="patch_157">
    <path d="M 264.032349 140.252729 
L 457.79976 140.252729 
L 457.79976 14.82399 
L 264.032349 14.82399 
z
" style="fill: #ffffff"/>
   </g>
   <g id="patch_158">
    <path d="M 272.839959 77.538359 
L 276.434902 77.538359 
L 276.434902 77.538359 
L 272.839959 77.538359 
z
" clip-path="url(#paefc984b14)" style="fill: #0000ff; opacity: 0.7"/>
   </g>
   <g id="patch_159">
    <path d="M 276.434902 77.538359 
L 280.029844 77.538359 
L 280.029844 77.538359 
L 276.434902 77.538359 
z
" clip-path="url(#paefc984b14)" style="fill: #0000ff; opacity: 0.7"/>
   </g>
   <g id="patch_160">
    <path d="M 280.029844 77.538359 
L 283.624787 77.538359 
L 283.624787 77.538359 
L 280.029844 77.538359 
z
" clip-path="url(#paefc984b14)" style="fill: #0000ff; opacity: 0.7"/>
   </g>
   <g id="patch_161">
    <path d="M 283.624787 77.538359 
L 287.21973 77.538359 
L 287.21973 77.538359 
L 283.624787 77.538359 
z
" clip-path="url(#paefc984b14)" style="fill: #0000ff; opacity: 0.7"/>
   </g>
   <g id="patch_162">
    <path d="M 287.21973 77.538359 
L 290.814672 77.538359 
L 290.814672 77.538359 
L 287.21973 77.538359 
z
" clip-path="url(#paefc984b14)" style="fill: #0000ff; opacity: 0.7"/>
   </g>
   <g id="patch_163">
    <path d="M 290.814672 77.538359 
L 294.409615 77.538359 
L 294.409615 77.538359 
L 290.814672 77.538359 
z
" clip-path="url(#paefc984b14)" style="fill: #0000ff; opacity: 0.7"/>
   </g>
   <g id="patch_164">
    <path d="M 294.409615 77.538359 
L 298.004558 77.538359 
L 298.004558 77.538359 
L 294.409615 77.538359 
z
" clip-path="url(#paefc984b14)" style="fill: #0000ff; opacity: 0.7"/>
   </g>
   <g id="patch_165">
    <path d="M 298.004558 77.538359 
L 301.5995 77.538359 
L 301.5995 77.538359 
L 298.004558 77.538359 
z
" clip-path="url(#paefc984b14)" style="fill: #0000ff; opacity: 0.7"/>
   </g>
   <g id="patch_166">
    <path d="M 301.5995 77.538359 
L 305.194443 77.538359 
L 305.194443 77.538359 
L 301.5995 77.538359 
z
" clip-path="url(#paefc984b14)" style="fill: #0000ff; opacity: 0.7"/>
   </g>
   <g id="patch_167">
    <path d="M 305.194443 77.538359 
L 308.789386 77.538359 
L 308.789386 77.538359 
L 305.194443 77.538359 
z
" clip-path="url(#paefc984b14)" style="fill: #0000ff; opacity: 0.7"/>
   </g>
   <g id="patch_168">
    <path d="M 308.789386 77.538359 
L 312.384328 77.538359 
L 312.384328 77.538359 
L 308.789386 77.538359 
z
" clip-path="url(#paefc984b14)" style="fill: #0000ff; opacity: 0.7"/>
   </g>
   <g id="patch_169">
    <path d="M 312.384328 77.538359 
L 315.979271 77.538359 
L 315.979271 77.538359 
L 312.384328 77.538359 
z
" clip-path="url(#paefc984b14)" style="fill: #0000ff; opacity: 0.7"/>
   </g>
   <g id="patch_170">
    <path d="M 315.979271 77.538359 
L 319.574214 77.538359 
L 319.574214 77.538359 
L 315.979271 77.538359 
z
" clip-path="url(#paefc984b14)" style="fill: #0000ff; opacity: 0.7"/>
   </g>
   <g id="patch_171">
    <path d="M 319.574214 77.538359 
L 323.169157 77.538359 
L 323.169157 77.538359 
L 319.574214 77.538359 
z
" clip-path="url(#paefc984b14)" style="fill: #0000ff; opacity: 0.7"/>
   </g>
   <g id="patch_172">
    <path d="M 323.169157 77.538359 
L 326.764099 77.538359 
L 326.764099 77.538359 
L 323.169157 77.538359 
z
" clip-path="url(#paefc984b14)" style="fill: #0000ff; opacity: 0.7"/>
   </g>
   <g id="patch_173">
    <path d="M 326.764099 77.538359 
L 330.359042 77.538359 
L 330.359042 77.538359 
L 326.764099 77.538359 
z
" clip-path="url(#paefc984b14)" style="fill: #0000ff; opacity: 0.7"/>
   </g>
   <g id="patch_174">
    <path d="M 330.359042 77.538359 
L 333.953985 77.538359 
L 333.953985 77.538359 
L 330.359042 77.538359 
z
" clip-path="url(#paefc984b14)" style="fill: #0000ff; opacity: 0.7"/>
   </g>
   <g id="patch_175">
    <path d="M 333.953985 77.538359 
L 337.548927 77.538359 
L 337.548927 77.538359 
L 333.953985 77.538359 
z
" clip-path="url(#paefc984b14)" style="fill: #0000ff; opacity: 0.7"/>
   </g>
   <g id="patch_176">
    <path d="M 337.548927 77.538359 
L 341.14387 77.538359 
L 341.14387 77.538359 
L 337.548927 77.538359 
z
" clip-path="url(#paefc984b14)" style="fill: #0000ff; opacity: 0.7"/>
   </g>
   <g id="patch_177">
    <path d="M 341.14387 77.538359 
L 344.738813 77.538359 
L 344.738813 77.538359 
L 341.14387 77.538359 
z
" clip-path="url(#paefc984b14)" style="fill: #0000ff; opacity: 0.7"/>
   </g>
   <g id="patch_178">
    <path d="M 344.738813 77.538359 
L 348.333755 77.538359 
L 348.333755 77.538359 
L 344.738813 77.538359 
z
" clip-path="url(#paefc984b14)" style="fill: #0000ff; opacity: 0.7"/>
   </g>
   <g id="patch_179">
    <path d="M 348.333755 77.538359 
L 351.928698 77.538359 
L 351.928698 77.538359 
L 348.333755 77.538359 
z
" clip-path="url(#paefc984b14)" style="fill: #0000ff; opacity: 0.7"/>
   </g>
   <g id="patch_180">
    <path d="M 351.928698 77.538359 
L 355.523641 77.538359 
L 355.523641 77.538359 
L 351.928698 77.538359 
z
" clip-path="url(#paefc984b14)" style="fill: #0000ff; opacity: 0.7"/>
   </g>
   <g id="patch_181">
    <path d="M 355.523641 77.538359 
L 359.118583 77.538359 
L 359.118583 77.538359 
L 355.523641 77.538359 
z
" clip-path="url(#paefc984b14)" style="fill: #0000ff; opacity: 0.7"/>
   </g>
   <g id="patch_182">
    <path d="M 359.118583 77.538359 
L 362.713526 77.538359 
L 362.713526 77.538359 
L 359.118583 77.538359 
z
" clip-path="url(#paefc984b14)" style="fill: #0000ff; opacity: 0.7"/>
   </g>
   <g id="patch_183">
    <path d="M 362.713526 77.538359 
L 366.308469 77.538359 
L 366.308469 77.538359 
L 362.713526 77.538359 
z
" clip-path="url(#paefc984b14)" style="fill: #0000ff; opacity: 0.7"/>
   </g>
   <g id="patch_184">
    <path d="M 366.308469 77.538359 
L 369.903411 77.538359 
L 369.903411 77.538359 
L 366.308469 77.538359 
z
" clip-path="url(#paefc984b14)" style="fill: #0000ff; opacity: 0.7"/>
   </g>
   <g id="patch_185">
    <path d="M 369.903411 77.538359 
L 373.498354 77.538359 
L 373.498354 77.538359 
L 369.903411 77.538359 
z
" clip-path="url(#paefc984b14)" style="fill: #0000ff; opacity: 0.7"/>
   </g>
   <g id="patch_186">
    <path d="M 373.498354 77.538359 
L 377.093297 77.538359 
L 377.093297 77.538359 
L 373.498354 77.538359 
z
" clip-path="url(#paefc984b14)" style="fill: #0000ff; opacity: 0.7"/>
   </g>
   <g id="patch_187">
    <path d="M 377.093297 77.538359 
L 380.688239 77.538359 
L 380.688239 77.538359 
L 377.093297 77.538359 
z
" clip-path="url(#paefc984b14)" style="fill: #0000ff; opacity: 0.7"/>
   </g>
   <g id="patch_188">
    <path d="M 380.688239 77.538359 
L 384.283182 77.538359 
L 384.283182 77.538359 
L 380.688239 77.538359 
z
" clip-path="url(#paefc984b14)" style="fill: #0000ff; opacity: 0.7"/>
   </g>
   <g id="patch_189">
    <path d="M 384.283182 77.538359 
L 387.878125 77.538359 
L 387.878125 77.538359 
L 384.283182 77.538359 
z
" clip-path="url(#paefc984b14)" style="fill: #0000ff; opacity: 0.7"/>
   </g>
   <g id="patch_190">
    <path d="M 387.878125 77.538359 
L 391.473067 77.538359 
L 391.473067 77.538359 
L 387.878125 77.538359 
z
" clip-path="url(#paefc984b14)" style="fill: #0000ff; opacity: 0.7"/>
   </g>
   <g id="patch_191">
    <path d="M 391.473067 77.538359 
L 395.06801 77.538359 
L 395.06801 77.538359 
L 391.473067 77.538359 
z
" clip-path="url(#paefc984b14)" style="fill: #0000ff; opacity: 0.7"/>
   </g>
   <g id="patch_192">
    <path d="M 395.06801 77.538359 
L 398.662953 77.538359 
L 398.662953 77.538359 
L 395.06801 77.538359 
z
" clip-path="url(#paefc984b14)" style="fill: #0000ff; opacity: 0.7"/>
   </g>
   <g id="patch_193">
    <path d="M 398.662953 77.538359 
L 402.257896 77.538359 
L 402.257896 77.538359 
L 398.662953 77.538359 
z
" clip-path="url(#paefc984b14)" style="fill: #0000ff; opacity: 0.7"/>
   </g>
   <g id="patch_194">
    <path d="M 402.257896 77.538359 
L 405.852838 77.538359 
L 405.852838 77.538359 
L 402.257896 77.538359 
z
" clip-path="url(#paefc984b14)" style="fill: #0000ff; opacity: 0.7"/>
   </g>
   <g id="patch_195">
    <path d="M 405.852838 77.538359 
L 409.447781 77.538359 
L 409.447781 77.538359 
L 405.852838 77.538359 
z
" clip-path="url(#paefc984b14)" style="fill: #0000ff; opacity: 0.7"/>
   </g>
   <g id="patch_196">
    <path d="M 409.447781 77.538359 
L 413.042724 77.538359 
L 413.042724 77.538359 
L 409.447781 77.538359 
z
" clip-path="url(#paefc984b14)" style="fill: #0000ff; opacity: 0.7"/>
   </g>
   <g id="patch_197">
    <path d="M 413.042724 77.538359 
L 416.637666 77.538359 
L 416.637666 77.538359 
L 413.042724 77.538359 
z
" clip-path="url(#paefc984b14)" style="fill: #0000ff; opacity: 0.7"/>
   </g>
   <g id="patch_198">
    <path d="M 416.637666 77.538359 
L 420.232609 77.538359 
L 420.232609 77.538359 
L 416.637666 77.538359 
z
" clip-path="url(#paefc984b14)" style="fill: #0000ff; opacity: 0.7"/>
   </g>
   <g id="patch_199">
    <path d="M 420.232609 77.538359 
L 423.827552 77.538359 
L 423.827552 77.538359 
L 420.232609 77.538359 
z
" clip-path="url(#paefc984b14)" style="fill: #0000ff; opacity: 0.7"/>
   </g>
   <g id="patch_200">
    <path d="M 423.827552 77.538359 
L 427.422494 77.538359 
L 427.422494 77.538359 
L 423.827552 77.538359 
z
" clip-path="url(#paefc984b14)" style="fill: #0000ff; opacity: 0.7"/>
   </g>
   <g id="patch_201">
    <path d="M 427.422494 77.538359 
L 431.017437 77.538359 
L 431.017437 77.538359 
L 427.422494 77.538359 
z
" clip-path="url(#paefc984b14)" style="fill: #0000ff; opacity: 0.7"/>
   </g>
   <g id="patch_202">
    <path d="M 431.017437 77.538359 
L 434.61238 77.538359 
L 434.61238 77.538359 
L 431.017437 77.538359 
z
" clip-path="url(#paefc984b14)" style="fill: #0000ff; opacity: 0.7"/>
   </g>
   <g id="patch_203">
    <path d="M 434.61238 77.538359 
L 438.207322 77.538359 
L 438.207322 77.538359 
L 434.61238 77.538359 
z
" clip-path="url(#paefc984b14)" style="fill: #0000ff; opacity: 0.7"/>
   </g>
   <g id="patch_204">
    <path d="M 438.207322 77.538359 
L 441.802265 77.538359 
L 441.802265 77.538359 
L 438.207322 77.538359 
z
" clip-path="url(#paefc984b14)" style="fill: #0000ff; opacity: 0.7"/>
   </g>
   <g id="patch_205">
    <path d="M 441.802265 77.538359 
L 445.397208 77.538359 
L 445.397208 77.538359 
L 441.802265 77.538359 
z
" clip-path="url(#paefc984b14)" style="fill: #0000ff; opacity: 0.7"/>
   </g>
   <g id="patch_206">
    <path d="M 445.397208 77.538359 
L 448.99215 77.538359 
L 448.99215 77.538359 
L 445.397208 77.538359 
z
" clip-path="url(#paefc984b14)" style="fill: #0000ff; opacity: 0.7"/>
   </g>
   <g id="patch_207">
    <path d="M 272.839959 77.538359 
L 276.434902 77.538359 
L 276.434902 77.538359 
L 272.839959 77.538359 
z
" clip-path="url(#paefc984b14)" style="fill: #ff0000; opacity: 0.7"/>
   </g>
   <g id="patch_208">
    <path d="M 276.434902 77.538359 
L 280.029844 77.538359 
L 280.029844 77.538359 
L 276.434902 77.538359 
z
" clip-path="url(#paefc984b14)" style="fill: #ff0000; opacity: 0.7"/>
   </g>
   <g id="patch_209">
    <path d="M 280.029844 77.538359 
L 283.624787 77.538359 
L 283.624787 77.538359 
L 280.029844 77.538359 
z
" clip-path="url(#paefc984b14)" style="fill: #ff0000; opacity: 0.7"/>
   </g>
   <g id="patch_210">
    <path d="M 283.624787 77.538359 
L 287.21973 77.538359 
L 287.21973 77.538359 
L 283.624787 77.538359 
z
" clip-path="url(#paefc984b14)" style="fill: #ff0000; opacity: 0.7"/>
   </g>
   <g id="patch_211">
    <path d="M 287.21973 77.538359 
L 290.814672 77.538359 
L 290.814672 77.538359 
L 287.21973 77.538359 
z
" clip-path="url(#paefc984b14)" style="fill: #ff0000; opacity: 0.7"/>
   </g>
   <g id="patch_212">
    <path d="M 290.814672 77.538359 
L 294.409615 77.538359 
L 294.409615 77.538359 
L 290.814672 77.538359 
z
" clip-path="url(#paefc984b14)" style="fill: #ff0000; opacity: 0.7"/>
   </g>
   <g id="patch_213">
    <path d="M 294.409615 77.538359 
L 298.004558 77.538359 
L 298.004558 77.538359 
L 294.409615 77.538359 
z
" clip-path="url(#paefc984b14)" style="fill: #ff0000; opacity: 0.7"/>
   </g>
   <g id="patch_214">
    <path d="M 298.004558 77.538359 
L 301.5995 77.538359 
L 301.5995 77.538359 
L 298.004558 77.538359 
z
" clip-path="url(#paefc984b14)" style="fill: #ff0000; opacity: 0.7"/>
   </g>
   <g id="patch_215">
    <path d="M 301.5995 77.538359 
L 305.194443 77.538359 
L 305.194443 77.538359 
L 301.5995 77.538359 
z
" clip-path="url(#paefc984b14)" style="fill: #ff0000; opacity: 0.7"/>
   </g>
   <g id="patch_216">
    <path d="M 305.194443 77.538359 
L 308.789386 77.538359 
L 308.789386 77.538359 
L 305.194443 77.538359 
z
" clip-path="url(#paefc984b14)" style="fill: #ff0000; opacity: 0.7"/>
   </g>
   <g id="patch_217">
    <path d="M 308.789386 77.538359 
L 312.384328 77.538359 
L 312.384328 77.538359 
L 308.789386 77.538359 
z
" clip-path="url(#paefc984b14)" style="fill: #ff0000; opacity: 0.7"/>
   </g>
   <g id="patch_218">
    <path d="M 312.384328 77.538359 
L 315.979271 77.538359 
L 315.979271 77.538359 
L 312.384328 77.538359 
z
" clip-path="url(#paefc984b14)" style="fill: #ff0000; opacity: 0.7"/>
   </g>
   <g id="patch_219">
    <path d="M 315.979271 77.538359 
L 319.574214 77.538359 
L 319.574214 77.538359 
L 315.979271 77.538359 
z
" clip-path="url(#paefc984b14)" style="fill: #ff0000; opacity: 0.7"/>
   </g>
   <g id="patch_220">
    <path d="M 319.574214 77.538359 
L 323.169157 77.538359 
L 323.169157 77.538359 
L 319.574214 77.538359 
z
" clip-path="url(#paefc984b14)" style="fill: #ff0000; opacity: 0.7"/>
   </g>
   <g id="patch_221">
    <path d="M 323.169157 77.538359 
L 326.764099 77.538359 
L 326.764099 77.538359 
L 323.169157 77.538359 
z
" clip-path="url(#paefc984b14)" style="fill: #ff0000; opacity: 0.7"/>
   </g>
   <g id="patch_222">
    <path d="M 326.764099 77.538359 
L 330.359042 77.538359 
L 330.359042 77.538359 
L 326.764099 77.538359 
z
" clip-path="url(#paefc984b14)" style="fill: #ff0000; opacity: 0.7"/>
   </g>
   <g id="patch_223">
    <path d="M 330.359042 77.538359 
L 333.953985 77.538359 
L 333.953985 77.538359 
L 330.359042 77.538359 
z
" clip-path="url(#paefc984b14)" style="fill: #ff0000; opacity: 0.7"/>
   </g>
   <g id="patch_224">
    <path d="M 333.953985 77.538359 
L 337.548927 77.538359 
L 337.548927 77.538359 
L 333.953985 77.538359 
z
" clip-path="url(#paefc984b14)" style="fill: #ff0000; opacity: 0.7"/>
   </g>
   <g id="patch_225">
    <path d="M 337.548927 77.538359 
L 341.14387 77.538359 
L 341.14387 77.538359 
L 337.548927 77.538359 
z
" clip-path="url(#paefc984b14)" style="fill: #ff0000; opacity: 0.7"/>
   </g>
   <g id="patch_226">
    <path d="M 341.14387 77.538359 
L 344.738813 77.538359 
L 344.738813 77.538359 
L 341.14387 77.538359 
z
" clip-path="url(#paefc984b14)" style="fill: #ff0000; opacity: 0.7"/>
   </g>
   <g id="patch_227">
    <path d="M 344.738813 77.538359 
L 348.333755 77.538359 
L 348.333755 77.538359 
L 344.738813 77.538359 
z
" clip-path="url(#paefc984b14)" style="fill: #ff0000; opacity: 0.7"/>
   </g>
   <g id="patch_228">
    <path d="M 348.333755 77.538359 
L 351.928698 77.538359 
L 351.928698 77.538359 
L 348.333755 77.538359 
z
" clip-path="url(#paefc984b14)" style="fill: #ff0000; opacity: 0.7"/>
   </g>
   <g id="patch_229">
    <path d="M 351.928698 77.538359 
L 355.523641 77.538359 
L 355.523641 77.538359 
L 351.928698 77.538359 
z
" clip-path="url(#paefc984b14)" style="fill: #ff0000; opacity: 0.7"/>
   </g>
   <g id="patch_230">
    <path d="M 355.523641 77.538359 
L 359.118583 77.538359 
L 359.118583 77.538359 
L 355.523641 77.538359 
z
" clip-path="url(#paefc984b14)" style="fill: #ff0000; opacity: 0.7"/>
   </g>
   <g id="patch_231">
    <path d="M 359.118583 77.538359 
L 362.713526 77.538359 
L 362.713526 77.538359 
L 359.118583 77.538359 
z
" clip-path="url(#paefc984b14)" style="fill: #ff0000; opacity: 0.7"/>
   </g>
   <g id="patch_232">
    <path d="M 362.713526 77.538359 
L 366.308469 77.538359 
L 366.308469 77.538359 
L 362.713526 77.538359 
z
" clip-path="url(#paefc984b14)" style="fill: #ff0000; opacity: 0.7"/>
   </g>
   <g id="patch_233">
    <path d="M 366.308469 77.538359 
L 369.903411 77.538359 
L 369.903411 77.538359 
L 366.308469 77.538359 
z
" clip-path="url(#paefc984b14)" style="fill: #ff0000; opacity: 0.7"/>
   </g>
   <g id="patch_234">
    <path d="M 369.903411 77.538359 
L 373.498354 77.538359 
L 373.498354 77.538359 
L 369.903411 77.538359 
z
" clip-path="url(#paefc984b14)" style="fill: #ff0000; opacity: 0.7"/>
   </g>
   <g id="patch_235">
    <path d="M 373.498354 77.538359 
L 377.093297 77.538359 
L 377.093297 77.538359 
L 373.498354 77.538359 
z
" clip-path="url(#paefc984b14)" style="fill: #ff0000; opacity: 0.7"/>
   </g>
   <g id="patch_236">
    <path d="M 377.093297 77.538359 
L 380.688239 77.538359 
L 380.688239 77.538359 
L 377.093297 77.538359 
z
" clip-path="url(#paefc984b14)" style="fill: #ff0000; opacity: 0.7"/>
   </g>
   <g id="patch_237">
    <path d="M 380.688239 77.538359 
L 384.283182 77.538359 
L 384.283182 77.538359 
L 380.688239 77.538359 
z
" clip-path="url(#paefc984b14)" style="fill: #ff0000; opacity: 0.7"/>
   </g>
   <g id="patch_238">
    <path d="M 384.283182 77.538359 
L 387.878125 77.538359 
L 387.878125 77.538359 
L 384.283182 77.538359 
z
" clip-path="url(#paefc984b14)" style="fill: #ff0000; opacity: 0.7"/>
   </g>
   <g id="patch_239">
    <path d="M 387.878125 77.538359 
L 391.473067 77.538359 
L 391.473067 77.538359 
L 387.878125 77.538359 
z
" clip-path="url(#paefc984b14)" style="fill: #ff0000; opacity: 0.7"/>
   </g>
   <g id="patch_240">
    <path d="M 391.473067 77.538359 
L 395.06801 77.538359 
L 395.06801 77.538359 
L 391.473067 77.538359 
z
" clip-path="url(#paefc984b14)" style="fill: #ff0000; opacity: 0.7"/>
   </g>
   <g id="patch_241">
    <path d="M 395.06801 77.538359 
L 398.662953 77.538359 
L 398.662953 77.538359 
L 395.06801 77.538359 
z
" clip-path="url(#paefc984b14)" style="fill: #ff0000; opacity: 0.7"/>
   </g>
   <g id="patch_242">
    <path d="M 398.662953 77.538359 
L 402.257896 77.538359 
L 402.257896 77.538359 
L 398.662953 77.538359 
z
" clip-path="url(#paefc984b14)" style="fill: #ff0000; opacity: 0.7"/>
   </g>
   <g id="patch_243">
    <path d="M 402.257896 77.538359 
L 405.852838 77.538359 
L 405.852838 77.538359 
L 402.257896 77.538359 
z
" clip-path="url(#paefc984b14)" style="fill: #ff0000; opacity: 0.7"/>
   </g>
   <g id="patch_244">
    <path d="M 405.852838 77.538359 
L 409.447781 77.538359 
L 409.447781 77.538359 
L 405.852838 77.538359 
z
" clip-path="url(#paefc984b14)" style="fill: #ff0000; opacity: 0.7"/>
   </g>
   <g id="patch_245">
    <path d="M 409.447781 77.538359 
L 413.042724 77.538359 
L 413.042724 77.538359 
L 409.447781 77.538359 
z
" clip-path="url(#paefc984b14)" style="fill: #ff0000; opacity: 0.7"/>
   </g>
   <g id="patch_246">
    <path d="M 413.042724 77.538359 
L 416.637666 77.538359 
L 416.637666 77.538359 
L 413.042724 77.538359 
z
" clip-path="url(#paefc984b14)" style="fill: #ff0000; opacity: 0.7"/>
   </g>
   <g id="patch_247">
    <path d="M 416.637666 77.538359 
L 420.232609 77.538359 
L 420.232609 77.538359 
L 416.637666 77.538359 
z
" clip-path="url(#paefc984b14)" style="fill: #ff0000; opacity: 0.7"/>
   </g>
   <g id="patch_248">
    <path d="M 420.232609 77.538359 
L 423.827552 77.538359 
L 423.827552 77.538359 
L 420.232609 77.538359 
z
" clip-path="url(#paefc984b14)" style="fill: #ff0000; opacity: 0.7"/>
   </g>
   <g id="patch_249">
    <path d="M 423.827552 77.538359 
L 427.422494 77.538359 
L 427.422494 77.538359 
L 423.827552 77.538359 
z
" clip-path="url(#paefc984b14)" style="fill: #ff0000; opacity: 0.7"/>
   </g>
   <g id="patch_250">
    <path d="M 427.422494 77.538359 
L 431.017437 77.538359 
L 431.017437 77.538359 
L 427.422494 77.538359 
z
" clip-path="url(#paefc984b14)" style="fill: #ff0000; opacity: 0.7"/>
   </g>
   <g id="patch_251">
    <path d="M 431.017437 77.538359 
L 434.61238 77.538359 
L 434.61238 77.538359 
L 431.017437 77.538359 
z
" clip-path="url(#paefc984b14)" style="fill: #ff0000; opacity: 0.7"/>
   </g>
   <g id="patch_252">
    <path d="M 434.61238 77.538359 
L 438.207322 77.538359 
L 438.207322 77.538359 
L 434.61238 77.538359 
z
" clip-path="url(#paefc984b14)" style="fill: #ff0000; opacity: 0.7"/>
   </g>
   <g id="patch_253">
    <path d="M 438.207322 77.538359 
L 441.802265 77.538359 
L 441.802265 77.538359 
L 438.207322 77.538359 
z
" clip-path="url(#paefc984b14)" style="fill: #ff0000; opacity: 0.7"/>
   </g>
   <g id="patch_254">
    <path d="M 441.802265 77.538359 
L 445.397208 77.538359 
L 445.397208 77.538359 
L 441.802265 77.538359 
z
" clip-path="url(#paefc984b14)" style="fill: #ff0000; opacity: 0.7"/>
   </g>
   <g id="patch_255">
    <path d="M 445.397208 77.538359 
L 448.99215 77.538359 
L 448.99215 77.538359 
L 445.397208 77.538359 
z
" clip-path="url(#paefc984b14)" style="fill: #ff0000; opacity: 0.7"/>
   </g>
   <g id="matplotlib.axis_3">
    <g id="xtick_6">
     <g id="line2d_12">
      <g>
       <use xlink:href="#me8d05e9b30" x="272.839959" y="140.252729" style="stroke: #000000; stroke-width: 0.5"/>
      </g>
     </g>
     <g id="text_17">
      <text style="font: 10px 'Arial'; text-anchor: middle" x="272.839959" y="157.410541" transform="rotate(-0 272.839959 157.410541)">−1.0</text>
     </g>
    </g>
    <g id="xtick_7">
     <g id="line2d_13">
      <g>
       <use xlink:href="#me8d05e9b30" x="316.878007" y="140.252729" style="stroke: #000000; stroke-width: 0.5"/>
      </g>
     </g>
     <g id="text_18">
      <text style="font: 10px 'Arial'; text-anchor: middle" x="316.878007" y="157.410541" transform="rotate(-0 316.878007 157.410541)">−0.5</text>
     </g>
    </g>
    <g id="xtick_8">
     <g id="line2d_14">
      <g>
       <use xlink:href="#me8d05e9b30" x="360.916055" y="140.252729" style="stroke: #000000; stroke-width: 0.5"/>
      </g>
     </g>
     <g id="text_19">
      <text style="font: 10px 'Arial'; text-anchor: middle" x="360.916055" y="157.410541" transform="rotate(-0 360.916055 157.410541)">0.0</text>
     </g>
    </g>
    <g id="xtick_9">
     <g id="line2d_15">
      <g>
       <use xlink:href="#me8d05e9b30" x="404.954103" y="140.252729" style="stroke: #000000; stroke-width: 0.5"/>
      </g>
     </g>
     <g id="text_20">
      <text style="font: 10px 'Arial'; text-anchor: middle" x="404.954103" y="157.410541" transform="rotate(-0 404.954103 157.410541)">0.5</text>
     </g>
    </g>
    <g id="xtick_10">
     <g id="line2d_16">
      <g>
       <use xlink:href="#me8d05e9b30" x="448.99215" y="140.252729" style="stroke: #000000; stroke-width: 0.5"/>
      </g>
     </g>
     <g id="text_21">
      <text style="font: 10px 'Arial'; text-anchor: middle" x="448.99215" y="157.410541" transform="rotate(-0 448.99215 157.410541)">1.0</text>
     </g>
    </g>
   </g>
   <g id="matplotlib.axis_4">
    <g id="ytick_5">
     <g id="line2d_17">
      <g>
       <use xlink:href="#m59792b7ad7" x="264.032349" y="123.14881" style="stroke: #000000; stroke-width: 0.5"/>
      </g>
     </g>
     <g id="text_22">
      <text style="font: 10px 'Arial'; text-anchor: end" x="254.032349" y="126.727716" transform="rotate(-0 254.032349 126.727716)">−0.04</text>
     </g>
    </g>
    <g id="ytick_6">
     <g id="line2d_18">
      <g>
       <use xlink:href="#m59792b7ad7" x="264.032349" y="100.343585" style="stroke: #000000; stroke-width: 0.5"/>
      </g>
     </g>
     <g id="text_23">
      <text style="font: 10px 'Arial'; text-anchor: end" x="254.032349" y="103.922491" transform="rotate(-0 254.032349 103.922491)">−0.02</text>
     </g>
    </g>
    <g id="ytick_7">
     <g id="line2d_19">
      <g>
       <use xlink:href="#m59792b7ad7" x="264.032349" y="77.538359" style="stroke: #000000; stroke-width: 0.5"/>
      </g>
     </g>
     <g id="text_24">
      <text style="font: 10px 'Arial'; text-anchor: end" x="254.032349" y="81.117266" transform="rotate(-0 254.032349 81.117266)">0.00</text>
     </g>
    </g>
    <g id="ytick_8">
     <g id="line2d_20">
      <g>
       <use xlink:href="#m59792b7ad7" x="264.032349" y="54.733134" style="stroke: #000000; stroke-width: 0.5"/>
      </g>
     </g>
     <g id="text_25">
      <text style="font: 10px 'Arial'; text-anchor: end" x="254.032349" y="58.31204" transform="rotate(-0 254.032349 58.31204)">0.02</text>
     </g>
    </g>
    <g id="ytick_9">
     <g id="line2d_21">
      <g>
       <use xlink:href="#m59792b7ad7" x="264.032349" y="31.927909" style="stroke: #000000; stroke-width: 0.5"/>
      </g>
     </g>
     <g id="text_26">
      <text style="font: 10px 'Arial'; text-anchor: end" x="254.032349" y="35.506815" transform="rotate(-0 254.032349 35.506815)">0.04</text>
     </g>
    </g>
   </g>
   <g id="patch_256">
    <path d="M 264.032349 140.252729 
L 264.032349 14.82399 
" style="fill: none; stroke: #000000; stroke-width: 0.5; stroke-linejoin: miter; stroke-linecap: square"/>
   </g>
   <g id="patch_257">
    <path d="M 457.79976 140.252729 
L 457.79976 14.82399 
" style="fill: none; stroke: #000000; stroke-width: 0.5; stroke-linejoin: miter; stroke-linecap: square"/>
   </g>
   <g id="patch_258">
    <path d="M 264.032349 140.252729 
L 457.79976 140.252729 
" style="fill: none; stroke: #000000; stroke-width: 0.5; stroke-linejoin: miter; stroke-linecap: square"/>
   </g>
   <g id="patch_259">
    <path d="M 264.032349 14.82399 
L 457.79976 14.82399 
" style="fill: none; stroke: #000000; stroke-width: 0.5; stroke-linejoin: miter; stroke-linecap: square"/>
   </g>
  </g>
 </g>
 <defs>
  <clipPath id="pa2c31313ce">
   <rect x="28.962896" y="14.82399" width="193.767411" height="125.428739"/>
  </clipPath>
  <clipPath id="paefc984b14">
   <rect x="264.032349" y="14.82399" width="193.767411" height="125.428739"/>
  </clipPath>
 </defs>
</svg>
