<?xml version="1.0" encoding="utf-8" standalone="no"?>
<!DOCTYPE svg PUBLIC "-//W3C//DTD SVG 1.1//EN"
  "http://www.w3.org/Graphics/SVG/1.1/DTD/svg11.dtd">
<svg xmlns:xlink="http://www.w3.org/1999/xlink" width="460.8pt" height="172.8pt" viewBox="0 0 460.8 172.8" xmlns="http://www.w3.org/2000/svg" version="1.1">
 <metadata>
  <rdf:RDF xmlns:dc="http://purl.org/dc/elements/1.1/" xmlns:cc="http://creativecommons.org/ns#" xmlns:rdf="http://www.w3.org/1999/02/22-rdf-syntax-ns#">
   <cc:Work>
    <dc:type rdf:resource="http://purl.org/dc/dcmitype/StillImage"/>
    <dc:date>2025-07-25T15:42:50.978190</dc:date>
    <dc:format>image/svg+xml</dc:format>
    <dc:creator>
     <cc:Agent>
      <dc:title>Matplotlib v3.9.2, https://matplotlib.org/</dc:title>
     </cc:Agent>
    </dc:creator>
   </cc:Work>
  </rdf:RDF>
 </metadata>
 <defs>
  <style type="text/css">*{stroke-linejoin: round; stroke-linecap: butt}</style>
 </defs>
 <g id="figure_1">
  <g id="patch_1">
   <path d="M 0 172.8 
L 460.8 172.8 
L 460.8 0 
L 0 0 
z
" style="fill: #ffffff"/>
  </g>
  <g id="axes_1">
   <g id="patch_2">
    <path d="M 28.962896 140.252729 
L 227.39976 140.252729 
L 227.39976 14.82399 
L 28.962896 14.82399 
z
" style="fill: #ffffff"/>
   </g>
   <g id="patch_3">
    <path d="M 37.982754 140.252729 
L 41.664328 140.252729 
L 41.664328 140.252729 
L 37.982754 140.252729 
z
" clip-path="url(#p7d8419bcea)" style="fill: #0000ff; opacity: 0.7"/>
   </g>
   <g id="patch_4">
    <path d="M 41.664328 140.252729 
L 45.345903 140.252729 
L 45.345903 140.252729 
L 41.664328 140.252729 
z
" clip-path="url(#p7d8419bcea)" style="fill: #0000ff; opacity: 0.7"/>
   </g>
   <g id="patch_5">
    <path d="M 45.345903 140.252729 
L 49.027477 140.252729 
L 49.027477 140.252729 
L 45.345903 140.252729 
z
" clip-path="url(#p7d8419bcea)" style="fill: #0000ff; opacity: 0.7"/>
   </g>
   <g id="patch_6">
    <path d="M 49.027477 140.252729 
L 52.709052 140.252729 
L 52.709052 140.252729 
L 49.027477 140.252729 
z
" clip-path="url(#p7d8419bcea)" style="fill: #0000ff; opacity: 0.7"/>
   </g>
   <g id="patch_7">
    <path d="M 52.709052 140.252729 
L 56.390626 140.252729 
L 56.390626 140.252729 
L 52.709052 140.252729 
z
" clip-path="url(#p7d8419bcea)" style="fill: #0000ff; opacity: 0.7"/>
   </g>
   <g id="patch_8">
    <path d="M 56.390626 140.252729 
L 60.0722 140.252729 
L 60.0722 140.252729 
L 56.390626 140.252729 
z
" clip-path="url(#p7d8419bcea)" style="fill: #0000ff; opacity: 0.7"/>
   </g>
   <g id="patch_9">
    <path d="M 60.0722 140.252729 
L 63.753775 140.252729 
L 63.753775 140.252729 
L 60.0722 140.252729 
z
" clip-path="url(#p7d8419bcea)" style="fill: #0000ff; opacity: 0.7"/>
   </g>
   <g id="patch_10">
    <path d="M 63.753775 140.252729 
L 67.435349 140.252729 
L 67.435349 110.388743 
L 63.753775 110.388743 
z
" clip-path="url(#p7d8419bcea)" style="fill: #0000ff; opacity: 0.7"/>
   </g>
   <g id="patch_11">
    <path d="M 67.435349 140.252729 
L 71.116924 140.252729 
L 71.116924 110.388743 
L 67.435349 110.388743 
z
" clip-path="url(#p7d8419bcea)" style="fill: #0000ff; opacity: 0.7"/>
   </g>
   <g id="patch_12">
    <path d="M 71.116924 140.252729 
L 74.798498 140.252729 
L 74.798498 140.252729 
L 71.116924 140.252729 
z
" clip-path="url(#p7d8419bcea)" style="fill: #0000ff; opacity: 0.7"/>
   </g>
   <g id="patch_13">
    <path d="M 74.798498 140.252729 
L 78.480073 140.252729 
L 78.480073 140.252729 
L 74.798498 140.252729 
z
" clip-path="url(#p7d8419bcea)" style="fill: #0000ff; opacity: 0.7"/>
   </g>
   <g id="patch_14">
    <path d="M 78.480073 140.252729 
L 82.161647 140.252729 
L 82.161647 140.252729 
L 78.480073 140.252729 
z
" clip-path="url(#p7d8419bcea)" style="fill: #0000ff; opacity: 0.7"/>
   </g>
   <g id="patch_15">
    <path d="M 82.161647 140.252729 
L 85.843222 140.252729 
L 85.843222 110.388743 
L 82.161647 110.388743 
z
" clip-path="url(#p7d8419bcea)" style="fill: #0000ff; opacity: 0.7"/>
   </g>
   <g id="patch_16">
    <path d="M 85.843222 140.252729 
L 89.524796 140.252729 
L 89.524796 110.388743 
L 85.843222 110.388743 
z
" clip-path="url(#p7d8419bcea)" style="fill: #0000ff; opacity: 0.7"/>
   </g>
   <g id="patch_17">
    <path d="M 89.524796 140.252729 
L 93.206371 140.252729 
L 93.206371 110.388743 
L 89.524796 110.388743 
z
" clip-path="url(#p7d8419bcea)" style="fill: #0000ff; opacity: 0.7"/>
   </g>
   <g id="patch_18">
    <path d="M 93.206371 140.252729 
L 96.887945 140.252729 
L 96.887945 140.252729 
L 93.206371 140.252729 
z
" clip-path="url(#p7d8419bcea)" style="fill: #0000ff; opacity: 0.7"/>
   </g>
   <g id="patch_19">
    <path d="M 96.887945 140.252729 
L 100.56952 140.252729 
L 100.56952 80.524758 
L 96.887945 80.524758 
z
" clip-path="url(#p7d8419bcea)" style="fill: #0000ff; opacity: 0.7"/>
   </g>
   <g id="patch_20">
    <path d="M 100.56952 140.252729 
L 104.251094 140.252729 
L 104.251094 140.252729 
L 100.56952 140.252729 
z
" clip-path="url(#p7d8419bcea)" style="fill: #0000ff; opacity: 0.7"/>
   </g>
   <g id="patch_21">
    <path d="M 104.251094 140.252729 
L 107.932669 140.252729 
L 107.932669 110.388743 
L 104.251094 110.388743 
z
" clip-path="url(#p7d8419bcea)" style="fill: #0000ff; opacity: 0.7"/>
   </g>
   <g id="patch_22">
    <path d="M 107.932669 140.252729 
L 111.614243 140.252729 
L 111.614243 140.252729 
L 107.932669 140.252729 
z
" clip-path="url(#p7d8419bcea)" style="fill: #0000ff; opacity: 0.7"/>
   </g>
   <g id="patch_23">
    <path d="M 111.614243 140.252729 
L 115.295817 140.252729 
L 115.295817 140.252729 
L 111.614243 140.252729 
z
" clip-path="url(#p7d8419bcea)" style="fill: #0000ff; opacity: 0.7"/>
   </g>
   <g id="patch_24">
    <path d="M 115.295817 140.252729 
L 118.977392 140.252729 
L 118.977392 140.252729 
L 115.295817 140.252729 
z
" clip-path="url(#p7d8419bcea)" style="fill: #0000ff; opacity: 0.7"/>
   </g>
   <g id="patch_25">
    <path d="M 118.977392 140.252729 
L 122.658966 140.252729 
L 122.658966 140.252729 
L 118.977392 140.252729 
z
" clip-path="url(#p7d8419bcea)" style="fill: #0000ff; opacity: 0.7"/>
   </g>
   <g id="patch_26">
    <path d="M 122.658966 140.252729 
L 126.340541 140.252729 
L 126.340541 140.252729 
L 122.658966 140.252729 
z
" clip-path="url(#p7d8419bcea)" style="fill: #0000ff; opacity: 0.7"/>
   </g>
   <g id="patch_27">
    <path d="M 126.340541 140.252729 
L 130.022115 140.252729 
L 130.022115 140.252729 
L 126.340541 140.252729 
z
" clip-path="url(#p7d8419bcea)" style="fill: #0000ff; opacity: 0.7"/>
   </g>
   <g id="patch_28">
    <path d="M 130.022115 140.252729 
L 133.70369 140.252729 
L 133.70369 140.252729 
L 130.022115 140.252729 
z
" clip-path="url(#p7d8419bcea)" style="fill: #0000ff; opacity: 0.7"/>
   </g>
   <g id="patch_29">
    <path d="M 133.70369 140.252729 
L 137.385264 140.252729 
L 137.385264 140.252729 
L 133.70369 140.252729 
z
" clip-path="url(#p7d8419bcea)" style="fill: #0000ff; opacity: 0.7"/>
   </g>
   <g id="patch_30">
    <path d="M 137.385264 140.252729 
L 141.066839 140.252729 
L 141.066839 140.252729 
L 137.385264 140.252729 
z
" clip-path="url(#p7d8419bcea)" style="fill: #0000ff; opacity: 0.7"/>
   </g>
   <g id="patch_31">
    <path d="M 141.066839 140.252729 
L 144.748413 140.252729 
L 144.748413 140.252729 
L 141.066839 140.252729 
z
" clip-path="url(#p7d8419bcea)" style="fill: #0000ff; opacity: 0.7"/>
   </g>
   <g id="patch_32">
    <path d="M 144.748413 140.252729 
L 148.429988 140.252729 
L 148.429988 140.252729 
L 144.748413 140.252729 
z
" clip-path="url(#p7d8419bcea)" style="fill: #0000ff; opacity: 0.7"/>
   </g>
   <g id="patch_33">
    <path d="M 148.429988 140.252729 
L 152.111562 140.252729 
L 152.111562 140.252729 
L 148.429988 140.252729 
z
" clip-path="url(#p7d8419bcea)" style="fill: #0000ff; opacity: 0.7"/>
   </g>
   <g id="patch_34">
    <path d="M 152.111562 140.252729 
L 155.793137 140.252729 
L 155.793137 110.388743 
L 152.111562 110.388743 
z
" clip-path="url(#p7d8419bcea)" style="fill: #0000ff; opacity: 0.7"/>
   </g>
   <g id="patch_35">
    <path d="M 155.793137 140.252729 
L 159.474711 140.252729 
L 159.474711 140.252729 
L 155.793137 140.252729 
z
" clip-path="url(#p7d8419bcea)" style="fill: #0000ff; opacity: 0.7"/>
   </g>
   <g id="patch_36">
    <path d="M 159.474711 140.252729 
L 163.156286 140.252729 
L 163.156286 140.252729 
L 159.474711 140.252729 
z
" clip-path="url(#p7d8419bcea)" style="fill: #0000ff; opacity: 0.7"/>
   </g>
   <g id="patch_37">
    <path d="M 163.156286 140.252729 
L 166.83786 140.252729 
L 166.83786 140.252729 
L 163.156286 140.252729 
z
" clip-path="url(#p7d8419bcea)" style="fill: #0000ff; opacity: 0.7"/>
   </g>
   <g id="patch_38">
    <path d="M 166.83786 140.252729 
L 170.519434 140.252729 
L 170.519434 140.252729 
L 166.83786 140.252729 
z
" clip-path="url(#p7d8419bcea)" style="fill: #0000ff; opacity: 0.7"/>
   </g>
   <g id="patch_39">
    <path d="M 170.519434 140.252729 
L 174.201009 140.252729 
L 174.201009 80.524758 
L 170.519434 80.524758 
z
" clip-path="url(#p7d8419bcea)" style="fill: #0000ff; opacity: 0.7"/>
   </g>
   <g id="patch_40">
    <path d="M 174.201009 140.252729 
L 177.882583 140.252729 
L 177.882583 110.388743 
L 174.201009 110.388743 
z
" clip-path="url(#p7d8419bcea)" style="fill: #0000ff; opacity: 0.7"/>
   </g>
   <g id="patch_41">
    <path d="M 177.882583 140.252729 
L 181.564158 140.252729 
L 181.564158 140.252729 
L 177.882583 140.252729 
z
" clip-path="url(#p7d8419bcea)" style="fill: #0000ff; opacity: 0.7"/>
   </g>
   <g id="patch_42">
    <path d="M 181.564158 140.252729 
L 185.245732 140.252729 
L 185.245732 140.252729 
L 181.564158 140.252729 
z
" clip-path="url(#p7d8419bcea)" style="fill: #0000ff; opacity: 0.7"/>
   </g>
   <g id="patch_43">
    <path d="M 185.245732 140.252729 
L 188.927307 140.252729 
L 188.927307 80.524758 
L 185.245732 80.524758 
z
" clip-path="url(#p7d8419bcea)" style="fill: #0000ff; opacity: 0.7"/>
   </g>
   <g id="patch_44">
    <path d="M 188.927307 140.252729 
L 192.608881 140.252729 
L 192.608881 140.252729 
L 188.927307 140.252729 
z
" clip-path="url(#p7d8419bcea)" style="fill: #0000ff; opacity: 0.7"/>
   </g>
   <g id="patch_45">
    <path d="M 192.608881 140.252729 
L 196.290456 140.252729 
L 196.290456 140.252729 
L 192.608881 140.252729 
z
" clip-path="url(#p7d8419bcea)" style="fill: #0000ff; opacity: 0.7"/>
   </g>
   <g id="patch_46">
    <path d="M 196.290456 140.252729 
L 199.97203 140.252729 
L 199.97203 110.388743 
L 196.290456 110.388743 
z
" clip-path="url(#p7d8419bcea)" style="fill: #0000ff; opacity: 0.7"/>
   </g>
   <g id="patch_47">
    <path d="M 199.97203 140.252729 
L 203.653605 140.252729 
L 203.653605 140.252729 
L 199.97203 140.252729 
z
" clip-path="url(#p7d8419bcea)" style="fill: #0000ff; opacity: 0.7"/>
   </g>
   <g id="patch_48">
    <path d="M 203.653605 140.252729 
L 207.335179 140.252729 
L 207.335179 140.252729 
L 203.653605 140.252729 
z
" clip-path="url(#p7d8419bcea)" style="fill: #0000ff; opacity: 0.7"/>
   </g>
   <g id="patch_49">
    <path d="M 207.335179 140.252729 
L 211.016754 140.252729 
L 211.016754 140.252729 
L 207.335179 140.252729 
z
" clip-path="url(#p7d8419bcea)" style="fill: #0000ff; opacity: 0.7"/>
   </g>
   <g id="patch_50">
    <path d="M 211.016754 140.252729 
L 214.698328 140.252729 
L 214.698328 140.252729 
L 211.016754 140.252729 
z
" clip-path="url(#p7d8419bcea)" style="fill: #0000ff; opacity: 0.7"/>
   </g>
   <g id="patch_51">
    <path d="M 214.698328 140.252729 
L 218.379903 140.252729 
L 218.379903 140.252729 
L 214.698328 140.252729 
z
" clip-path="url(#p7d8419bcea)" style="fill: #0000ff; opacity: 0.7"/>
   </g>
   <g id="patch_52">
    <path d="M 37.982754 140.252729 
L 41.664328 140.252729 
L 41.664328 140.252729 
L 37.982754 140.252729 
z
" clip-path="url(#p7d8419bcea)" style="fill: #ff0000; opacity: 0.7"/>
   </g>
   <g id="patch_53">
    <path d="M 41.664328 140.252729 
L 45.345903 140.252729 
L 45.345903 140.252729 
L 41.664328 140.252729 
z
" clip-path="url(#p7d8419bcea)" style="fill: #ff0000; opacity: 0.7"/>
   </g>
   <g id="patch_54">
    <path d="M 45.345903 140.252729 
L 49.027477 140.252729 
L 49.027477 140.252729 
L 45.345903 140.252729 
z
" clip-path="url(#p7d8419bcea)" style="fill: #ff0000; opacity: 0.7"/>
   </g>
   <g id="patch_55">
    <path d="M 49.027477 140.252729 
L 52.709052 140.252729 
L 52.709052 140.252729 
L 49.027477 140.252729 
z
" clip-path="url(#p7d8419bcea)" style="fill: #ff0000; opacity: 0.7"/>
   </g>
   <g id="patch_56">
    <path d="M 52.709052 140.252729 
L 56.390626 140.252729 
L 56.390626 140.252729 
L 52.709052 140.252729 
z
" clip-path="url(#p7d8419bcea)" style="fill: #ff0000; opacity: 0.7"/>
   </g>
   <g id="patch_57">
    <path d="M 56.390626 140.252729 
L 60.0722 140.252729 
L 60.0722 140.252729 
L 56.390626 140.252729 
z
" clip-path="url(#p7d8419bcea)" style="fill: #ff0000; opacity: 0.7"/>
   </g>
   <g id="patch_58">
    <path d="M 60.0722 140.252729 
L 63.753775 140.252729 
L 63.753775 140.252729 
L 60.0722 140.252729 
z
" clip-path="url(#p7d8419bcea)" style="fill: #ff0000; opacity: 0.7"/>
   </g>
   <g id="patch_59">
    <path d="M 63.753775 140.252729 
L 67.435349 140.252729 
L 67.435349 140.252729 
L 63.753775 140.252729 
z
" clip-path="url(#p7d8419bcea)" style="fill: #ff0000; opacity: 0.7"/>
   </g>
   <g id="patch_60">
    <path d="M 67.435349 140.252729 
L 71.116924 140.252729 
L 71.116924 140.252729 
L 67.435349 140.252729 
z
" clip-path="url(#p7d8419bcea)" style="fill: #ff0000; opacity: 0.7"/>
   </g>
   <g id="patch_61">
    <path d="M 71.116924 140.252729 
L 74.798498 140.252729 
L 74.798498 140.252729 
L 71.116924 140.252729 
z
" clip-path="url(#p7d8419bcea)" style="fill: #ff0000; opacity: 0.7"/>
   </g>
   <g id="patch_62">
    <path d="M 74.798498 140.252729 
L 78.480073 140.252729 
L 78.480073 140.252729 
L 74.798498 140.252729 
z
" clip-path="url(#p7d8419bcea)" style="fill: #ff0000; opacity: 0.7"/>
   </g>
   <g id="patch_63">
    <path d="M 78.480073 140.252729 
L 82.161647 140.252729 
L 82.161647 140.252729 
L 78.480073 140.252729 
z
" clip-path="url(#p7d8419bcea)" style="fill: #ff0000; opacity: 0.7"/>
   </g>
   <g id="patch_64">
    <path d="M 82.161647 140.252729 
L 85.843222 140.252729 
L 85.843222 140.252729 
L 82.161647 140.252729 
z
" clip-path="url(#p7d8419bcea)" style="fill: #ff0000; opacity: 0.7"/>
   </g>
   <g id="patch_65">
    <path d="M 85.843222 140.252729 
L 89.524796 140.252729 
L 89.524796 140.252729 
L 85.843222 140.252729 
z
" clip-path="url(#p7d8419bcea)" style="fill: #ff0000; opacity: 0.7"/>
   </g>
   <g id="patch_66">
    <path d="M 89.524796 140.252729 
L 93.206371 140.252729 
L 93.206371 140.252729 
L 89.524796 140.252729 
z
" clip-path="url(#p7d8419bcea)" style="fill: #ff0000; opacity: 0.7"/>
   </g>
   <g id="patch_67">
    <path d="M 93.206371 140.252729 
L 96.887945 140.252729 
L 96.887945 140.252729 
L 93.206371 140.252729 
z
" clip-path="url(#p7d8419bcea)" style="fill: #ff0000; opacity: 0.7"/>
   </g>
   <g id="patch_68">
    <path d="M 96.887945 140.252729 
L 100.56952 140.252729 
L 100.56952 140.252729 
L 96.887945 140.252729 
z
" clip-path="url(#p7d8419bcea)" style="fill: #ff0000; opacity: 0.7"/>
   </g>
   <g id="patch_69">
    <path d="M 100.56952 140.252729 
L 104.251094 140.252729 
L 104.251094 140.252729 
L 100.56952 140.252729 
z
" clip-path="url(#p7d8419bcea)" style="fill: #ff0000; opacity: 0.7"/>
   </g>
   <g id="patch_70">
    <path d="M 104.251094 140.252729 
L 107.932669 140.252729 
L 107.932669 140.252729 
L 104.251094 140.252729 
z
" clip-path="url(#p7d8419bcea)" style="fill: #ff0000; opacity: 0.7"/>
   </g>
   <g id="patch_71">
    <path d="M 107.932669 140.252729 
L 111.614243 140.252729 
L 111.614243 140.252729 
L 107.932669 140.252729 
z
" clip-path="url(#p7d8419bcea)" style="fill: #ff0000; opacity: 0.7"/>
   </g>
   <g id="patch_72">
    <path d="M 111.614243 140.252729 
L 115.295817 140.252729 
L 115.295817 140.252729 
L 111.614243 140.252729 
z
" clip-path="url(#p7d8419bcea)" style="fill: #ff0000; opacity: 0.7"/>
   </g>
   <g id="patch_73">
    <path d="M 115.295817 140.252729 
L 118.977392 140.252729 
L 118.977392 140.252729 
L 115.295817 140.252729 
z
" clip-path="url(#p7d8419bcea)" style="fill: #ff0000; opacity: 0.7"/>
   </g>
   <g id="patch_74">
    <path d="M 118.977392 140.252729 
L 122.658966 140.252729 
L 122.658966 140.252729 
L 118.977392 140.252729 
z
" clip-path="url(#p7d8419bcea)" style="fill: #ff0000; opacity: 0.7"/>
   </g>
   <g id="patch_75">
    <path d="M 122.658966 140.252729 
L 126.340541 140.252729 
L 126.340541 140.252729 
L 122.658966 140.252729 
z
" clip-path="url(#p7d8419bcea)" style="fill: #ff0000; opacity: 0.7"/>
   </g>
   <g id="patch_76">
    <path d="M 126.340541 140.252729 
L 130.022115 140.252729 
L 130.022115 140.252729 
L 126.340541 140.252729 
z
" clip-path="url(#p7d8419bcea)" style="fill: #ff0000; opacity: 0.7"/>
   </g>
   <g id="patch_77">
    <path d="M 130.022115 140.252729 
L 133.70369 140.252729 
L 133.70369 140.252729 
L 130.022115 140.252729 
z
" clip-path="url(#p7d8419bcea)" style="fill: #ff0000; opacity: 0.7"/>
   </g>
   <g id="patch_78">
    <path d="M 133.70369 140.252729 
L 137.385264 140.252729 
L 137.385264 140.252729 
L 133.70369 140.252729 
z
" clip-path="url(#p7d8419bcea)" style="fill: #ff0000; opacity: 0.7"/>
   </g>
   <g id="patch_79">
    <path d="M 137.385264 140.252729 
L 141.066839 140.252729 
L 141.066839 140.252729 
L 137.385264 140.252729 
z
" clip-path="url(#p7d8419bcea)" style="fill: #ff0000; opacity: 0.7"/>
   </g>
   <g id="patch_80">
    <path d="M 141.066839 140.252729 
L 144.748413 140.252729 
L 144.748413 140.252729 
L 141.066839 140.252729 
z
" clip-path="url(#p7d8419bcea)" style="fill: #ff0000; opacity: 0.7"/>
   </g>
   <g id="patch_81">
    <path d="M 144.748413 140.252729 
L 148.429988 140.252729 
L 148.429988 140.252729 
L 144.748413 140.252729 
z
" clip-path="url(#p7d8419bcea)" style="fill: #ff0000; opacity: 0.7"/>
   </g>
   <g id="patch_82">
    <path d="M 148.429988 140.252729 
L 152.111562 140.252729 
L 152.111562 140.252729 
L 148.429988 140.252729 
z
" clip-path="url(#p7d8419bcea)" style="fill: #ff0000; opacity: 0.7"/>
   </g>
   <g id="patch_83">
    <path d="M 152.111562 140.252729 
L 155.793137 140.252729 
L 155.793137 140.252729 
L 152.111562 140.252729 
z
" clip-path="url(#p7d8419bcea)" style="fill: #ff0000; opacity: 0.7"/>
   </g>
   <g id="patch_84">
    <path d="M 155.793137 140.252729 
L 159.474711 140.252729 
L 159.474711 140.252729 
L 155.793137 140.252729 
z
" clip-path="url(#p7d8419bcea)" style="fill: #ff0000; opacity: 0.7"/>
   </g>
   <g id="patch_85">
    <path d="M 159.474711 140.252729 
L 163.156286 140.252729 
L 163.156286 140.252729 
L 159.474711 140.252729 
z
" clip-path="url(#p7d8419bcea)" style="fill: #ff0000; opacity: 0.7"/>
   </g>
   <g id="patch_86">
    <path d="M 163.156286 140.252729 
L 166.83786 140.252729 
L 166.83786 140.252729 
L 163.156286 140.252729 
z
" clip-path="url(#p7d8419bcea)" style="fill: #ff0000; opacity: 0.7"/>
   </g>
   <g id="patch_87">
    <path d="M 166.83786 140.252729 
L 170.519434 140.252729 
L 170.519434 140.252729 
L 166.83786 140.252729 
z
" clip-path="url(#p7d8419bcea)" style="fill: #ff0000; opacity: 0.7"/>
   </g>
   <g id="patch_88">
    <path d="M 170.519434 140.252729 
L 174.201009 140.252729 
L 174.201009 140.252729 
L 170.519434 140.252729 
z
" clip-path="url(#p7d8419bcea)" style="fill: #ff0000; opacity: 0.7"/>
   </g>
   <g id="patch_89">
    <path d="M 174.201009 140.252729 
L 177.882583 140.252729 
L 177.882583 110.388743 
L 174.201009 110.388743 
z
" clip-path="url(#p7d8419bcea)" style="fill: #ff0000; opacity: 0.7"/>
   </g>
   <g id="patch_90">
    <path d="M 177.882583 140.252729 
L 181.564158 140.252729 
L 181.564158 140.252729 
L 177.882583 140.252729 
z
" clip-path="url(#p7d8419bcea)" style="fill: #ff0000; opacity: 0.7"/>
   </g>
   <g id="patch_91">
    <path d="M 181.564158 140.252729 
L 185.245732 140.252729 
L 185.245732 140.252729 
L 181.564158 140.252729 
z
" clip-path="url(#p7d8419bcea)" style="fill: #ff0000; opacity: 0.7"/>
   </g>
   <g id="patch_92">
    <path d="M 185.245732 140.252729 
L 188.927307 140.252729 
L 188.927307 140.252729 
L 185.245732 140.252729 
z
" clip-path="url(#p7d8419bcea)" style="fill: #ff0000; opacity: 0.7"/>
   </g>
   <g id="patch_93">
    <path d="M 188.927307 140.252729 
L 192.608881 140.252729 
L 192.608881 140.252729 
L 188.927307 140.252729 
z
" clip-path="url(#p7d8419bcea)" style="fill: #ff0000; opacity: 0.7"/>
   </g>
   <g id="patch_94">
    <path d="M 192.608881 140.252729 
L 196.290456 140.252729 
L 196.290456 140.252729 
L 192.608881 140.252729 
z
" clip-path="url(#p7d8419bcea)" style="fill: #ff0000; opacity: 0.7"/>
   </g>
   <g id="patch_95">
    <path d="M 196.290456 140.252729 
L 199.97203 140.252729 
L 199.97203 110.388743 
L 196.290456 110.388743 
z
" clip-path="url(#p7d8419bcea)" style="fill: #ff0000; opacity: 0.7"/>
   </g>
   <g id="patch_96">
    <path d="M 199.97203 140.252729 
L 203.653605 140.252729 
L 203.653605 140.252729 
L 199.97203 140.252729 
z
" clip-path="url(#p7d8419bcea)" style="fill: #ff0000; opacity: 0.7"/>
   </g>
   <g id="patch_97">
    <path d="M 203.653605 140.252729 
L 207.335179 140.252729 
L 207.335179 110.388743 
L 203.653605 110.388743 
z
" clip-path="url(#p7d8419bcea)" style="fill: #ff0000; opacity: 0.7"/>
   </g>
   <g id="patch_98">
    <path d="M 207.335179 140.252729 
L 211.016754 140.252729 
L 211.016754 140.252729 
L 207.335179 140.252729 
z
" clip-path="url(#p7d8419bcea)" style="fill: #ff0000; opacity: 0.7"/>
   </g>
   <g id="patch_99">
    <path d="M 211.016754 140.252729 
L 214.698328 140.252729 
L 214.698328 140.252729 
L 211.016754 140.252729 
z
" clip-path="url(#p7d8419bcea)" style="fill: #ff0000; opacity: 0.7"/>
   </g>
   <g id="patch_100">
    <path d="M 214.698328 140.252729 
L 218.379903 140.252729 
L 218.379903 140.252729 
L 214.698328 140.252729 
z
" clip-path="url(#p7d8419bcea)" style="fill: #ff0000; opacity: 0.7"/>
   </g>
   <g id="patch_101">
    <path d="M 37.982754 140.252729 
L 41.664328 140.252729 
L 41.664328 140.252729 
L 37.982754 140.252729 
z
" clip-path="url(#p7d8419bcea)" style="fill: #808080; opacity: 0.7"/>
   </g>
   <g id="patch_102">
    <path d="M 41.664328 140.252729 
L 45.345903 140.252729 
L 45.345903 140.252729 
L 41.664328 140.252729 
z
" clip-path="url(#p7d8419bcea)" style="fill: #808080; opacity: 0.7"/>
   </g>
   <g id="patch_103">
    <path d="M 45.345903 140.252729 
L 49.027477 140.252729 
L 49.027477 140.252729 
L 45.345903 140.252729 
z
" clip-path="url(#p7d8419bcea)" style="fill: #808080; opacity: 0.7"/>
   </g>
   <g id="patch_104">
    <path d="M 49.027477 140.252729 
L 52.709052 140.252729 
L 52.709052 140.252729 
L 49.027477 140.252729 
z
" clip-path="url(#p7d8419bcea)" style="fill: #808080; opacity: 0.7"/>
   </g>
   <g id="patch_105">
    <path d="M 52.709052 140.252729 
L 56.390626 140.252729 
L 56.390626 140.252729 
L 52.709052 140.252729 
z
" clip-path="url(#p7d8419bcea)" style="fill: #808080; opacity: 0.7"/>
   </g>
   <g id="patch_106">
    <path d="M 56.390626 140.252729 
L 60.0722 140.252729 
L 60.0722 140.252729 
L 56.390626 140.252729 
z
" clip-path="url(#p7d8419bcea)" style="fill: #808080; opacity: 0.7"/>
   </g>
   <g id="patch_107">
    <path d="M 60.0722 140.252729 
L 63.753775 140.252729 
L 63.753775 140.252729 
L 60.0722 140.252729 
z
" clip-path="url(#p7d8419bcea)" style="fill: #808080; opacity: 0.7"/>
   </g>
   <g id="patch_108">
    <path d="M 63.753775 140.252729 
L 67.435349 140.252729 
L 67.435349 140.252729 
L 63.753775 140.252729 
z
" clip-path="url(#p7d8419bcea)" style="fill: #808080; opacity: 0.7"/>
   </g>
   <g id="patch_109">
    <path d="M 67.435349 140.252729 
L 71.116924 140.252729 
L 71.116924 140.252729 
L 67.435349 140.252729 
z
" clip-path="url(#p7d8419bcea)" style="fill: #808080; opacity: 0.7"/>
   </g>
   <g id="patch_110">
    <path d="M 71.116924 140.252729 
L 74.798498 140.252729 
L 74.798498 140.252729 
L 71.116924 140.252729 
z
" clip-path="url(#p7d8419bcea)" style="fill: #808080; opacity: 0.7"/>
   </g>
   <g id="patch_111">
    <path d="M 74.798498 140.252729 
L 78.480073 140.252729 
L 78.480073 140.252729 
L 74.798498 140.252729 
z
" clip-path="url(#p7d8419bcea)" style="fill: #808080; opacity: 0.7"/>
   </g>
   <g id="patch_112">
    <path d="M 78.480073 140.252729 
L 82.161647 140.252729 
L 82.161647 140.252729 
L 78.480073 140.252729 
z
" clip-path="url(#p7d8419bcea)" style="fill: #808080; opacity: 0.7"/>
   </g>
   <g id="patch_113">
    <path d="M 82.161647 140.252729 
L 85.843222 140.252729 
L 85.843222 140.252729 
L 82.161647 140.252729 
z
" clip-path="url(#p7d8419bcea)" style="fill: #808080; opacity: 0.7"/>
   </g>
   <g id="patch_114">
    <path d="M 85.843222 140.252729 
L 89.524796 140.252729 
L 89.524796 140.252729 
L 85.843222 140.252729 
z
" clip-path="url(#p7d8419bcea)" style="fill: #808080; opacity: 0.7"/>
   </g>
   <g id="patch_115">
    <path d="M 89.524796 140.252729 
L 93.206371 140.252729 
L 93.206371 110.388743 
L 89.524796 110.388743 
z
" clip-path="url(#p7d8419bcea)" style="fill: #808080; opacity: 0.7"/>
   </g>
   <g id="patch_116">
    <path d="M 93.206371 140.252729 
L 96.887945 140.252729 
L 96.887945 140.252729 
L 93.206371 140.252729 
z
" clip-path="url(#p7d8419bcea)" style="fill: #808080; opacity: 0.7"/>
   </g>
   <g id="patch_117">
    <path d="M 96.887945 140.252729 
L 100.56952 140.252729 
L 100.56952 140.252729 
L 96.887945 140.252729 
z
" clip-path="url(#p7d8419bcea)" style="fill: #808080; opacity: 0.7"/>
   </g>
   <g id="patch_118">
    <path d="M 100.56952 140.252729 
L 104.251094 140.252729 
L 104.251094 140.252729 
L 100.56952 140.252729 
z
" clip-path="url(#p7d8419bcea)" style="fill: #808080; opacity: 0.7"/>
   </g>
   <g id="patch_119">
    <path d="M 104.251094 140.252729 
L 107.932669 140.252729 
L 107.932669 140.252729 
L 104.251094 140.252729 
z
" clip-path="url(#p7d8419bcea)" style="fill: #808080; opacity: 0.7"/>
   </g>
   <g id="patch_120">
    <path d="M 107.932669 140.252729 
L 111.614243 140.252729 
L 111.614243 140.252729 
L 107.932669 140.252729 
z
" clip-path="url(#p7d8419bcea)" style="fill: #808080; opacity: 0.7"/>
   </g>
   <g id="patch_121">
    <path d="M 111.614243 140.252729 
L 115.295817 140.252729 
L 115.295817 110.388743 
L 111.614243 110.388743 
z
" clip-path="url(#p7d8419bcea)" style="fill: #808080; opacity: 0.7"/>
   </g>
   <g id="patch_122">
    <path d="M 115.295817 140.252729 
L 118.977392 140.252729 
L 118.977392 140.252729 
L 115.295817 140.252729 
z
" clip-path="url(#p7d8419bcea)" style="fill: #808080; opacity: 0.7"/>
   </g>
   <g id="patch_123">
    <path d="M 118.977392 140.252729 
L 122.658966 140.252729 
L 122.658966 110.388743 
L 118.977392 110.388743 
z
" clip-path="url(#p7d8419bcea)" style="fill: #808080; opacity: 0.7"/>
   </g>
   <g id="patch_124">
    <path d="M 122.658966 140.252729 
L 126.340541 140.252729 
L 126.340541 20.796787 
L 122.658966 20.796787 
z
" clip-path="url(#p7d8419bcea)" style="fill: #808080; opacity: 0.7"/>
   </g>
   <g id="patch_125">
    <path d="M 126.340541 140.252729 
L 130.022115 140.252729 
L 130.022115 80.524758 
L 126.340541 80.524758 
z
" clip-path="url(#p7d8419bcea)" style="fill: #808080; opacity: 0.7"/>
   </g>
   <g id="patch_126">
    <path d="M 130.022115 140.252729 
L 133.70369 140.252729 
L 133.70369 140.252729 
L 130.022115 140.252729 
z
" clip-path="url(#p7d8419bcea)" style="fill: #808080; opacity: 0.7"/>
   </g>
   <g id="patch_127">
    <path d="M 133.70369 140.252729 
L 137.385264 140.252729 
L 137.385264 80.524758 
L 133.70369 80.524758 
z
" clip-path="url(#p7d8419bcea)" style="fill: #808080; opacity: 0.7"/>
   </g>
   <g id="patch_128">
    <path d="M 137.385264 140.252729 
L 141.066839 140.252729 
L 141.066839 110.388743 
L 137.385264 110.388743 
z
" clip-path="url(#p7d8419bcea)" style="fill: #808080; opacity: 0.7"/>
   </g>
   <g id="patch_129">
    <path d="M 141.066839 140.252729 
L 144.748413 140.252729 
L 144.748413 140.252729 
L 141.066839 140.252729 
z
" clip-path="url(#p7d8419bcea)" style="fill: #808080; opacity: 0.7"/>
   </g>
   <g id="patch_130">
    <path d="M 144.748413 140.252729 
L 148.429988 140.252729 
L 148.429988 50.660772 
L 144.748413 50.660772 
z
" clip-path="url(#p7d8419bcea)" style="fill: #808080; opacity: 0.7"/>
   </g>
   <g id="patch_131">
    <path d="M 148.429988 140.252729 
L 152.111562 140.252729 
L 152.111562 110.388743 
L 148.429988 110.388743 
z
" clip-path="url(#p7d8419bcea)" style="fill: #808080; opacity: 0.7"/>
   </g>
   <g id="patch_132">
    <path d="M 152.111562 140.252729 
L 155.793137 140.252729 
L 155.793137 80.524758 
L 152.111562 80.524758 
z
" clip-path="url(#p7d8419bcea)" style="fill: #808080; opacity: 0.7"/>
   </g>
   <g id="patch_133">
    <path d="M 155.793137 140.252729 
L 159.474711 140.252729 
L 159.474711 140.252729 
L 155.793137 140.252729 
z
" clip-path="url(#p7d8419bcea)" style="fill: #808080; opacity: 0.7"/>
   </g>
   <g id="patch_134">
    <path d="M 159.474711 140.252729 
L 163.156286 140.252729 
L 163.156286 140.252729 
L 159.474711 140.252729 
z
" clip-path="url(#p7d8419bcea)" style="fill: #808080; opacity: 0.7"/>
   </g>
   <g id="patch_135">
    <path d="M 163.156286 140.252729 
L 166.83786 140.252729 
L 166.83786 140.252729 
L 163.156286 140.252729 
z
" clip-path="url(#p7d8419bcea)" style="fill: #808080; opacity: 0.7"/>
   </g>
   <g id="patch_136">
    <path d="M 166.83786 140.252729 
L 170.519434 140.252729 
L 170.519434 140.252729 
L 166.83786 140.252729 
z
" clip-path="url(#p7d8419bcea)" style="fill: #808080; opacity: 0.7"/>
   </g>
   <g id="patch_137">
    <path d="M 170.519434 140.252729 
L 174.201009 140.252729 
L 174.201009 140.252729 
L 170.519434 140.252729 
z
" clip-path="url(#p7d8419bcea)" style="fill: #808080; opacity: 0.7"/>
   </g>
   <g id="patch_138">
    <path d="M 174.201009 140.252729 
L 177.882583 140.252729 
L 177.882583 140.252729 
L 174.201009 140.252729 
z
" clip-path="url(#p7d8419bcea)" style="fill: #808080; opacity: 0.7"/>
   </g>
   <g id="patch_139">
    <path d="M 177.882583 140.252729 
L 181.564158 140.252729 
L 181.564158 140.252729 
L 177.882583 140.252729 
z
" clip-path="url(#p7d8419bcea)" style="fill: #808080; opacity: 0.7"/>
   </g>
   <g id="patch_140">
    <path d="M 181.564158 140.252729 
L 185.245732 140.252729 
L 185.245732 140.252729 
L 181.564158 140.252729 
z
" clip-path="url(#p7d8419bcea)" style="fill: #808080; opacity: 0.7"/>
   </g>
   <g id="patch_141">
    <path d="M 185.245732 140.252729 
L 188.927307 140.252729 
L 188.927307 140.252729 
L 185.245732 140.252729 
z
" clip-path="url(#p7d8419bcea)" style="fill: #808080; opacity: 0.7"/>
   </g>
   <g id="patch_142">
    <path d="M 188.927307 140.252729 
L 192.608881 140.252729 
L 192.608881 140.252729 
L 188.927307 140.252729 
z
" clip-path="url(#p7d8419bcea)" style="fill: #808080; opacity: 0.7"/>
   </g>
   <g id="patch_143">
    <path d="M 192.608881 140.252729 
L 196.290456 140.252729 
L 196.290456 140.252729 
L 192.608881 140.252729 
z
" clip-path="url(#p7d8419bcea)" style="fill: #808080; opacity: 0.7"/>
   </g>
   <g id="patch_144">
    <path d="M 196.290456 140.252729 
L 199.97203 140.252729 
L 199.97203 140.252729 
L 196.290456 140.252729 
z
" clip-path="url(#p7d8419bcea)" style="fill: #808080; opacity: 0.7"/>
   </g>
   <g id="patch_145">
    <path d="M 199.97203 140.252729 
L 203.653605 140.252729 
L 203.653605 140.252729 
L 199.97203 140.252729 
z
" clip-path="url(#p7d8419bcea)" style="fill: #808080; opacity: 0.7"/>
   </g>
   <g id="patch_146">
    <path d="M 203.653605 140.252729 
L 207.335179 140.252729 
L 207.335179 140.252729 
L 203.653605 140.252729 
z
" clip-path="url(#p7d8419bcea)" style="fill: #808080; opacity: 0.7"/>
   </g>
   <g id="patch_147">
    <path d="M 207.335179 140.252729 
L 211.016754 140.252729 
L 211.016754 140.252729 
L 207.335179 140.252729 
z
" clip-path="url(#p7d8419bcea)" style="fill: #808080; opacity: 0.7"/>
   </g>
   <g id="patch_148">
    <path d="M 211.016754 140.252729 
L 214.698328 140.252729 
L 214.698328 140.252729 
L 211.016754 140.252729 
z
" clip-path="url(#p7d8419bcea)" style="fill: #808080; opacity: 0.7"/>
   </g>
   <g id="patch_149">
    <path d="M 214.698328 140.252729 
L 218.379903 140.252729 
L 218.379903 140.252729 
L 214.698328 140.252729 
z
" clip-path="url(#p7d8419bcea)" style="fill: #808080; opacity: 0.7"/>
   </g>
   <g id="matplotlib.axis_1">
    <g id="xtick_1">
     <g id="line2d_1">
      <defs>
       <path id="mcc8fd37c16" d="M 0 0 
L 0 -3 
" style="stroke: #000000; stroke-width: 0.5"/>
      </defs>
      <g>
       <use xlink:href="#mcc8fd37c16" x="37.982754" y="140.252729" style="stroke: #000000; stroke-width: 0.5"/>
      </g>
     </g>
     <g id="text_1">
      <text style="font: 10px 'Arial'; text-anchor: middle" x="37.982754" y="157.410541" transform="rotate(-0 37.982754 157.410541)">−1.0</text>
     </g>
    </g>
    <g id="xtick_2">
     <g id="line2d_2">
      <g>
       <use xlink:href="#mcc8fd37c16" x="83.082041" y="140.252729" style="stroke: #000000; stroke-width: 0.5"/>
      </g>
     </g>
     <g id="text_2">
      <text style="font: 10px 'Arial'; text-anchor: middle" x="83.082041" y="157.410541" transform="rotate(-0 83.082041 157.410541)">−0.5</text>
     </g>
    </g>
    <g id="xtick_3">
     <g id="line2d_3">
      <g>
       <use xlink:href="#mcc8fd37c16" x="128.181328" y="140.252729" style="stroke: #000000; stroke-width: 0.5"/>
      </g>
     </g>
     <g id="text_3">
      <text style="font: 10px 'Arial'; text-anchor: middle" x="128.181328" y="157.410541" transform="rotate(-0 128.181328 157.410541)">0.0</text>
     </g>
    </g>
    <g id="xtick_4">
     <g id="line2d_4">
      <g>
       <use xlink:href="#mcc8fd37c16" x="173.280615" y="140.252729" style="stroke: #000000; stroke-width: 0.5"/>
      </g>
     </g>
     <g id="text_4">
      <text style="font: 10px 'Arial'; text-anchor: middle" x="173.280615" y="157.410541" transform="rotate(-0 173.280615 157.410541)">0.5</text>
     </g>
    </g>
    <g id="xtick_5">
     <g id="line2d_5">
      <g>
       <use xlink:href="#mcc8fd37c16" x="218.379903" y="140.252729" style="stroke: #000000; stroke-width: 0.5"/>
      </g>
     </g>
     <g id="text_5">
      <text style="font: 10px 'Arial'; text-anchor: middle" x="218.379903" y="157.410541" transform="rotate(-0 218.379903 157.410541)">1.0</text>
     </g>
    </g>
    <g id="text_6">
     <text style="font: 7px 'Arial'; text-anchor: middle" x="128.181328" y="168.40851" transform="rotate(-0 128.181328 168.40851)">r</text>
    </g>
   </g>
   <g id="matplotlib.axis_2">
    <g id="ytick_1">
     <g id="line2d_6">
      <defs>
       <path id="ma8d865273a" d="M 0 0 
L 3 0 
" style="stroke: #000000; stroke-width: 0.5"/>
      </defs>
      <g>
       <use xlink:href="#ma8d865273a" x="28.962896" y="140.252729" style="stroke: #000000; stroke-width: 0.5"/>
      </g>
     </g>
     <g id="text_7">
      <text style="font: 10px 'Arial'; text-anchor: end" x="18.962896" y="143.831635" transform="rotate(-0 18.962896 143.831635)">0</text>
     </g>
    </g>
    <g id="ytick_2">
     <g id="line2d_7">
      <g>
       <use xlink:href="#ma8d865273a" x="28.962896" y="110.388743" style="stroke: #000000; stroke-width: 0.5"/>
      </g>
     </g>
     <g id="text_8">
      <text style="font: 10px 'Arial'; text-anchor: end" x="18.962896" y="113.96765" transform="rotate(-0 18.962896 113.96765)">1</text>
     </g>
    </g>
    <g id="ytick_3">
     <g id="line2d_8">
      <g>
       <use xlink:href="#ma8d865273a" x="28.962896" y="80.524758" style="stroke: #000000; stroke-width: 0.5"/>
      </g>
     </g>
     <g id="text_9">
      <text style="font: 10px 'Arial'; text-anchor: end" x="18.962896" y="84.103664" transform="rotate(-0 18.962896 84.103664)">2</text>
     </g>
    </g>
    <g id="ytick_4">
     <g id="line2d_9">
      <g>
       <use xlink:href="#ma8d865273a" x="28.962896" y="50.660772" style="stroke: #000000; stroke-width: 0.5"/>
      </g>
     </g>
     <g id="text_10">
      <text style="font: 10px 'Arial'; text-anchor: end" x="18.962896" y="54.239679" transform="rotate(-0 18.962896 54.239679)">3</text>
     </g>
    </g>
    <g id="ytick_5">
     <g id="line2d_10">
      <g>
       <use xlink:href="#ma8d865273a" x="28.962896" y="20.796787" style="stroke: #000000; stroke-width: 0.5"/>
      </g>
     </g>
     <g id="text_11">
      <text style="font: 10px 'Arial'; text-anchor: end" x="18.962896" y="24.375693" transform="rotate(-0 18.962896 24.375693)">4</text>
     </g>
    </g>
    <g id="text_12">
     <text style="font: 7px 'Arial'; text-anchor: middle" x="8.010709" y="77.538359" transform="rotate(-90 8.010709 77.538359)">count</text>
    </g>
   </g>
   <g id="line2d_11">
    <path d="M 162.200924 140.252729 
L 162.200924 14.82399 
" clip-path="url(#p7d8419bcea)" style="fill: none; stroke-dasharray: 3.7,1.6; stroke-dashoffset: 0; stroke: #0000ff"/>
   </g>
   <g id="line2d_12">
    <path d="M 131.19325 140.252729 
L 131.19325 14.82399 
" clip-path="url(#p7d8419bcea)" style="fill: none; stroke-dasharray: 3.7,1.6; stroke-dashoffset: 0; stroke: #808080"/>
   </g>
   <g id="patch_150">
    <path d="M 28.962896 140.252729 
L 28.962896 14.82399 
" style="fill: none; stroke: #000000; stroke-width: 0.5; stroke-linejoin: miter; stroke-linecap: square"/>
   </g>
   <g id="patch_151">
    <path d="M 227.39976 140.252729 
L 227.39976 14.82399 
" style="fill: none; stroke: #000000; stroke-width: 0.5; stroke-linejoin: miter; stroke-linecap: square"/>
   </g>
   <g id="patch_152">
    <path d="M 28.962896 140.252729 
L 227.39976 140.252729 
" style="fill: none; stroke: #000000; stroke-width: 0.5; stroke-linejoin: miter; stroke-linecap: square"/>
   </g>
   <g id="patch_153">
    <path d="M 28.962896 14.82399 
L 227.39976 14.82399 
" style="fill: none; stroke: #000000; stroke-width: 0.5; stroke-linejoin: miter; stroke-linecap: square"/>
   </g>
   <g id="text_13">
    <text style="font: 7px 'Arial'; text-anchor: end" x="217.477917" y="26.191208" transform="rotate(-0 217.477917 26.191208)">16.7% sig</text>
   </g>
   <g id="text_14">
    <text style="font: 8px 'Arial'; text-anchor: middle" x="128.181328" y="8.82399" transform="rotate(-0 128.181328 8.82399)">PC: p=0.333</text>
   </g>
   <g id="legend_1">
    <g id="patch_154">
     <path d="M 34.362896 24.518677 
L 46.362896 24.518677 
L 46.362896 20.318677 
L 34.362896 20.318677 
z
" style="fill: #0000ff; opacity: 0.7"/>
    </g>
    <g id="text_15">
     <text style="font: 6px 'Arial'; text-anchor: start" x="51.162896" y="24.518677" transform="rotate(-0 51.162896 24.518677)">orig non-sig</text>
    </g>
    <g id="patch_155">
     <path d="M 34.362896 33.076177 
L 46.362896 33.076177 
L 46.362896 28.876177 
L 34.362896 28.876177 
z
" style="fill: #ff0000; opacity: 0.7"/>
    </g>
    <g id="text_16">
     <text style="font: 6px 'Arial'; text-anchor: start" x="51.162896" y="33.076177" transform="rotate(-0 51.162896 33.076177)">orig sig</text>
    </g>
    <g id="patch_156">
     <path d="M 34.362896 41.633677 
L 46.362896 41.633677 
L 46.362896 37.433677 
L 34.362896 37.433677 
z
" style="fill: #808080; opacity: 0.7"/>
    </g>
    <g id="text_17">
     <text style="font: 6px 'Arial'; text-anchor: start" x="51.162896" y="41.633677" transform="rotate(-0 51.162896 41.633677)">shuffled mean</text>
    </g>
   </g>
  </g>
  <g id="axes_2">
   <g id="patch_157">
    <path d="M 259.362896 140.252729 
L 457.79976 140.252729 
L 457.79976 14.82399 
L 259.362896 14.82399 
z
" style="fill: #ffffff"/>
   </g>
   <g id="patch_158">
    <path d="M 268.382754 140.252729 
L 272.064328 140.252729 
L 272.064328 140.252729 
L 268.382754 140.252729 
z
" clip-path="url(#p35a7b3a3f1)" style="fill: #0000ff; opacity: 0.7"/>
   </g>
   <g id="patch_159">
    <path d="M 272.064328 140.252729 
L 275.745903 140.252729 
L 275.745903 140.252729 
L 272.064328 140.252729 
z
" clip-path="url(#p35a7b3a3f1)" style="fill: #0000ff; opacity: 0.7"/>
   </g>
   <g id="patch_160">
    <path d="M 275.745903 140.252729 
L 279.427477 140.252729 
L 279.427477 140.252729 
L 275.745903 140.252729 
z
" clip-path="url(#p35a7b3a3f1)" style="fill: #0000ff; opacity: 0.7"/>
   </g>
   <g id="patch_161">
    <path d="M 279.427477 140.252729 
L 283.109052 140.252729 
L 283.109052 140.252729 
L 279.427477 140.252729 
z
" clip-path="url(#p35a7b3a3f1)" style="fill: #0000ff; opacity: 0.7"/>
   </g>
   <g id="patch_162">
    <path d="M 283.109052 140.252729 
L 286.790626 140.252729 
L 286.790626 140.252729 
L 283.109052 140.252729 
z
" clip-path="url(#p35a7b3a3f1)" style="fill: #0000ff; opacity: 0.7"/>
   </g>
   <g id="patch_163">
    <path d="M 286.790626 140.252729 
L 290.4722 140.252729 
L 290.4722 140.252729 
L 286.790626 140.252729 
z
" clip-path="url(#p35a7b3a3f1)" style="fill: #0000ff; opacity: 0.7"/>
   </g>
   <g id="patch_164">
    <path d="M 290.4722 140.252729 
L 294.153775 140.252729 
L 294.153775 140.252729 
L 290.4722 140.252729 
z
" clip-path="url(#p35a7b3a3f1)" style="fill: #0000ff; opacity: 0.7"/>
   </g>
   <g id="patch_165">
    <path d="M 294.153775 140.252729 
L 297.835349 140.252729 
L 297.835349 140.252729 
L 294.153775 140.252729 
z
" clip-path="url(#p35a7b3a3f1)" style="fill: #0000ff; opacity: 0.7"/>
   </g>
   <g id="patch_166">
    <path d="M 297.835349 140.252729 
L 301.516924 140.252729 
L 301.516924 140.252729 
L 297.835349 140.252729 
z
" clip-path="url(#p35a7b3a3f1)" style="fill: #0000ff; opacity: 0.7"/>
   </g>
   <g id="patch_167">
    <path d="M 301.516924 140.252729 
L 305.198498 140.252729 
L 305.198498 100.434082 
L 301.516924 100.434082 
z
" clip-path="url(#p35a7b3a3f1)" style="fill: #0000ff; opacity: 0.7"/>
   </g>
   <g id="patch_168">
    <path d="M 305.198498 140.252729 
L 308.880073 140.252729 
L 308.880073 140.252729 
L 305.198498 140.252729 
z
" clip-path="url(#p35a7b3a3f1)" style="fill: #0000ff; opacity: 0.7"/>
   </g>
   <g id="patch_169">
    <path d="M 308.880073 140.252729 
L 312.561647 140.252729 
L 312.561647 140.252729 
L 308.880073 140.252729 
z
" clip-path="url(#p35a7b3a3f1)" style="fill: #0000ff; opacity: 0.7"/>
   </g>
   <g id="patch_170">
    <path d="M 312.561647 140.252729 
L 316.243222 140.252729 
L 316.243222 140.252729 
L 312.561647 140.252729 
z
" clip-path="url(#p35a7b3a3f1)" style="fill: #0000ff; opacity: 0.7"/>
   </g>
   <g id="patch_171">
    <path d="M 316.243222 140.252729 
L 319.924796 140.252729 
L 319.924796 140.252729 
L 316.243222 140.252729 
z
" clip-path="url(#p35a7b3a3f1)" style="fill: #0000ff; opacity: 0.7"/>
   </g>
   <g id="patch_172">
    <path d="M 319.924796 140.252729 
L 323.606371 140.252729 
L 323.606371 140.252729 
L 319.924796 140.252729 
z
" clip-path="url(#p35a7b3a3f1)" style="fill: #0000ff; opacity: 0.7"/>
   </g>
   <g id="patch_173">
    <path d="M 323.606371 140.252729 
L 327.287945 140.252729 
L 327.287945 140.252729 
L 323.606371 140.252729 
z
" clip-path="url(#p35a7b3a3f1)" style="fill: #0000ff; opacity: 0.7"/>
   </g>
   <g id="patch_174">
    <path d="M 327.287945 140.252729 
L 330.96952 140.252729 
L 330.96952 60.615434 
L 327.287945 60.615434 
z
" clip-path="url(#p35a7b3a3f1)" style="fill: #0000ff; opacity: 0.7"/>
   </g>
   <g id="patch_175">
    <path d="M 330.96952 140.252729 
L 334.651094 140.252729 
L 334.651094 140.252729 
L 330.96952 140.252729 
z
" clip-path="url(#p35a7b3a3f1)" style="fill: #0000ff; opacity: 0.7"/>
   </g>
   <g id="patch_176">
    <path d="M 334.651094 140.252729 
L 338.332669 140.252729 
L 338.332669 140.252729 
L 334.651094 140.252729 
z
" clip-path="url(#p35a7b3a3f1)" style="fill: #0000ff; opacity: 0.7"/>
   </g>
   <g id="patch_177">
    <path d="M 338.332669 140.252729 
L 342.014243 140.252729 
L 342.014243 140.252729 
L 338.332669 140.252729 
z
" clip-path="url(#p35a7b3a3f1)" style="fill: #0000ff; opacity: 0.7"/>
   </g>
   <g id="patch_178">
    <path d="M 342.014243 140.252729 
L 345.695817 140.252729 
L 345.695817 140.252729 
L 342.014243 140.252729 
z
" clip-path="url(#p35a7b3a3f1)" style="fill: #0000ff; opacity: 0.7"/>
   </g>
   <g id="patch_179">
    <path d="M 345.695817 140.252729 
L 349.377392 140.252729 
L 349.377392 140.252729 
L 345.695817 140.252729 
z
" clip-path="url(#p35a7b3a3f1)" style="fill: #0000ff; opacity: 0.7"/>
   </g>
   <g id="patch_180">
    <path d="M 349.377392 140.252729 
L 353.058966 140.252729 
L 353.058966 100.434082 
L 349.377392 100.434082 
z
" clip-path="url(#p35a7b3a3f1)" style="fill: #0000ff; opacity: 0.7"/>
   </g>
   <g id="patch_181">
    <path d="M 353.058966 140.252729 
L 356.740541 140.252729 
L 356.740541 140.252729 
L 353.058966 140.252729 
z
" clip-path="url(#p35a7b3a3f1)" style="fill: #0000ff; opacity: 0.7"/>
   </g>
   <g id="patch_182">
    <path d="M 356.740541 140.252729 
L 360.422115 140.252729 
L 360.422115 100.434082 
L 356.740541 100.434082 
z
" clip-path="url(#p35a7b3a3f1)" style="fill: #0000ff; opacity: 0.7"/>
   </g>
   <g id="patch_183">
    <path d="M 360.422115 140.252729 
L 364.10369 140.252729 
L 364.10369 140.252729 
L 360.422115 140.252729 
z
" clip-path="url(#p35a7b3a3f1)" style="fill: #0000ff; opacity: 0.7"/>
   </g>
   <g id="patch_184">
    <path d="M 364.10369 140.252729 
L 367.785264 140.252729 
L 367.785264 60.615434 
L 364.10369 60.615434 
z
" clip-path="url(#p35a7b3a3f1)" style="fill: #0000ff; opacity: 0.7"/>
   </g>
   <g id="patch_185">
    <path d="M 367.785264 140.252729 
L 371.466839 140.252729 
L 371.466839 100.434082 
L 367.785264 100.434082 
z
" clip-path="url(#p35a7b3a3f1)" style="fill: #0000ff; opacity: 0.7"/>
   </g>
   <g id="patch_186">
    <path d="M 371.466839 140.252729 
L 375.148413 140.252729 
L 375.148413 140.252729 
L 371.466839 140.252729 
z
" clip-path="url(#p35a7b3a3f1)" style="fill: #0000ff; opacity: 0.7"/>
   </g>
   <g id="patch_187">
    <path d="M 375.148413 140.252729 
L 378.829988 140.252729 
L 378.829988 140.252729 
L 375.148413 140.252729 
z
" clip-path="url(#p35a7b3a3f1)" style="fill: #0000ff; opacity: 0.7"/>
   </g>
   <g id="patch_188">
    <path d="M 378.829988 140.252729 
L 382.511562 140.252729 
L 382.511562 140.252729 
L 378.829988 140.252729 
z
" clip-path="url(#p35a7b3a3f1)" style="fill: #0000ff; opacity: 0.7"/>
   </g>
   <g id="patch_189">
    <path d="M 382.511562 140.252729 
L 386.193137 140.252729 
L 386.193137 140.252729 
L 382.511562 140.252729 
z
" clip-path="url(#p35a7b3a3f1)" style="fill: #0000ff; opacity: 0.7"/>
   </g>
   <g id="patch_190">
    <path d="M 386.193137 140.252729 
L 389.874711 140.252729 
L 389.874711 140.252729 
L 386.193137 140.252729 
z
" clip-path="url(#p35a7b3a3f1)" style="fill: #0000ff; opacity: 0.7"/>
   </g>
   <g id="patch_191">
    <path d="M 389.874711 140.252729 
L 393.556286 140.252729 
L 393.556286 140.252729 
L 389.874711 140.252729 
z
" clip-path="url(#p35a7b3a3f1)" style="fill: #0000ff; opacity: 0.7"/>
   </g>
   <g id="patch_192">
    <path d="M 393.556286 140.252729 
L 397.23786 140.252729 
L 397.23786 140.252729 
L 393.556286 140.252729 
z
" clip-path="url(#p35a7b3a3f1)" style="fill: #0000ff; opacity: 0.7"/>
   </g>
   <g id="patch_193">
    <path d="M 397.23786 140.252729 
L 400.919434 140.252729 
L 400.919434 60.615434 
L 397.23786 60.615434 
z
" clip-path="url(#p35a7b3a3f1)" style="fill: #0000ff; opacity: 0.7"/>
   </g>
   <g id="patch_194">
    <path d="M 400.919434 140.252729 
L 404.601009 140.252729 
L 404.601009 140.252729 
L 400.919434 140.252729 
z
" clip-path="url(#p35a7b3a3f1)" style="fill: #0000ff; opacity: 0.7"/>
   </g>
   <g id="patch_195">
    <path d="M 404.601009 140.252729 
L 408.282583 140.252729 
L 408.282583 140.252729 
L 404.601009 140.252729 
z
" clip-path="url(#p35a7b3a3f1)" style="fill: #0000ff; opacity: 0.7"/>
   </g>
   <g id="patch_196">
    <path d="M 408.282583 140.252729 
L 411.964158 140.252729 
L 411.964158 140.252729 
L 408.282583 140.252729 
z
" clip-path="url(#p35a7b3a3f1)" style="fill: #0000ff; opacity: 0.7"/>
   </g>
   <g id="patch_197">
    <path d="M 411.964158 140.252729 
L 415.645732 140.252729 
L 415.645732 140.252729 
L 411.964158 140.252729 
z
" clip-path="url(#p35a7b3a3f1)" style="fill: #0000ff; opacity: 0.7"/>
   </g>
   <g id="patch_198">
    <path d="M 415.645732 140.252729 
L 419.327307 140.252729 
L 419.327307 140.252729 
L 415.645732 140.252729 
z
" clip-path="url(#p35a7b3a3f1)" style="fill: #0000ff; opacity: 0.7"/>
   </g>
   <g id="patch_199">
    <path d="M 419.327307 140.252729 
L 423.008881 140.252729 
L 423.008881 140.252729 
L 419.327307 140.252729 
z
" clip-path="url(#p35a7b3a3f1)" style="fill: #0000ff; opacity: 0.7"/>
   </g>
   <g id="patch_200">
    <path d="M 423.008881 140.252729 
L 426.690456 140.252729 
L 426.690456 140.252729 
L 423.008881 140.252729 
z
" clip-path="url(#p35a7b3a3f1)" style="fill: #0000ff; opacity: 0.7"/>
   </g>
   <g id="patch_201">
    <path d="M 426.690456 140.252729 
L 430.37203 140.252729 
L 430.37203 140.252729 
L 426.690456 140.252729 
z
" clip-path="url(#p35a7b3a3f1)" style="fill: #0000ff; opacity: 0.7"/>
   </g>
   <g id="patch_202">
    <path d="M 430.37203 140.252729 
L 434.053605 140.252729 
L 434.053605 140.252729 
L 430.37203 140.252729 
z
" clip-path="url(#p35a7b3a3f1)" style="fill: #0000ff; opacity: 0.7"/>
   </g>
   <g id="patch_203">
    <path d="M 434.053605 140.252729 
L 437.735179 140.252729 
L 437.735179 140.252729 
L 434.053605 140.252729 
z
" clip-path="url(#p35a7b3a3f1)" style="fill: #0000ff; opacity: 0.7"/>
   </g>
   <g id="patch_204">
    <path d="M 437.735179 140.252729 
L 441.416754 140.252729 
L 441.416754 140.252729 
L 437.735179 140.252729 
z
" clip-path="url(#p35a7b3a3f1)" style="fill: #0000ff; opacity: 0.7"/>
   </g>
   <g id="patch_205">
    <path d="M 441.416754 140.252729 
L 445.098328 140.252729 
L 445.098328 140.252729 
L 441.416754 140.252729 
z
" clip-path="url(#p35a7b3a3f1)" style="fill: #0000ff; opacity: 0.7"/>
   </g>
   <g id="patch_206">
    <path d="M 445.098328 140.252729 
L 448.779903 140.252729 
L 448.779903 140.252729 
L 445.098328 140.252729 
z
" clip-path="url(#p35a7b3a3f1)" style="fill: #0000ff; opacity: 0.7"/>
   </g>
   <g id="patch_207">
    <path d="M 268.382754 140.252729 
L 272.064328 140.252729 
L 272.064328 140.252729 
L 268.382754 140.252729 
z
" clip-path="url(#p35a7b3a3f1)" style="fill: #ff0000; opacity: 0.7"/>
   </g>
   <g id="patch_208">
    <path d="M 272.064328 140.252729 
L 275.745903 140.252729 
L 275.745903 140.252729 
L 272.064328 140.252729 
z
" clip-path="url(#p35a7b3a3f1)" style="fill: #ff0000; opacity: 0.7"/>
   </g>
   <g id="patch_209">
    <path d="M 275.745903 140.252729 
L 279.427477 140.252729 
L 279.427477 140.252729 
L 275.745903 140.252729 
z
" clip-path="url(#p35a7b3a3f1)" style="fill: #ff0000; opacity: 0.7"/>
   </g>
   <g id="patch_210">
    <path d="M 279.427477 140.252729 
L 283.109052 140.252729 
L 283.109052 140.252729 
L 279.427477 140.252729 
z
" clip-path="url(#p35a7b3a3f1)" style="fill: #ff0000; opacity: 0.7"/>
   </g>
   <g id="patch_211">
    <path d="M 283.109052 140.252729 
L 286.790626 140.252729 
L 286.790626 140.252729 
L 283.109052 140.252729 
z
" clip-path="url(#p35a7b3a3f1)" style="fill: #ff0000; opacity: 0.7"/>
   </g>
   <g id="patch_212">
    <path d="M 286.790626 140.252729 
L 290.4722 140.252729 
L 290.4722 140.252729 
L 286.790626 140.252729 
z
" clip-path="url(#p35a7b3a3f1)" style="fill: #ff0000; opacity: 0.7"/>
   </g>
   <g id="patch_213">
    <path d="M 290.4722 140.252729 
L 294.153775 140.252729 
L 294.153775 140.252729 
L 290.4722 140.252729 
z
" clip-path="url(#p35a7b3a3f1)" style="fill: #ff0000; opacity: 0.7"/>
   </g>
   <g id="patch_214">
    <path d="M 294.153775 140.252729 
L 297.835349 140.252729 
L 297.835349 140.252729 
L 294.153775 140.252729 
z
" clip-path="url(#p35a7b3a3f1)" style="fill: #ff0000; opacity: 0.7"/>
   </g>
   <g id="patch_215">
    <path d="M 297.835349 140.252729 
L 301.516924 140.252729 
L 301.516924 140.252729 
L 297.835349 140.252729 
z
" clip-path="url(#p35a7b3a3f1)" style="fill: #ff0000; opacity: 0.7"/>
   </g>
   <g id="patch_216">
    <path d="M 301.516924 140.252729 
L 305.198498 140.252729 
L 305.198498 140.252729 
L 301.516924 140.252729 
z
" clip-path="url(#p35a7b3a3f1)" style="fill: #ff0000; opacity: 0.7"/>
   </g>
   <g id="patch_217">
    <path d="M 305.198498 140.252729 
L 308.880073 140.252729 
L 308.880073 140.252729 
L 305.198498 140.252729 
z
" clip-path="url(#p35a7b3a3f1)" style="fill: #ff0000; opacity: 0.7"/>
   </g>
   <g id="patch_218">
    <path d="M 308.880073 140.252729 
L 312.561647 140.252729 
L 312.561647 140.252729 
L 308.880073 140.252729 
z
" clip-path="url(#p35a7b3a3f1)" style="fill: #ff0000; opacity: 0.7"/>
   </g>
   <g id="patch_219">
    <path d="M 312.561647 140.252729 
L 316.243222 140.252729 
L 316.243222 140.252729 
L 312.561647 140.252729 
z
" clip-path="url(#p35a7b3a3f1)" style="fill: #ff0000; opacity: 0.7"/>
   </g>
   <g id="patch_220">
    <path d="M 316.243222 140.252729 
L 319.924796 140.252729 
L 319.924796 140.252729 
L 316.243222 140.252729 
z
" clip-path="url(#p35a7b3a3f1)" style="fill: #ff0000; opacity: 0.7"/>
   </g>
   <g id="patch_221">
    <path d="M 319.924796 140.252729 
L 323.606371 140.252729 
L 323.606371 140.252729 
L 319.924796 140.252729 
z
" clip-path="url(#p35a7b3a3f1)" style="fill: #ff0000; opacity: 0.7"/>
   </g>
   <g id="patch_222">
    <path d="M 323.606371 140.252729 
L 327.287945 140.252729 
L 327.287945 140.252729 
L 323.606371 140.252729 
z
" clip-path="url(#p35a7b3a3f1)" style="fill: #ff0000; opacity: 0.7"/>
   </g>
   <g id="patch_223">
    <path d="M 327.287945 140.252729 
L 330.96952 140.252729 
L 330.96952 140.252729 
L 327.287945 140.252729 
z
" clip-path="url(#p35a7b3a3f1)" style="fill: #ff0000; opacity: 0.7"/>
   </g>
   <g id="patch_224">
    <path d="M 330.96952 140.252729 
L 334.651094 140.252729 
L 334.651094 140.252729 
L 330.96952 140.252729 
z
" clip-path="url(#p35a7b3a3f1)" style="fill: #ff0000; opacity: 0.7"/>
   </g>
   <g id="patch_225">
    <path d="M 334.651094 140.252729 
L 338.332669 140.252729 
L 338.332669 140.252729 
L 334.651094 140.252729 
z
" clip-path="url(#p35a7b3a3f1)" style="fill: #ff0000; opacity: 0.7"/>
   </g>
   <g id="patch_226">
    <path d="M 338.332669 140.252729 
L 342.014243 140.252729 
L 342.014243 140.252729 
L 338.332669 140.252729 
z
" clip-path="url(#p35a7b3a3f1)" style="fill: #ff0000; opacity: 0.7"/>
   </g>
   <g id="patch_227">
    <path d="M 342.014243 140.252729 
L 345.695817 140.252729 
L 345.695817 140.252729 
L 342.014243 140.252729 
z
" clip-path="url(#p35a7b3a3f1)" style="fill: #ff0000; opacity: 0.7"/>
   </g>
   <g id="patch_228">
    <path d="M 345.695817 140.252729 
L 349.377392 140.252729 
L 349.377392 140.252729 
L 345.695817 140.252729 
z
" clip-path="url(#p35a7b3a3f1)" style="fill: #ff0000; opacity: 0.7"/>
   </g>
   <g id="patch_229">
    <path d="M 349.377392 140.252729 
L 353.058966 140.252729 
L 353.058966 140.252729 
L 349.377392 140.252729 
z
" clip-path="url(#p35a7b3a3f1)" style="fill: #ff0000; opacity: 0.7"/>
   </g>
   <g id="patch_230">
    <path d="M 353.058966 140.252729 
L 356.740541 140.252729 
L 356.740541 140.252729 
L 353.058966 140.252729 
z
" clip-path="url(#p35a7b3a3f1)" style="fill: #ff0000; opacity: 0.7"/>
   </g>
   <g id="patch_231">
    <path d="M 356.740541 140.252729 
L 360.422115 140.252729 
L 360.422115 140.252729 
L 356.740541 140.252729 
z
" clip-path="url(#p35a7b3a3f1)" style="fill: #ff0000; opacity: 0.7"/>
   </g>
   <g id="patch_232">
    <path d="M 360.422115 140.252729 
L 364.10369 140.252729 
L 364.10369 140.252729 
L 360.422115 140.252729 
z
" clip-path="url(#p35a7b3a3f1)" style="fill: #ff0000; opacity: 0.7"/>
   </g>
   <g id="patch_233">
    <path d="M 364.10369 140.252729 
L 367.785264 140.252729 
L 367.785264 140.252729 
L 364.10369 140.252729 
z
" clip-path="url(#p35a7b3a3f1)" style="fill: #ff0000; opacity: 0.7"/>
   </g>
   <g id="patch_234">
    <path d="M 367.785264 140.252729 
L 371.466839 140.252729 
L 371.466839 140.252729 
L 367.785264 140.252729 
z
" clip-path="url(#p35a7b3a3f1)" style="fill: #ff0000; opacity: 0.7"/>
   </g>
   <g id="patch_235">
    <path d="M 371.466839 140.252729 
L 375.148413 140.252729 
L 375.148413 140.252729 
L 371.466839 140.252729 
z
" clip-path="url(#p35a7b3a3f1)" style="fill: #ff0000; opacity: 0.7"/>
   </g>
   <g id="patch_236">
    <path d="M 375.148413 140.252729 
L 378.829988 140.252729 
L 378.829988 140.252729 
L 375.148413 140.252729 
z
" clip-path="url(#p35a7b3a3f1)" style="fill: #ff0000; opacity: 0.7"/>
   </g>
   <g id="patch_237">
    <path d="M 378.829988 140.252729 
L 382.511562 140.252729 
L 382.511562 140.252729 
L 378.829988 140.252729 
z
" clip-path="url(#p35a7b3a3f1)" style="fill: #ff0000; opacity: 0.7"/>
   </g>
   <g id="patch_238">
    <path d="M 382.511562 140.252729 
L 386.193137 140.252729 
L 386.193137 140.252729 
L 382.511562 140.252729 
z
" clip-path="url(#p35a7b3a3f1)" style="fill: #ff0000; opacity: 0.7"/>
   </g>
   <g id="patch_239">
    <path d="M 386.193137 140.252729 
L 389.874711 140.252729 
L 389.874711 140.252729 
L 386.193137 140.252729 
z
" clip-path="url(#p35a7b3a3f1)" style="fill: #ff0000; opacity: 0.7"/>
   </g>
   <g id="patch_240">
    <path d="M 389.874711 140.252729 
L 393.556286 140.252729 
L 393.556286 140.252729 
L 389.874711 140.252729 
z
" clip-path="url(#p35a7b3a3f1)" style="fill: #ff0000; opacity: 0.7"/>
   </g>
   <g id="patch_241">
    <path d="M 393.556286 140.252729 
L 397.23786 140.252729 
L 397.23786 140.252729 
L 393.556286 140.252729 
z
" clip-path="url(#p35a7b3a3f1)" style="fill: #ff0000; opacity: 0.7"/>
   </g>
   <g id="patch_242">
    <path d="M 397.23786 140.252729 
L 400.919434 140.252729 
L 400.919434 140.252729 
L 397.23786 140.252729 
z
" clip-path="url(#p35a7b3a3f1)" style="fill: #ff0000; opacity: 0.7"/>
   </g>
   <g id="patch_243">
    <path d="M 400.919434 140.252729 
L 404.601009 140.252729 
L 404.601009 140.252729 
L 400.919434 140.252729 
z
" clip-path="url(#p35a7b3a3f1)" style="fill: #ff0000; opacity: 0.7"/>
   </g>
   <g id="patch_244">
    <path d="M 404.601009 140.252729 
L 408.282583 140.252729 
L 408.282583 140.252729 
L 404.601009 140.252729 
z
" clip-path="url(#p35a7b3a3f1)" style="fill: #ff0000; opacity: 0.7"/>
   </g>
   <g id="patch_245">
    <path d="M 408.282583 140.252729 
L 411.964158 140.252729 
L 411.964158 140.252729 
L 408.282583 140.252729 
z
" clip-path="url(#p35a7b3a3f1)" style="fill: #ff0000; opacity: 0.7"/>
   </g>
   <g id="patch_246">
    <path d="M 411.964158 140.252729 
L 415.645732 140.252729 
L 415.645732 140.252729 
L 411.964158 140.252729 
z
" clip-path="url(#p35a7b3a3f1)" style="fill: #ff0000; opacity: 0.7"/>
   </g>
   <g id="patch_247">
    <path d="M 415.645732 140.252729 
L 419.327307 140.252729 
L 419.327307 140.252729 
L 415.645732 140.252729 
z
" clip-path="url(#p35a7b3a3f1)" style="fill: #ff0000; opacity: 0.7"/>
   </g>
   <g id="patch_248">
    <path d="M 419.327307 140.252729 
L 423.008881 140.252729 
L 423.008881 140.252729 
L 419.327307 140.252729 
z
" clip-path="url(#p35a7b3a3f1)" style="fill: #ff0000; opacity: 0.7"/>
   </g>
   <g id="patch_249">
    <path d="M 423.008881 140.252729 
L 426.690456 140.252729 
L 426.690456 140.252729 
L 423.008881 140.252729 
z
" clip-path="url(#p35a7b3a3f1)" style="fill: #ff0000; opacity: 0.7"/>
   </g>
   <g id="patch_250">
    <path d="M 426.690456 140.252729 
L 430.37203 140.252729 
L 430.37203 140.252729 
L 426.690456 140.252729 
z
" clip-path="url(#p35a7b3a3f1)" style="fill: #ff0000; opacity: 0.7"/>
   </g>
   <g id="patch_251">
    <path d="M 430.37203 140.252729 
L 434.053605 140.252729 
L 434.053605 140.252729 
L 430.37203 140.252729 
z
" clip-path="url(#p35a7b3a3f1)" style="fill: #ff0000; opacity: 0.7"/>
   </g>
   <g id="patch_252">
    <path d="M 434.053605 140.252729 
L 437.735179 140.252729 
L 437.735179 140.252729 
L 434.053605 140.252729 
z
" clip-path="url(#p35a7b3a3f1)" style="fill: #ff0000; opacity: 0.7"/>
   </g>
   <g id="patch_253">
    <path d="M 437.735179 140.252729 
L 441.416754 140.252729 
L 441.416754 100.434082 
L 437.735179 100.434082 
z
" clip-path="url(#p35a7b3a3f1)" style="fill: #ff0000; opacity: 0.7"/>
   </g>
   <g id="patch_254">
    <path d="M 441.416754 140.252729 
L 445.098328 140.252729 
L 445.098328 100.434082 
L 441.416754 100.434082 
z
" clip-path="url(#p35a7b3a3f1)" style="fill: #ff0000; opacity: 0.7"/>
   </g>
   <g id="patch_255">
    <path d="M 445.098328 140.252729 
L 448.779903 140.252729 
L 448.779903 140.252729 
L 445.098328 140.252729 
z
" clip-path="url(#p35a7b3a3f1)" style="fill: #ff0000; opacity: 0.7"/>
   </g>
   <g id="patch_256">
    <path d="M 268.382754 140.252729 
L 272.064328 140.252729 
L 272.064328 140.252729 
L 268.382754 140.252729 
z
" clip-path="url(#p35a7b3a3f1)" style="fill: #808080; opacity: 0.7"/>
   </g>
   <g id="patch_257">
    <path d="M 272.064328 140.252729 
L 275.745903 140.252729 
L 275.745903 140.252729 
L 272.064328 140.252729 
z
" clip-path="url(#p35a7b3a3f1)" style="fill: #808080; opacity: 0.7"/>
   </g>
   <g id="patch_258">
    <path d="M 275.745903 140.252729 
L 279.427477 140.252729 
L 279.427477 140.252729 
L 275.745903 140.252729 
z
" clip-path="url(#p35a7b3a3f1)" style="fill: #808080; opacity: 0.7"/>
   </g>
   <g id="patch_259">
    <path d="M 279.427477 140.252729 
L 283.109052 140.252729 
L 283.109052 140.252729 
L 279.427477 140.252729 
z
" clip-path="url(#p35a7b3a3f1)" style="fill: #808080; opacity: 0.7"/>
   </g>
   <g id="patch_260">
    <path d="M 283.109052 140.252729 
L 286.790626 140.252729 
L 286.790626 140.252729 
L 283.109052 140.252729 
z
" clip-path="url(#p35a7b3a3f1)" style="fill: #808080; opacity: 0.7"/>
   </g>
   <g id="patch_261">
    <path d="M 286.790626 140.252729 
L 290.4722 140.252729 
L 290.4722 140.252729 
L 286.790626 140.252729 
z
" clip-path="url(#p35a7b3a3f1)" style="fill: #808080; opacity: 0.7"/>
   </g>
   <g id="patch_262">
    <path d="M 290.4722 140.252729 
L 294.153775 140.252729 
L 294.153775 140.252729 
L 290.4722 140.252729 
z
" clip-path="url(#p35a7b3a3f1)" style="fill: #808080; opacity: 0.7"/>
   </g>
   <g id="patch_263">
    <path d="M 294.153775 140.252729 
L 297.835349 140.252729 
L 297.835349 140.252729 
L 294.153775 140.252729 
z
" clip-path="url(#p35a7b3a3f1)" style="fill: #808080; opacity: 0.7"/>
   </g>
   <g id="patch_264">
    <path d="M 297.835349 140.252729 
L 301.516924 140.252729 
L 301.516924 140.252729 
L 297.835349 140.252729 
z
" clip-path="url(#p35a7b3a3f1)" style="fill: #808080; opacity: 0.7"/>
   </g>
   <g id="patch_265">
    <path d="M 301.516924 140.252729 
L 305.198498 140.252729 
L 305.198498 140.252729 
L 301.516924 140.252729 
z
" clip-path="url(#p35a7b3a3f1)" style="fill: #808080; opacity: 0.7"/>
   </g>
   <g id="patch_266">
    <path d="M 305.198498 140.252729 
L 308.880073 140.252729 
L 308.880073 140.252729 
L 305.198498 140.252729 
z
" clip-path="url(#p35a7b3a3f1)" style="fill: #808080; opacity: 0.7"/>
   </g>
   <g id="patch_267">
    <path d="M 308.880073 140.252729 
L 312.561647 140.252729 
L 312.561647 140.252729 
L 308.880073 140.252729 
z
" clip-path="url(#p35a7b3a3f1)" style="fill: #808080; opacity: 0.7"/>
   </g>
   <g id="patch_268">
    <path d="M 312.561647 140.252729 
L 316.243222 140.252729 
L 316.243222 140.252729 
L 312.561647 140.252729 
z
" clip-path="url(#p35a7b3a3f1)" style="fill: #808080; opacity: 0.7"/>
   </g>
   <g id="patch_269">
    <path d="M 316.243222 140.252729 
L 319.924796 140.252729 
L 319.924796 140.252729 
L 316.243222 140.252729 
z
" clip-path="url(#p35a7b3a3f1)" style="fill: #808080; opacity: 0.7"/>
   </g>
   <g id="patch_270">
    <path d="M 319.924796 140.252729 
L 323.606371 140.252729 
L 323.606371 140.252729 
L 319.924796 140.252729 
z
" clip-path="url(#p35a7b3a3f1)" style="fill: #808080; opacity: 0.7"/>
   </g>
   <g id="patch_271">
    <path d="M 323.606371 140.252729 
L 327.287945 140.252729 
L 327.287945 140.252729 
L 323.606371 140.252729 
z
" clip-path="url(#p35a7b3a3f1)" style="fill: #808080; opacity: 0.7"/>
   </g>
   <g id="patch_272">
    <path d="M 327.287945 140.252729 
L 330.96952 140.252729 
L 330.96952 140.252729 
L 327.287945 140.252729 
z
" clip-path="url(#p35a7b3a3f1)" style="fill: #808080; opacity: 0.7"/>
   </g>
   <g id="patch_273">
    <path d="M 330.96952 140.252729 
L 334.651094 140.252729 
L 334.651094 140.252729 
L 330.96952 140.252729 
z
" clip-path="url(#p35a7b3a3f1)" style="fill: #808080; opacity: 0.7"/>
   </g>
   <g id="patch_274">
    <path d="M 334.651094 140.252729 
L 338.332669 140.252729 
L 338.332669 140.252729 
L 334.651094 140.252729 
z
" clip-path="url(#p35a7b3a3f1)" style="fill: #808080; opacity: 0.7"/>
   </g>
   <g id="patch_275">
    <path d="M 338.332669 140.252729 
L 342.014243 140.252729 
L 342.014243 140.252729 
L 338.332669 140.252729 
z
" clip-path="url(#p35a7b3a3f1)" style="fill: #808080; opacity: 0.7"/>
   </g>
   <g id="patch_276">
    <path d="M 342.014243 140.252729 
L 345.695817 140.252729 
L 345.695817 140.252729 
L 342.014243 140.252729 
z
" clip-path="url(#p35a7b3a3f1)" style="fill: #808080; opacity: 0.7"/>
   </g>
   <g id="patch_277">
    <path d="M 345.695817 140.252729 
L 349.377392 140.252729 
L 349.377392 140.252729 
L 345.695817 140.252729 
z
" clip-path="url(#p35a7b3a3f1)" style="fill: #808080; opacity: 0.7"/>
   </g>
   <g id="patch_278">
    <path d="M 349.377392 140.252729 
L 353.058966 140.252729 
L 353.058966 100.434082 
L 349.377392 100.434082 
z
" clip-path="url(#p35a7b3a3f1)" style="fill: #808080; opacity: 0.7"/>
   </g>
   <g id="patch_279">
    <path d="M 353.058966 140.252729 
L 356.740541 140.252729 
L 356.740541 100.434082 
L 353.058966 100.434082 
z
" clip-path="url(#p35a7b3a3f1)" style="fill: #808080; opacity: 0.7"/>
   </g>
   <g id="patch_280">
    <path d="M 356.740541 140.252729 
L 360.422115 140.252729 
L 360.422115 100.434082 
L 356.740541 100.434082 
z
" clip-path="url(#p35a7b3a3f1)" style="fill: #808080; opacity: 0.7"/>
   </g>
   <g id="patch_281">
    <path d="M 360.422115 140.252729 
L 364.10369 140.252729 
L 364.10369 100.434082 
L 360.422115 100.434082 
z
" clip-path="url(#p35a7b3a3f1)" style="fill: #808080; opacity: 0.7"/>
   </g>
   <g id="patch_282">
    <path d="M 364.10369 140.252729 
L 367.785264 140.252729 
L 367.785264 20.796787 
L 364.10369 20.796787 
z
" clip-path="url(#p35a7b3a3f1)" style="fill: #808080; opacity: 0.7"/>
   </g>
   <g id="patch_283">
    <path d="M 367.785264 140.252729 
L 371.466839 140.252729 
L 371.466839 100.434082 
L 367.785264 100.434082 
z
" clip-path="url(#p35a7b3a3f1)" style="fill: #808080; opacity: 0.7"/>
   </g>
   <g id="patch_284">
    <path d="M 371.466839 140.252729 
L 375.148413 140.252729 
L 375.148413 20.796787 
L 371.466839 20.796787 
z
" clip-path="url(#p35a7b3a3f1)" style="fill: #808080; opacity: 0.7"/>
   </g>
   <g id="patch_285">
    <path d="M 375.148413 140.252729 
L 378.829988 140.252729 
L 378.829988 140.252729 
L 375.148413 140.252729 
z
" clip-path="url(#p35a7b3a3f1)" style="fill: #808080; opacity: 0.7"/>
   </g>
   <g id="patch_286">
    <path d="M 378.829988 140.252729 
L 382.511562 140.252729 
L 382.511562 140.252729 
L 378.829988 140.252729 
z
" clip-path="url(#p35a7b3a3f1)" style="fill: #808080; opacity: 0.7"/>
   </g>
   <g id="patch_287">
    <path d="M 382.511562 140.252729 
L 386.193137 140.252729 
L 386.193137 140.252729 
L 382.511562 140.252729 
z
" clip-path="url(#p35a7b3a3f1)" style="fill: #808080; opacity: 0.7"/>
   </g>
   <g id="patch_288">
    <path d="M 386.193137 140.252729 
L 389.874711 140.252729 
L 389.874711 140.252729 
L 386.193137 140.252729 
z
" clip-path="url(#p35a7b3a3f1)" style="fill: #808080; opacity: 0.7"/>
   </g>
   <g id="patch_289">
    <path d="M 389.874711 140.252729 
L 393.556286 140.252729 
L 393.556286 100.434082 
L 389.874711 100.434082 
z
" clip-path="url(#p35a7b3a3f1)" style="fill: #808080; opacity: 0.7"/>
   </g>
   <g id="patch_290">
    <path d="M 393.556286 140.252729 
L 397.23786 140.252729 
L 397.23786 140.252729 
L 393.556286 140.252729 
z
" clip-path="url(#p35a7b3a3f1)" style="fill: #808080; opacity: 0.7"/>
   </g>
   <g id="patch_291">
    <path d="M 397.23786 140.252729 
L 400.919434 140.252729 
L 400.919434 140.252729 
L 397.23786 140.252729 
z
" clip-path="url(#p35a7b3a3f1)" style="fill: #808080; opacity: 0.7"/>
   </g>
   <g id="patch_292">
    <path d="M 400.919434 140.252729 
L 404.601009 140.252729 
L 404.601009 140.252729 
L 400.919434 140.252729 
z
" clip-path="url(#p35a7b3a3f1)" style="fill: #808080; opacity: 0.7"/>
   </g>
   <g id="patch_293">
    <path d="M 404.601009 140.252729 
L 408.282583 140.252729 
L 408.282583 140.252729 
L 404.601009 140.252729 
z
" clip-path="url(#p35a7b3a3f1)" style="fill: #808080; opacity: 0.7"/>
   </g>
   <g id="patch_294">
    <path d="M 408.282583 140.252729 
L 411.964158 140.252729 
L 411.964158 140.252729 
L 408.282583 140.252729 
z
" clip-path="url(#p35a7b3a3f1)" style="fill: #808080; opacity: 0.7"/>
   </g>
   <g id="patch_295">
    <path d="M 411.964158 140.252729 
L 415.645732 140.252729 
L 415.645732 140.252729 
L 411.964158 140.252729 
z
" clip-path="url(#p35a7b3a3f1)" style="fill: #808080; opacity: 0.7"/>
   </g>
   <g id="patch_296">
    <path d="M 415.645732 140.252729 
L 419.327307 140.252729 
L 419.327307 140.252729 
L 415.645732 140.252729 
z
" clip-path="url(#p35a7b3a3f1)" style="fill: #808080; opacity: 0.7"/>
   </g>
   <g id="patch_297">
    <path d="M 419.327307 140.252729 
L 423.008881 140.252729 
L 423.008881 140.252729 
L 419.327307 140.252729 
z
" clip-path="url(#p35a7b3a3f1)" style="fill: #808080; opacity: 0.7"/>
   </g>
   <g id="patch_298">
    <path d="M 423.008881 140.252729 
L 426.690456 140.252729 
L 426.690456 140.252729 
L 423.008881 140.252729 
z
" clip-path="url(#p35a7b3a3f1)" style="fill: #808080; opacity: 0.7"/>
   </g>
   <g id="patch_299">
    <path d="M 426.690456 140.252729 
L 430.37203 140.252729 
L 430.37203 140.252729 
L 426.690456 140.252729 
z
" clip-path="url(#p35a7b3a3f1)" style="fill: #808080; opacity: 0.7"/>
   </g>
   <g id="patch_300">
    <path d="M 430.37203 140.252729 
L 434.053605 140.252729 
L 434.053605 140.252729 
L 430.37203 140.252729 
z
" clip-path="url(#p35a7b3a3f1)" style="fill: #808080; opacity: 0.7"/>
   </g>
   <g id="patch_301">
    <path d="M 434.053605 140.252729 
L 437.735179 140.252729 
L 437.735179 140.252729 
L 434.053605 140.252729 
z
" clip-path="url(#p35a7b3a3f1)" style="fill: #808080; opacity: 0.7"/>
   </g>
   <g id="patch_302">
    <path d="M 437.735179 140.252729 
L 441.416754 140.252729 
L 441.416754 140.252729 
L 437.735179 140.252729 
z
" clip-path="url(#p35a7b3a3f1)" style="fill: #808080; opacity: 0.7"/>
   </g>
   <g id="patch_303">
    <path d="M 441.416754 140.252729 
L 445.098328 140.252729 
L 445.098328 140.252729 
L 441.416754 140.252729 
z
" clip-path="url(#p35a7b3a3f1)" style="fill: #808080; opacity: 0.7"/>
   </g>
   <g id="patch_304">
    <path d="M 445.098328 140.252729 
L 448.779903 140.252729 
L 448.779903 140.252729 
L 445.098328 140.252729 
z
" clip-path="url(#p35a7b3a3f1)" style="fill: #808080; opacity: 0.7"/>
   </g>
   <g id="matplotlib.axis_3">
    <g id="xtick_6">
     <g id="line2d_13">
      <g>
       <use xlink:href="#mcc8fd37c16" x="268.382754" y="140.252729" style="stroke: #000000; stroke-width: 0.5"/>
      </g>
     </g>
     <g id="text_18">
      <text style="font: 10px 'Arial'; text-anchor: middle" x="268.382754" y="157.410541" transform="rotate(-0 268.382754 157.410541)">−1.0</text>
     </g>
    </g>
    <g id="xtick_7">
     <g id="line2d_14">
      <g>
       <use xlink:href="#mcc8fd37c16" x="313.482041" y="140.252729" style="stroke: #000000; stroke-width: 0.5"/>
      </g>
     </g>
     <g id="text_19">
      <text style="font: 10px 'Arial'; text-anchor: middle" x="313.482041" y="157.410541" transform="rotate(-0 313.482041 157.410541)">−0.5</text>
     </g>
    </g>
    <g id="xtick_8">
     <g id="line2d_15">
      <g>
       <use xlink:href="#mcc8fd37c16" x="358.581328" y="140.252729" style="stroke: #000000; stroke-width: 0.5"/>
      </g>
     </g>
     <g id="text_20">
      <text style="font: 10px 'Arial'; text-anchor: middle" x="358.581328" y="157.410541" transform="rotate(-0 358.581328 157.410541)">0.0</text>
     </g>
    </g>
    <g id="xtick_9">
     <g id="line2d_16">
      <g>
       <use xlink:href="#mcc8fd37c16" x="403.680615" y="140.252729" style="stroke: #000000; stroke-width: 0.5"/>
      </g>
     </g>
     <g id="text_21">
      <text style="font: 10px 'Arial'; text-anchor: middle" x="403.680615" y="157.410541" transform="rotate(-0 403.680615 157.410541)">0.5</text>
     </g>
    </g>
    <g id="xtick_10">
     <g id="line2d_17">
      <g>
       <use xlink:href="#mcc8fd37c16" x="448.779903" y="140.252729" style="stroke: #000000; stroke-width: 0.5"/>
      </g>
     </g>
     <g id="text_22">
      <text style="font: 10px 'Arial'; text-anchor: middle" x="448.779903" y="157.410541" transform="rotate(-0 448.779903 157.410541)">1.0</text>
     </g>
    </g>
    <g id="text_23">
     <text style="font: 7px 'Arial'; text-anchor: middle" x="358.581328" y="168.40851" transform="rotate(-0 358.581328 168.40851)">r</text>
    </g>
   </g>
   <g id="matplotlib.axis_4">
    <g id="ytick_6">
     <g id="line2d_18">
      <g>
       <use xlink:href="#ma8d865273a" x="259.362896" y="140.252729" style="stroke: #000000; stroke-width: 0.5"/>
      </g>
     </g>
     <g id="text_24">
      <text style="font: 10px 'Arial'; text-anchor: end" x="249.362896" y="143.831635" transform="rotate(-0 249.362896 143.831635)">0</text>
     </g>
    </g>
    <g id="ytick_7">
     <g id="line2d_19">
      <g>
       <use xlink:href="#ma8d865273a" x="259.362896" y="100.434082" style="stroke: #000000; stroke-width: 0.5"/>
      </g>
     </g>
     <g id="text_25">
      <text style="font: 10px 'Arial'; text-anchor: end" x="249.362896" y="104.012988" transform="rotate(-0 249.362896 104.012988)">1</text>
     </g>
    </g>
    <g id="ytick_8">
     <g id="line2d_20">
      <g>
       <use xlink:href="#ma8d865273a" x="259.362896" y="60.615434" style="stroke: #000000; stroke-width: 0.5"/>
      </g>
     </g>
     <g id="text_26">
      <text style="font: 10px 'Arial'; text-anchor: end" x="249.362896" y="64.194341" transform="rotate(-0 249.362896 64.194341)">2</text>
     </g>
    </g>
    <g id="ytick_9">
     <g id="line2d_21">
      <g>
       <use xlink:href="#ma8d865273a" x="259.362896" y="20.796787" style="stroke: #000000; stroke-width: 0.5"/>
      </g>
     </g>
     <g id="text_27">
      <text style="font: 10px 'Arial'; text-anchor: end" x="249.362896" y="24.375693" transform="rotate(-0 249.362896 24.375693)">3</text>
     </g>
    </g>
    <g id="text_28">
     <text style="font: 7px 'Arial'; text-anchor: middle" x="238.410709" y="77.538359" transform="rotate(-90 238.410709 77.538359)">count</text>
    </g>
   </g>
   <g id="line2d_22">
    <path d="M 366.555751 140.252729 
L 366.555751 14.82399 
" clip-path="url(#p35a7b3a3f1)" style="fill: none; stroke-dasharray: 3.7,1.6; stroke-dashoffset: 0; stroke: #0000ff"/>
   </g>
   <g id="line2d_23">
    <path d="M 366.532128 140.252729 
L 366.532128 14.82399 
" clip-path="url(#p35a7b3a3f1)" style="fill: none; stroke-dasharray: 3.7,1.6; stroke-dashoffset: 0; stroke: #808080"/>
   </g>
   <g id="patch_305">
    <path d="M 259.362896 140.252729 
L 259.362896 14.82399 
" style="fill: none; stroke: #000000; stroke-width: 0.5; stroke-linejoin: miter; stroke-linecap: square"/>
   </g>
   <g id="patch_306">
    <path d="M 457.79976 140.252729 
L 457.79976 14.82399 
" style="fill: none; stroke: #000000; stroke-width: 0.5; stroke-linejoin: miter; stroke-linecap: square"/>
   </g>
   <g id="patch_307">
    <path d="M 259.362896 140.252729 
L 457.79976 140.252729 
" style="fill: none; stroke: #000000; stroke-width: 0.5; stroke-linejoin: miter; stroke-linecap: square"/>
   </g>
   <g id="patch_308">
    <path d="M 259.362896 14.82399 
L 457.79976 14.82399 
" style="fill: none; stroke: #000000; stroke-width: 0.5; stroke-linejoin: miter; stroke-linecap: square"/>
   </g>
   <g id="text_29">
    <text style="font: 7px 'Arial'; text-anchor: end" x="447.877917" y="26.191208" transform="rotate(-0 447.877917 26.191208)">16.7% sig</text>
   </g>
   <g id="text_30">
    <text style="font: 8px 'Arial'; text-anchor: middle" x="358.581328" y="8.82399" transform="rotate(-0 358.581328 8.82399)">TC: p=0.333</text>
   </g>
   <g id="legend_2">
    <g id="patch_309">
     <path d="M 264.762896 24.518677 
L 276.762896 24.518677 
L 276.762896 20.318677 
L 264.762896 20.318677 
z
" style="fill: #0000ff; opacity: 0.7"/>
    </g>
    <g id="text_31">
     <text style="font: 6px 'Arial'; text-anchor: start" x="281.562896" y="24.518677" transform="rotate(-0 281.562896 24.518677)">orig non-sig</text>
    </g>
    <g id="patch_310">
     <path d="M 264.762896 33.076177 
L 276.762896 33.076177 
L 276.762896 28.876177 
L 264.762896 28.876177 
z
" style="fill: #ff0000; opacity: 0.7"/>
    </g>
    <g id="text_32">
     <text style="font: 6px 'Arial'; text-anchor: start" x="281.562896" y="33.076177" transform="rotate(-0 281.562896 33.076177)">orig sig</text>
    </g>
    <g id="patch_311">
     <path d="M 264.762896 41.633677 
L 276.762896 41.633677 
L 276.762896 37.433677 
L 264.762896 37.433677 
z
" style="fill: #808080; opacity: 0.7"/>
    </g>
    <g id="text_33">
     <text style="font: 6px 'Arial'; text-anchor: start" x="281.562896" y="41.633677" transform="rotate(-0 281.562896 41.633677)">shuffled mean</text>
    </g>
   </g>
  </g>
 </g>
 <defs>
  <clipPath id="p7d8419bcea">
   <rect x="28.962896" y="14.82399" width="198.436864" height="125.428739"/>
  </clipPath>
  <clipPath id="p35a7b3a3f1">
   <rect x="259.362896" y="14.82399" width="198.436864" height="125.428739"/>
  </clipPath>
 </defs>
</svg>
